%TF.GenerationSoftware,KiCad,Pcbnew,9.0.6*%
%TF.CreationDate,2025-12-01T19:29:45+01:00*%
%TF.ProjectId,_SSDV,b5535344-562e-46b6-9963-61645f706362,0.1*%
%TF.SameCoordinates,Original*%
%TF.FileFunction,Copper,L1,Top*%
%TF.FilePolarity,Positive*%
%FSLAX46Y46*%
G04 Gerber Fmt 4.6, Leading zero omitted, Abs format (unit mm)*
G04 Created by KiCad (PCBNEW 9.0.6) date 2025-12-01 19:29:45*
%MOMM*%
%LPD*%
G01*
G04 APERTURE LIST*
G04 Aperture macros list*
%AMRoundRect*
0 Rectangle with rounded corners*
0 $1 Rounding radius*
0 $2 $3 $4 $5 $6 $7 $8 $9 X,Y pos of 4 corners*
0 Add a 4 corners polygon primitive as box body*
4,1,4,$2,$3,$4,$5,$6,$7,$8,$9,$2,$3,0*
0 Add four circle primitives for the rounded corners*
1,1,$1+$1,$2,$3*
1,1,$1+$1,$4,$5*
1,1,$1+$1,$6,$7*
1,1,$1+$1,$8,$9*
0 Add four rect primitives between the rounded corners*
20,1,$1+$1,$2,$3,$4,$5,0*
20,1,$1+$1,$4,$5,$6,$7,0*
20,1,$1+$1,$6,$7,$8,$9,0*
20,1,$1+$1,$8,$9,$2,$3,0*%
G04 Aperture macros list end*
%TA.AperFunction,ComponentPad*%
%ADD10R,1.700000X1.700000*%
%TD*%
%TA.AperFunction,SMDPad,CuDef*%
%ADD11RoundRect,0.200000X0.700000X0.200000X-0.700000X0.200000X-0.700000X-0.200000X0.700000X-0.200000X0*%
%TD*%
%TA.AperFunction,SMDPad,CuDef*%
%ADD12RoundRect,0.237500X-0.237500X0.250000X-0.237500X-0.250000X0.237500X-0.250000X0.237500X0.250000X0*%
%TD*%
%TA.AperFunction,SMDPad,CuDef*%
%ADD13RoundRect,0.237500X-0.300000X-0.237500X0.300000X-0.237500X0.300000X0.237500X-0.300000X0.237500X0*%
%TD*%
%TA.AperFunction,ComponentPad*%
%ADD14C,1.700000*%
%TD*%
%TA.AperFunction,SMDPad,CuDef*%
%ADD15RoundRect,0.237500X-0.250000X-0.237500X0.250000X-0.237500X0.250000X0.237500X-0.250000X0.237500X0*%
%TD*%
%TA.AperFunction,ComponentPad*%
%ADD16O,2.844800X1.422400*%
%TD*%
%TA.AperFunction,SMDPad,CuDef*%
%ADD17RoundRect,0.162500X0.162500X-0.617500X0.162500X0.617500X-0.162500X0.617500X-0.162500X-0.617500X0*%
%TD*%
%TA.AperFunction,SMDPad,CuDef*%
%ADD18RoundRect,0.249999X-1.850001X0.450001X-1.850001X-0.450001X1.850001X-0.450001X1.850001X0.450001X0*%
%TD*%
%TA.AperFunction,SMDPad,CuDef*%
%ADD19RoundRect,0.317500X-1.157500X-0.317500X1.157500X-0.317500X1.157500X0.317500X-1.157500X0.317500X0*%
%TD*%
%TA.AperFunction,SMDPad,CuDef*%
%ADD20RoundRect,0.237500X-0.237500X0.300000X-0.237500X-0.300000X0.237500X-0.300000X0.237500X0.300000X0*%
%TD*%
%TA.AperFunction,ViaPad*%
%ADD21C,0.600000*%
%TD*%
%TA.AperFunction,Conductor*%
%ADD22C,0.200000*%
%TD*%
%TA.AperFunction,Conductor*%
%ADD23C,1.000000*%
%TD*%
%TA.AperFunction,Conductor*%
%ADD24C,0.700000*%
%TD*%
G04 APERTURE END LIST*
D10*
%TO.P,ANT1,1,1*%
%TO.N,Net-(U2-RF_IN)*%
X82000000Y-45000000D03*
%TD*%
D11*
%TO.P,U2,1,GND*%
%TO.N,GND*%
X94750000Y-53200000D03*
%TO.P,U2,2,TXD1*%
%TO.N,GPS_RX*%
X94750000Y-52100000D03*
%TO.P,U2,3,RXD1*%
%TO.N,unconnected-(U2-RXD1-Pad3)*%
X94750000Y-51000000D03*
%TO.P,U2,4,1PPS*%
%TO.N,unconnected-(U2-1PPS-Pad4)*%
X94750000Y-49900000D03*
%TO.P,U2,5,STANDBY*%
%TO.N,unconnected-(U2-STANDBY-Pad5)*%
X94750000Y-48800000D03*
%TO.P,U2,6,V_BCKP*%
%TO.N,+3V3*%
X94750000Y-47700000D03*
%TO.P,U2,7,NC*%
%TO.N,unconnected-(U2-NC-Pad7)*%
X94750000Y-46600000D03*
%TO.P,U2,8,VCC*%
%TO.N,+3V3*%
X94750000Y-45500000D03*
%TO.P,U2,9,~{RESET}*%
%TO.N,unconnected-(U2-~{RESET}-Pad9)*%
X94750000Y-44400000D03*
%TO.P,U2,10,GND*%
%TO.N,GND*%
X85050000Y-44400000D03*
%TO.P,U2,11,RF_IN*%
%TO.N,Net-(U2-RF_IN)*%
X85050000Y-45500000D03*
%TO.P,U2,12,GND*%
%TO.N,GND*%
X85050000Y-46600000D03*
%TO.P,U2,13,ANTON*%
%TO.N,unconnected-(U2-ANTON-Pad13)*%
X85050000Y-47700000D03*
%TO.P,U2,14,VCC_RF*%
%TO.N,unconnected-(U2-VCC_RF-Pad14)*%
X85050000Y-48800000D03*
%TO.P,U2,15,NC*%
%TO.N,unconnected-(U2-NC-Pad15)*%
X85050000Y-49900000D03*
%TO.P,U2,16,RESERVED*%
%TO.N,unconnected-(U2-RESERVED-Pad16)*%
X85050000Y-51000000D03*
%TO.P,U2,17,RESERVED*%
%TO.N,unconnected-(U2-RESERVED-Pad17)*%
X85050000Y-52100000D03*
%TO.P,U2,18,RESERVED*%
%TO.N,unconnected-(U2-RESERVED-Pad18)*%
X85050000Y-53200000D03*
%TD*%
D12*
%TO.P,R2,1*%
%TO.N,Net-(U4-V_{FB})*%
X100175000Y-55600000D03*
%TO.P,R2,2*%
%TO.N,GND*%
X100175000Y-57425000D03*
%TD*%
D13*
%TO.P,C3,1*%
%TO.N,+3V3*%
X97312500Y-50850000D03*
%TO.P,C3,2*%
%TO.N,GND*%
X99037500Y-50850000D03*
%TD*%
D10*
%TO.P,J1,1,Pin_1*%
%TO.N,GND*%
X101525000Y-45250000D03*
D14*
%TO.P,J1,2,Pin_2*%
%TO.N,+BATT*%
X98985000Y-45250000D03*
%TD*%
D15*
%TO.P,R1,1*%
%TO.N,+3V3*%
X97512500Y-54100000D03*
%TO.P,R1,2*%
%TO.N,Net-(U4-V_{FB})*%
X99337500Y-54100000D03*
%TD*%
D16*
%TO.P,U1,P$1,5V*%
%TO.N,unconnected-(U1-5V-PadP$1)*%
X81820000Y-47978500D03*
%TO.P,U1,P$2,GND*%
%TO.N,GND*%
X81820000Y-50518500D03*
%TO.P,U1,P$3,IO12*%
%TO.N,MISO*%
X81820000Y-53058500D03*
%TO.P,U1,P$4,IO13*%
%TO.N,MOSI*%
X81820000Y-55598500D03*
%TO.P,U1,P$5,IO15*%
%TO.N,CS*%
X81820000Y-58138500D03*
%TO.P,U1,P$6,IO14*%
%TO.N,SCK*%
X81820000Y-60678500D03*
%TO.P,U1,P$7,IO2*%
%TO.N,unconnected-(U1-IO2-PadP$7)*%
X81820000Y-63218500D03*
%TO.P,U1,P$8,IO4*%
%TO.N,unconnected-(U1-IO4-PadP$8)*%
X81820000Y-65758500D03*
%TO.P,U1,P$9,.GND*%
%TO.N,GND*%
X104680000Y-65758500D03*
%TO.P,U1,P$10,IO1/U0T*%
%TO.N,TX*%
X104680000Y-63218500D03*
%TO.P,U1,P$11,IO3/U0R*%
%TO.N,RX*%
X104680000Y-60678500D03*
%TO.P,U1,P$12,3V3.*%
%TO.N,unconnected-(U1-3V3.-PadP$12)*%
X104680000Y-58138500D03*
%TO.P,U1,P$13,GND.*%
%TO.N,GND*%
X104680000Y-55598500D03*
%TO.P,U1,P$14,IO0*%
%TO.N,IO0*%
X104680000Y-53058500D03*
%TO.P,U1,P$15,IO16*%
%TO.N,GPS_RX*%
X104680000Y-50518500D03*
%TO.P,U1,P$16,3V3*%
%TO.N,+3V3*%
X104680000Y-47978500D03*
%TD*%
D17*
%TO.P,U4,1,SW*%
%TO.N,Net-(U4-SW)*%
X96525000Y-58800000D03*
%TO.P,U4,2,GND*%
%TO.N,GND*%
X97475000Y-58800000D03*
%TO.P,U4,3,EN*%
%TO.N,+BATT*%
X98425000Y-58800000D03*
%TO.P,U4,4,V_{FB}*%
%TO.N,Net-(U4-V_{FB})*%
X98425000Y-56100000D03*
%TO.P,U4,5,V_{OUT}*%
%TO.N,+3V3*%
X97475000Y-56100000D03*
%TO.P,U4,6,V_{IN}*%
%TO.N,+BATT*%
X96525000Y-56100000D03*
%TD*%
D10*
%TO.P,ANT2,1,1*%
%TO.N,Net-(U3-ANT)*%
X93250000Y-80500000D03*
%TD*%
D18*
%TO.P,L1,1,1*%
%TO.N,+BATT*%
X91925000Y-55500000D03*
%TO.P,L1,2,2*%
%TO.N,Net-(U4-SW)*%
X91925000Y-59200000D03*
%TD*%
D19*
%TO.P,U3,1,GND*%
%TO.N,GND*%
X85725000Y-62500000D03*
%TO.P,U3,2,MISO*%
%TO.N,MISO*%
X85725000Y-64500000D03*
%TO.P,U3,3,MOSI*%
%TO.N,MOSI*%
X85725000Y-66500000D03*
%TO.P,U3,4,SCK*%
%TO.N,SCK*%
X85725000Y-68500000D03*
%TO.P,U3,5,NSS*%
%TO.N,CS*%
X85725000Y-70500000D03*
%TO.P,U3,6,RESET*%
%TO.N,unconnected-(U3-RESET-Pad6)*%
X85725000Y-72500000D03*
%TO.P,U3,7,DIO5*%
%TO.N,unconnected-(U3-DIO5-Pad7)*%
X85725000Y-74500000D03*
%TO.P,U3,8,GND*%
%TO.N,GND*%
X85725000Y-76500000D03*
%TO.P,U3,9,ANT*%
%TO.N,Net-(U3-ANT)*%
X100775000Y-76500000D03*
%TO.P,U3,10,GND*%
%TO.N,GND*%
X100775000Y-74500000D03*
%TO.P,U3,11,DIO3*%
%TO.N,unconnected-(U3-DIO3-Pad11)*%
X100775000Y-72500000D03*
%TO.P,U3,12,DIO4*%
%TO.N,unconnected-(U3-DIO4-Pad12)*%
X100775000Y-70500000D03*
%TO.P,U3,13,3.3V*%
%TO.N,+3V3*%
X100775000Y-68500000D03*
%TO.P,U3,14,DIO0*%
%TO.N,unconnected-(U3-DIO0-Pad14)*%
X100775000Y-66500000D03*
%TO.P,U3,15,DIO1*%
%TO.N,unconnected-(U3-DIO1-Pad15)*%
X100775000Y-64500000D03*
%TO.P,U3,16,DIO2*%
%TO.N,unconnected-(U3-DIO2-Pad16)*%
X100775000Y-62500000D03*
%TD*%
D20*
%TO.P,C2,1*%
%TO.N,+BATT*%
X88175000Y-55487500D03*
%TO.P,C2,2*%
%TO.N,GND*%
X88175000Y-57212500D03*
%TD*%
D21*
%TO.N,GPS_RX*%
X98000000Y-49000000D03*
%TO.N,+BATT*%
X95175000Y-56100000D03*
X95175000Y-55000000D03*
X95750000Y-55500000D03*
X94662500Y-55587500D03*
%TO.N,GND*%
X91250000Y-64250000D03*
X101250000Y-52750000D03*
X87000000Y-59750000D03*
X90250000Y-51000000D03*
X100500000Y-59750000D03*
X95250000Y-74000000D03*
X104750000Y-45000000D03*
X91250000Y-71000000D03*
X82000000Y-75750000D03*
X100750000Y-54000000D03*
X97250000Y-61500000D03*
X97250000Y-67250000D03*
X89750000Y-77250000D03*
X81750000Y-70000000D03*
X86250000Y-80000000D03*
X90000000Y-46000000D03*
%TO.N,CS*%
X88000000Y-63250000D03*
%TO.N,SCK*%
X84000000Y-67500000D03*
%TD*%
D22*
%TO.N,GPS_RX*%
X94750000Y-52100000D02*
X95749714Y-52100000D01*
X95749714Y-52100000D02*
X96000000Y-51849714D01*
X96000000Y-51849714D02*
X96000000Y-50500000D01*
X96000000Y-50500000D02*
X97500000Y-49000000D01*
X97500000Y-49000000D02*
X98000000Y-49000000D01*
D23*
%TO.N,+BATT*%
X91925000Y-55500000D02*
X94575000Y-55500000D01*
X94575000Y-55500000D02*
X94662500Y-55587500D01*
D22*
X96525000Y-56525000D02*
X96525000Y-56100000D01*
D23*
X95175000Y-56100000D02*
X96525000Y-56100000D01*
X95175000Y-55000000D02*
X95175000Y-55175000D01*
D22*
X98425000Y-58800000D02*
X98425000Y-58425000D01*
D23*
X88187500Y-55500000D02*
X88175000Y-55487500D01*
X95175000Y-55175000D02*
X95500000Y-55500000D01*
X91925000Y-55500000D02*
X88187500Y-55500000D01*
D22*
X98425000Y-58425000D02*
X96525000Y-56525000D01*
D24*
%TO.N,+3V3*%
X97512500Y-54100000D02*
X97512500Y-51050000D01*
X102250000Y-68500000D02*
X100775000Y-68500000D01*
X102701000Y-68049000D02*
X102250000Y-68500000D01*
D22*
X97475000Y-53887500D02*
X97512500Y-53850000D01*
D24*
X96250000Y-47700000D02*
X96250000Y-46100000D01*
X96250000Y-47700000D02*
X94750000Y-47700000D01*
X96250000Y-46100000D02*
X95650000Y-45500000D01*
X97400000Y-50850000D02*
X100184000Y-48066000D01*
X102701000Y-48679500D02*
X102701000Y-68049000D01*
D22*
X97512500Y-56062500D02*
X97475000Y-56100000D01*
D24*
X95650000Y-45500000D02*
X94750000Y-45500000D01*
X102000000Y-47978500D02*
X102701000Y-48679500D01*
X97512500Y-51050000D02*
X97312500Y-50850000D01*
X100184000Y-47978500D02*
X99905500Y-47700000D01*
X99905500Y-47700000D02*
X96250000Y-47700000D01*
X100184000Y-47978500D02*
X102000000Y-47978500D01*
X102000000Y-47978500D02*
X104680000Y-47978500D01*
X97512500Y-54100000D02*
X97512500Y-56062500D01*
X100184000Y-48066000D02*
X100184000Y-47978500D01*
X97312500Y-50850000D02*
X97400000Y-50850000D01*
D23*
%TO.N,Net-(U4-SW)*%
X95225000Y-58800000D02*
X96525000Y-58800000D01*
X94825000Y-59200000D02*
X95225000Y-58800000D01*
X91925000Y-59200000D02*
X94825000Y-59200000D01*
D22*
%TO.N,Net-(U4-V_{FB})*%
X98425000Y-56100000D02*
X98425000Y-55012500D01*
X100175000Y-55600000D02*
X100175000Y-54937500D01*
X99675000Y-54187500D02*
X99337500Y-53850000D01*
X98425000Y-55012500D02*
X99337500Y-54100000D01*
X100175000Y-54937500D02*
X99337500Y-54100000D01*
%TO.N,Net-(U2-RF_IN)*%
X82500000Y-45500000D02*
X82000000Y-45000000D01*
X85050000Y-45500000D02*
X82500000Y-45500000D01*
%TO.N,Net-(U3-ANT)*%
X93250000Y-77750000D02*
X93250000Y-80500000D01*
X94500000Y-76500000D02*
X93250000Y-77750000D01*
X100775000Y-76500000D02*
X94500000Y-76500000D01*
%TO.N,MISO*%
X84250000Y-55488500D02*
X84250000Y-61750000D01*
X84250000Y-61750000D02*
X84049000Y-61951000D01*
X84049000Y-63549000D02*
X85000000Y-64500000D01*
X85000000Y-64500000D02*
X85725000Y-64500000D01*
X84049000Y-61951000D02*
X84049000Y-63549000D01*
X81820000Y-53058500D02*
X84250000Y-55488500D01*
%TO.N,MOSI*%
X83750000Y-66000000D02*
X84250000Y-66500000D01*
X83748000Y-63673678D02*
X83750000Y-63675678D01*
X83750000Y-63675678D02*
X83750000Y-66000000D01*
X84250000Y-66500000D02*
X85725000Y-66500000D01*
X83748000Y-61826322D02*
X83748000Y-63673678D01*
X83949000Y-61625322D02*
X83748000Y-61826322D01*
X83949000Y-57727500D02*
X83949000Y-61625322D01*
X81820000Y-55598500D02*
X83949000Y-57727500D01*
%TO.N,CS*%
X87200000Y-70500000D02*
X88000000Y-69700000D01*
X85725000Y-70500000D02*
X87200000Y-70500000D01*
X88000000Y-69700000D02*
X88000000Y-63250000D01*
%TO.N,SCK*%
X84725000Y-67500000D02*
X85725000Y-68500000D01*
X84000000Y-67500000D02*
X84725000Y-67500000D01*
%TD*%
%TA.AperFunction,Conductor*%
%TO.N,GND*%
G36*
X97126589Y-42750607D02*
G01*
X97128481Y-42750071D01*
X97155521Y-42760007D01*
X97182912Y-42768907D01*
X97184067Y-42770497D01*
X97185912Y-42771175D01*
X97201941Y-42795098D01*
X97217293Y-42816229D01*
X97217584Y-42816111D01*
X97217817Y-42816681D01*
X97217828Y-42816837D01*
X97217956Y-42817141D01*
X97218876Y-42818407D01*
X97219801Y-42821532D01*
X97219972Y-42821945D01*
X97240049Y-42856720D01*
X97240069Y-42856755D01*
X97240071Y-42856757D01*
X97259488Y-42890410D01*
X97259518Y-42890440D01*
X97259540Y-42890478D01*
X97287435Y-42918373D01*
X97287447Y-42918397D01*
X97287453Y-42918392D01*
X97315419Y-42946373D01*
X97315421Y-42946375D01*
X97315423Y-42946376D01*
X97315482Y-42946421D01*
X97315484Y-42946422D01*
X97315489Y-42946427D01*
X97345042Y-42963489D01*
X97349087Y-42965825D01*
X97349107Y-42965837D01*
X97383933Y-42985956D01*
X97383999Y-42985983D01*
X97384005Y-42985984D01*
X97384011Y-42985988D01*
X97421769Y-42996105D01*
X97421790Y-42996119D01*
X97421792Y-42996112D01*
X97435927Y-42999903D01*
X97460353Y-43006456D01*
X97460358Y-43006456D01*
X97460436Y-43006466D01*
X97460438Y-43006467D01*
X97460439Y-43006467D01*
X97499054Y-43006467D01*
X106010530Y-43008885D01*
X106068713Y-43027809D01*
X106104663Y-43077319D01*
X106109500Y-43107885D01*
X106109500Y-47176744D01*
X106090593Y-47234935D01*
X106041093Y-47270899D01*
X105979907Y-47270899D01*
X105955499Y-47259060D01*
X105885506Y-47212293D01*
X105823052Y-47170562D01*
X105823049Y-47170560D01*
X105823048Y-47170560D01*
X105657133Y-47101836D01*
X105480997Y-47066800D01*
X105480995Y-47066800D01*
X103879005Y-47066800D01*
X103879002Y-47066800D01*
X103702867Y-47101836D01*
X103702865Y-47101836D01*
X103536950Y-47170560D01*
X103536949Y-47170560D01*
X103387622Y-47270338D01*
X103258959Y-47399003D01*
X103204442Y-47426781D01*
X103188955Y-47428000D01*
X100453033Y-47428000D01*
X100394842Y-47409093D01*
X100383030Y-47399004D01*
X100243517Y-47259492D01*
X100243515Y-47259490D01*
X100117985Y-47187016D01*
X100117982Y-47187015D01*
X100112872Y-47185645D01*
X100112872Y-47185646D01*
X99977975Y-47149500D01*
X99977974Y-47149500D01*
X96899500Y-47149500D01*
X96841309Y-47130593D01*
X96805345Y-47081093D01*
X96800500Y-47050500D01*
X96800500Y-46027525D01*
X96791665Y-45994552D01*
X96762984Y-45887515D01*
X96734405Y-45838015D01*
X96727931Y-45826801D01*
X96690514Y-45761990D01*
X96690511Y-45761987D01*
X96690510Y-45761985D01*
X96075057Y-45146532D01*
X97934500Y-45146532D01*
X97934500Y-45353467D01*
X97974869Y-45556418D01*
X98054058Y-45747597D01*
X98147546Y-45887512D01*
X98169023Y-45919655D01*
X98315345Y-46065977D01*
X98487402Y-46180941D01*
X98678580Y-46260130D01*
X98881535Y-46300500D01*
X98881536Y-46300500D01*
X99088464Y-46300500D01*
X99088465Y-46300500D01*
X99291420Y-46260130D01*
X99482598Y-46180941D01*
X99654655Y-46065977D01*
X99800977Y-45919655D01*
X99915941Y-45747598D01*
X99984536Y-45581994D01*
X100024273Y-45535470D01*
X100083767Y-45521186D01*
X100140295Y-45544601D01*
X100172265Y-45596770D01*
X100175000Y-45619881D01*
X100175000Y-46147824D01*
X100174999Y-46147824D01*
X100181401Y-46207370D01*
X100181403Y-46207381D01*
X100231646Y-46342088D01*
X100231647Y-46342090D01*
X100317807Y-46457184D01*
X100317815Y-46457192D01*
X100432909Y-46543352D01*
X100432911Y-46543353D01*
X100567618Y-46593596D01*
X100567629Y-46593598D01*
X100627176Y-46600000D01*
X101274999Y-46600000D01*
X101275000Y-46599999D01*
X101275000Y-45683012D01*
X101332007Y-45715925D01*
X101459174Y-45750000D01*
X101590826Y-45750000D01*
X101717993Y-45715925D01*
X101775000Y-45683012D01*
X101775000Y-46599999D01*
X101775001Y-46600000D01*
X102422824Y-46600000D01*
X102482370Y-46593598D01*
X102482381Y-46593596D01*
X102617088Y-46543353D01*
X102617090Y-46543352D01*
X102732184Y-46457192D01*
X102732192Y-46457184D01*
X102818352Y-46342090D01*
X102818353Y-46342088D01*
X102868596Y-46207381D01*
X102868598Y-46207370D01*
X102875000Y-46147824D01*
X102875000Y-45500001D01*
X102874999Y-45500000D01*
X101958012Y-45500000D01*
X101990925Y-45442993D01*
X102025000Y-45315826D01*
X102025000Y-45184174D01*
X101990925Y-45057007D01*
X101958012Y-45000000D01*
X102874999Y-45000000D01*
X102875000Y-44999999D01*
X102875000Y-44352175D01*
X102868598Y-44292629D01*
X102868596Y-44292618D01*
X102818353Y-44157911D01*
X102818352Y-44157909D01*
X102732192Y-44042815D01*
X102732184Y-44042807D01*
X102617090Y-43956647D01*
X102617088Y-43956646D01*
X102482381Y-43906403D01*
X102482370Y-43906401D01*
X102422824Y-43900000D01*
X101775001Y-43900000D01*
X101775000Y-43900001D01*
X101775000Y-44816988D01*
X101717993Y-44784075D01*
X101590826Y-44750000D01*
X101459174Y-44750000D01*
X101332007Y-44784075D01*
X101275000Y-44816988D01*
X101275000Y-43900001D01*
X101274999Y-43900000D01*
X100627176Y-43900000D01*
X100567629Y-43906401D01*
X100567618Y-43906403D01*
X100432911Y-43956646D01*
X100432909Y-43956647D01*
X100317815Y-44042807D01*
X100317807Y-44042815D01*
X100231647Y-44157909D01*
X100231646Y-44157911D01*
X100181403Y-44292618D01*
X100181401Y-44292629D01*
X100175000Y-44352175D01*
X100175000Y-44880118D01*
X100156093Y-44938309D01*
X100106593Y-44974273D01*
X100045407Y-44974273D01*
X99995907Y-44938309D01*
X99984536Y-44918004D01*
X99915941Y-44752402D01*
X99800979Y-44580348D01*
X99800977Y-44580345D01*
X99654655Y-44434023D01*
X99482598Y-44319059D01*
X99482599Y-44319059D01*
X99482597Y-44319058D01*
X99291418Y-44239869D01*
X99088467Y-44199500D01*
X99088465Y-44199500D01*
X98881535Y-44199500D01*
X98881532Y-44199500D01*
X98678581Y-44239869D01*
X98487402Y-44319058D01*
X98315348Y-44434020D01*
X98169020Y-44580348D01*
X98054058Y-44752402D01*
X97974869Y-44943581D01*
X97934500Y-45146532D01*
X96075057Y-45146532D01*
X95988015Y-45059490D01*
X95862485Y-44987016D01*
X95862482Y-44987015D01*
X95857369Y-44985644D01*
X95857369Y-44985645D01*
X95839625Y-44980890D01*
X95788312Y-44947565D01*
X95766387Y-44890443D01*
X95777042Y-44840318D01*
X95778047Y-44838344D01*
X95778050Y-44838342D01*
X95835646Y-44725304D01*
X95850500Y-44631519D01*
X95850499Y-44168482D01*
X95844445Y-44130253D01*
X95835647Y-44074700D01*
X95835646Y-44074698D01*
X95835646Y-44074696D01*
X95778050Y-43961658D01*
X95688342Y-43871950D01*
X95575304Y-43814354D01*
X95575305Y-43814354D01*
X95481521Y-43799500D01*
X94018478Y-43799500D01*
X94018476Y-43799501D01*
X93924700Y-43814352D01*
X93924695Y-43814354D01*
X93811659Y-43871949D01*
X93721949Y-43961659D01*
X93664354Y-44074695D01*
X93649500Y-44168477D01*
X93649500Y-44631520D01*
X93649501Y-44631523D01*
X93664352Y-44725299D01*
X93664354Y-44725304D01*
X93721950Y-44838342D01*
X93763606Y-44879998D01*
X93791382Y-44934513D01*
X93781811Y-44994945D01*
X93763607Y-45020000D01*
X93726601Y-45057007D01*
X93721949Y-45061659D01*
X93664354Y-45174695D01*
X93649500Y-45268477D01*
X93649500Y-45731520D01*
X93649501Y-45731523D01*
X93664352Y-45825299D01*
X93664354Y-45825304D01*
X93721950Y-45938342D01*
X93763606Y-45979998D01*
X93791382Y-46034513D01*
X93781811Y-46094945D01*
X93763607Y-46120000D01*
X93735784Y-46147824D01*
X93721949Y-46161659D01*
X93664354Y-46274695D01*
X93649500Y-46368477D01*
X93649500Y-46831520D01*
X93649501Y-46831523D01*
X93664352Y-46925299D01*
X93664354Y-46925304D01*
X93721950Y-47038342D01*
X93763606Y-47079998D01*
X93791382Y-47134513D01*
X93781811Y-47194945D01*
X93763607Y-47220000D01*
X93729118Y-47254490D01*
X93721949Y-47261659D01*
X93664354Y-47374695D01*
X93649500Y-47468477D01*
X93649500Y-47931520D01*
X93649501Y-47931523D01*
X93664352Y-48025299D01*
X93664354Y-48025304D01*
X93721950Y-48138342D01*
X93763606Y-48179998D01*
X93791382Y-48234513D01*
X93781811Y-48294945D01*
X93763607Y-48320000D01*
X93721950Y-48361658D01*
X93721949Y-48361659D01*
X93664354Y-48474695D01*
X93649500Y-48568477D01*
X93649500Y-49031520D01*
X93649501Y-49031523D01*
X93664352Y-49125299D01*
X93664354Y-49125304D01*
X93721950Y-49238342D01*
X93763606Y-49279998D01*
X93791382Y-49334513D01*
X93781811Y-49394945D01*
X93763607Y-49420000D01*
X93731821Y-49451787D01*
X93721949Y-49461659D01*
X93664354Y-49574695D01*
X93649500Y-49668477D01*
X93649500Y-50131520D01*
X93649501Y-50131523D01*
X93664352Y-50225299D01*
X93664354Y-50225304D01*
X93721950Y-50338342D01*
X93763606Y-50379998D01*
X93791382Y-50434513D01*
X93781811Y-50494945D01*
X93763607Y-50520000D01*
X93739075Y-50544533D01*
X93721949Y-50561659D01*
X93664354Y-50674695D01*
X93649500Y-50768477D01*
X93649500Y-51231520D01*
X93649501Y-51231523D01*
X93664352Y-51325299D01*
X93664354Y-51325304D01*
X93721950Y-51438342D01*
X93763606Y-51479998D01*
X93791382Y-51534513D01*
X93781811Y-51594945D01*
X93763607Y-51620000D01*
X93742647Y-51640961D01*
X93721949Y-51661659D01*
X93664354Y-51774695D01*
X93649500Y-51868477D01*
X93649500Y-52331517D01*
X93652577Y-52350942D01*
X93643003Y-52411373D01*
X93619091Y-52440421D01*
X93619361Y-52440691D01*
X93616581Y-52443470D01*
X93615855Y-52444353D01*
X93615134Y-52444917D01*
X93494924Y-52565127D01*
X93406982Y-52710599D01*
X93406979Y-52710607D01*
X93356410Y-52872889D01*
X93356408Y-52872895D01*
X93350000Y-52943418D01*
X93350000Y-52949999D01*
X93350001Y-52950000D01*
X96149998Y-52950000D01*
X96149999Y-52949999D01*
X96149999Y-52943433D01*
X96149998Y-52943417D01*
X96143591Y-52872896D01*
X96143589Y-52872890D01*
X96093020Y-52710607D01*
X96093017Y-52710599D01*
X96005075Y-52565127D01*
X95927015Y-52487067D01*
X95899238Y-52432550D01*
X95908809Y-52372118D01*
X95930558Y-52345969D01*
X95929637Y-52345048D01*
X95990175Y-52284511D01*
X96127885Y-52146800D01*
X96240460Y-52034225D01*
X96269451Y-51984011D01*
X96280021Y-51965703D01*
X96300500Y-51889276D01*
X96300500Y-50665478D01*
X96302968Y-50657880D01*
X96301719Y-50649991D01*
X96312243Y-50629335D01*
X96319407Y-50607287D01*
X96329490Y-50595480D01*
X96405497Y-50519473D01*
X96460013Y-50491697D01*
X96520445Y-50501268D01*
X96563710Y-50544533D01*
X96574500Y-50589478D01*
X96574500Y-51140266D01*
X96577274Y-51169844D01*
X96577276Y-51169852D01*
X96620884Y-51294476D01*
X96644474Y-51326439D01*
X96699289Y-51400711D01*
X96699292Y-51400713D01*
X96699293Y-51400714D01*
X96805523Y-51479115D01*
X96805524Y-51479115D01*
X96805525Y-51479116D01*
X96895698Y-51510669D01*
X96944378Y-51547734D01*
X96962000Y-51604113D01*
X96962000Y-53499490D01*
X96943093Y-53557681D01*
X96942655Y-53558278D01*
X96870884Y-53655523D01*
X96827276Y-53780147D01*
X96827274Y-53780155D01*
X96824500Y-53809733D01*
X96824500Y-54390266D01*
X96827274Y-54419844D01*
X96827276Y-54419852D01*
X96870884Y-54544476D01*
X96942655Y-54641722D01*
X96961997Y-54699769D01*
X96962000Y-54700510D01*
X96962000Y-55054044D01*
X96943093Y-55112235D01*
X96893593Y-55148199D01*
X96832407Y-55148199D01*
X96819521Y-55142985D01*
X96792510Y-55129780D01*
X96778397Y-55127724D01*
X96721949Y-55119500D01*
X96721945Y-55119500D01*
X96328056Y-55119500D01*
X96328048Y-55119501D01*
X96257495Y-55129778D01*
X96257487Y-55129781D01*
X96212819Y-55151618D01*
X96152237Y-55160189D01*
X96098187Y-55131513D01*
X96087029Y-55117686D01*
X96044113Y-55053457D01*
X95965492Y-54974836D01*
X95885272Y-54894615D01*
X95858178Y-54843926D01*
X95854138Y-54823616D01*
X95848580Y-54795672D01*
X95814886Y-54714328D01*
X95795777Y-54668193D01*
X95795771Y-54668182D01*
X95719114Y-54553458D01*
X95621541Y-54455885D01*
X95506817Y-54379228D01*
X95506806Y-54379222D01*
X95379328Y-54326420D01*
X95243995Y-54299500D01*
X95243993Y-54299500D01*
X95106007Y-54299500D01*
X95106004Y-54299500D01*
X94970672Y-54326420D01*
X94970670Y-54326420D01*
X94843193Y-54379222D01*
X94843182Y-54379228D01*
X94728458Y-54455885D01*
X94630885Y-54553458D01*
X94554228Y-54668182D01*
X94554222Y-54668193D01*
X94525149Y-54738385D01*
X94485413Y-54784911D01*
X94433685Y-54799500D01*
X94200007Y-54799500D01*
X94141816Y-54780593D01*
X94120352Y-54759288D01*
X94097150Y-54727850D01*
X94097148Y-54727847D01*
X93987884Y-54647207D01*
X93859704Y-54602355D01*
X93859695Y-54602353D01*
X93829274Y-54599500D01*
X90020732Y-54599500D01*
X89990303Y-54602353D01*
X89862113Y-54647208D01*
X89752852Y-54727847D01*
X89752851Y-54727847D01*
X89736872Y-54749500D01*
X89729647Y-54759287D01*
X89679882Y-54794880D01*
X89649993Y-54799500D01*
X88646628Y-54799500D01*
X88613931Y-54793944D01*
X88503968Y-54755466D01*
X88494852Y-54752276D01*
X88494851Y-54752275D01*
X88494849Y-54752275D01*
X88494847Y-54752274D01*
X88494844Y-54752274D01*
X88465266Y-54749500D01*
X88465256Y-54749500D01*
X87884744Y-54749500D01*
X87884733Y-54749500D01*
X87855155Y-54752274D01*
X87855147Y-54752276D01*
X87730523Y-54795884D01*
X87624293Y-54874285D01*
X87624285Y-54874293D01*
X87545884Y-54980523D01*
X87502276Y-55105147D01*
X87502274Y-55105155D01*
X87499500Y-55134733D01*
X87499500Y-55283071D01*
X87497598Y-55302385D01*
X87474500Y-55418503D01*
X87474500Y-55556496D01*
X87497598Y-55672613D01*
X87499500Y-55691927D01*
X87499500Y-55840266D01*
X87502274Y-55869844D01*
X87502276Y-55869852D01*
X87545884Y-55994476D01*
X87628694Y-56106680D01*
X87626673Y-56108171D01*
X87649177Y-56152338D01*
X87639606Y-56212770D01*
X87603369Y-56252085D01*
X87476964Y-56330053D01*
X87355053Y-56451964D01*
X87264548Y-56598693D01*
X87210318Y-56762351D01*
X87200000Y-56863344D01*
X87200000Y-56962499D01*
X87200001Y-56962500D01*
X89149998Y-56962500D01*
X89149999Y-56962499D01*
X89149999Y-56863345D01*
X89139682Y-56762357D01*
X89139679Y-56762345D01*
X89085451Y-56598693D01*
X88994946Y-56451964D01*
X88912486Y-56369504D01*
X88884709Y-56314987D01*
X88894280Y-56254555D01*
X88937545Y-56211290D01*
X88982490Y-56200500D01*
X89649993Y-56200500D01*
X89708184Y-56219407D01*
X89729647Y-56240711D01*
X89739864Y-56254555D01*
X89752851Y-56272152D01*
X89862115Y-56352792D01*
X89862116Y-56352792D01*
X89862117Y-56352793D01*
X89990300Y-56397646D01*
X90020733Y-56400500D01*
X93829266Y-56400499D01*
X93829267Y-56400499D01*
X93835352Y-56399928D01*
X93859700Y-56397646D01*
X93987883Y-56352793D01*
X94018695Y-56330053D01*
X94050392Y-56306659D01*
X94097147Y-56272152D01*
X94097148Y-56272152D01*
X94097148Y-56272150D01*
X94097150Y-56272150D01*
X94120352Y-56240712D01*
X94132810Y-56231802D01*
X94141816Y-56219407D01*
X94157072Y-56214449D01*
X94170118Y-56205120D01*
X94200007Y-56200500D01*
X94292226Y-56200500D01*
X94330111Y-56208036D01*
X94372274Y-56225500D01*
X94450867Y-56258054D01*
X94497392Y-56297789D01*
X94504445Y-56311631D01*
X94554224Y-56431809D01*
X94554228Y-56431817D01*
X94630885Y-56546541D01*
X94728458Y-56644114D01*
X94843182Y-56720771D01*
X94843193Y-56720777D01*
X94843640Y-56720962D01*
X94970672Y-56773580D01*
X95106007Y-56800500D01*
X95937221Y-56800500D01*
X95995412Y-56819407D01*
X96026161Y-56856019D01*
X96062985Y-56931342D01*
X96062986Y-56931344D01*
X96062987Y-56931345D01*
X96062988Y-56931347D01*
X96148653Y-57017012D01*
X96257491Y-57070220D01*
X96328051Y-57080500D01*
X96614520Y-57080499D01*
X96672710Y-57099406D01*
X96684524Y-57109495D01*
X97018028Y-57442999D01*
X97045805Y-57497516D01*
X97036234Y-57557948D01*
X96999241Y-57597725D01*
X96900926Y-57657158D01*
X96787156Y-57770928D01*
X96786675Y-57771725D01*
X96786231Y-57772108D01*
X96783466Y-57775638D01*
X96782774Y-57775096D01*
X96740386Y-57811738D01*
X96701958Y-57819500D01*
X96328056Y-57819500D01*
X96328048Y-57819501D01*
X96257495Y-57829778D01*
X96257485Y-57829781D01*
X96148656Y-57882985D01*
X96062987Y-57968654D01*
X96026163Y-58043980D01*
X95983619Y-58087954D01*
X95937222Y-58099500D01*
X95156004Y-58099500D01*
X95047591Y-58121064D01*
X95047591Y-58121065D01*
X95034131Y-58123742D01*
X95020670Y-58126420D01*
X94975866Y-58144979D01*
X94893189Y-58179224D01*
X94801503Y-58240488D01*
X94801502Y-58240489D01*
X94778457Y-58255886D01*
X94563839Y-58470504D01*
X94509323Y-58498281D01*
X94493836Y-58499500D01*
X94200007Y-58499500D01*
X94141816Y-58480593D01*
X94120352Y-58459288D01*
X94097150Y-58427850D01*
X94097148Y-58427847D01*
X93987884Y-58347207D01*
X93859704Y-58302355D01*
X93859695Y-58302353D01*
X93829274Y-58299500D01*
X90020732Y-58299500D01*
X89990303Y-58302353D01*
X89862113Y-58347208D01*
X89752854Y-58427845D01*
X89752845Y-58427854D01*
X89672207Y-58537115D01*
X89627355Y-58665295D01*
X89627353Y-58665304D01*
X89624500Y-58695724D01*
X89624500Y-59704267D01*
X89627353Y-59734696D01*
X89627353Y-59734698D01*
X89627354Y-59734700D01*
X89643380Y-59780499D01*
X89672208Y-59862886D01*
X89752845Y-59972145D01*
X89752854Y-59972154D01*
X89862115Y-60052792D01*
X89862116Y-60052792D01*
X89862117Y-60052793D01*
X89990300Y-60097646D01*
X90020733Y-60100500D01*
X93829266Y-60100499D01*
X93829267Y-60100499D01*
X93835352Y-60099928D01*
X93859700Y-60097646D01*
X93987883Y-60052793D01*
X94097147Y-59972152D01*
X94097148Y-59972152D01*
X94097148Y-59972150D01*
X94097150Y-59972150D01*
X94120352Y-59940712D01*
X94170118Y-59905120D01*
X94200007Y-59900500D01*
X94893993Y-59900500D01*
X94893994Y-59900500D01*
X95029328Y-59873580D01*
X95156811Y-59820775D01*
X95271543Y-59744114D01*
X95384315Y-59631342D01*
X95486162Y-59529496D01*
X95540678Y-59501719D01*
X95556165Y-59500500D01*
X95937221Y-59500500D01*
X95995412Y-59519407D01*
X96026161Y-59556019D01*
X96062985Y-59631342D01*
X96062986Y-59631344D01*
X96062987Y-59631345D01*
X96062988Y-59631347D01*
X96148653Y-59717012D01*
X96257491Y-59770220D01*
X96328051Y-59780500D01*
X96701958Y-59780499D01*
X96760149Y-59799406D01*
X96783241Y-59824538D01*
X96783466Y-59824362D01*
X96785706Y-59827221D01*
X96786679Y-59828280D01*
X96787159Y-59829074D01*
X96900926Y-59942841D01*
X97038602Y-60026070D01*
X97038604Y-60026071D01*
X97192205Y-60073934D01*
X97225000Y-60076914D01*
X97225000Y-58899000D01*
X97243907Y-58840809D01*
X97293407Y-58804845D01*
X97324000Y-58800000D01*
X97626000Y-58800000D01*
X97684191Y-58818907D01*
X97720155Y-58868407D01*
X97725000Y-58899000D01*
X97725000Y-60076913D01*
X97757794Y-60073934D01*
X97911395Y-60026071D01*
X97911397Y-60026070D01*
X98049073Y-59942841D01*
X98162839Y-59829075D01*
X98163311Y-59828295D01*
X98163747Y-59827917D01*
X98166535Y-59824360D01*
X98167230Y-59824905D01*
X98209590Y-59788271D01*
X98248036Y-59780499D01*
X98621948Y-59780499D01*
X98669542Y-59773565D01*
X98692504Y-59770221D01*
X98692505Y-59770220D01*
X98692509Y-59770220D01*
X98692511Y-59770218D01*
X98692514Y-59770218D01*
X98801343Y-59717014D01*
X98801343Y-59717013D01*
X98801347Y-59717012D01*
X98887012Y-59631347D01*
X98940220Y-59522509D01*
X98950500Y-59451949D01*
X98950499Y-58148052D01*
X98940220Y-58077491D01*
X98940219Y-58077489D01*
X98940218Y-58077485D01*
X98887014Y-57968656D01*
X98887012Y-57968654D01*
X98887012Y-57968653D01*
X98801347Y-57882988D01*
X98692509Y-57829780D01*
X98621949Y-57819500D01*
X98621946Y-57819500D01*
X98285479Y-57819500D01*
X98277881Y-57817031D01*
X98269992Y-57818281D01*
X98249336Y-57807756D01*
X98227288Y-57800593D01*
X98215475Y-57790504D01*
X98099972Y-57675001D01*
X99200001Y-57675001D01*
X99200001Y-57724154D01*
X99210317Y-57825142D01*
X99210320Y-57825154D01*
X99264548Y-57988806D01*
X99355053Y-58135535D01*
X99476964Y-58257446D01*
X99623693Y-58347951D01*
X99787351Y-58402181D01*
X99888344Y-58412499D01*
X99924999Y-58412499D01*
X99925000Y-58412498D01*
X99925000Y-57675001D01*
X100425000Y-57675001D01*
X100425000Y-58412498D01*
X100425001Y-58412499D01*
X100461654Y-58412499D01*
X100562642Y-58402182D01*
X100562654Y-58402179D01*
X100726306Y-58347951D01*
X100873035Y-58257446D01*
X100994946Y-58135535D01*
X101085451Y-57988806D01*
X101139681Y-57825148D01*
X101150000Y-57724155D01*
X101150000Y-57675001D01*
X101149999Y-57675000D01*
X100425001Y-57675000D01*
X100425000Y-57675001D01*
X99925000Y-57675001D01*
X99924999Y-57675000D01*
X99200002Y-57675000D01*
X99200001Y-57675001D01*
X98099972Y-57675001D01*
X97666163Y-57241192D01*
X97638386Y-57186675D01*
X97647957Y-57126243D01*
X97691222Y-57082978D01*
X97721892Y-57073223D01*
X97742509Y-57070220D01*
X97742512Y-57070218D01*
X97742514Y-57070218D01*
X97851343Y-57017014D01*
X97851343Y-57017013D01*
X97851347Y-57017012D01*
X97879998Y-56988360D01*
X97934513Y-56960585D01*
X97994945Y-56970156D01*
X98020000Y-56988359D01*
X98048653Y-57017012D01*
X98157491Y-57070220D01*
X98228051Y-57080500D01*
X98621948Y-57080499D01*
X98669542Y-57073565D01*
X98692504Y-57070221D01*
X98692505Y-57070220D01*
X98692509Y-57070220D01*
X98692511Y-57070218D01*
X98692514Y-57070218D01*
X98801343Y-57017014D01*
X98801343Y-57017013D01*
X98801347Y-57017012D01*
X98887012Y-56931347D01*
X98940220Y-56822509D01*
X98950500Y-56751949D01*
X98950499Y-55448052D01*
X98940220Y-55377491D01*
X98940219Y-55377489D01*
X98940218Y-55377485D01*
X98887014Y-55268656D01*
X98887012Y-55268654D01*
X98887012Y-55268653D01*
X98810416Y-55192057D01*
X98782641Y-55137543D01*
X98792212Y-55077111D01*
X98810419Y-55052052D01*
X99057976Y-54804496D01*
X99112492Y-54776719D01*
X99127979Y-54775500D01*
X99547021Y-54775500D01*
X99554618Y-54777968D01*
X99562508Y-54776719D01*
X99583163Y-54787243D01*
X99605212Y-54794407D01*
X99617025Y-54804496D01*
X99672416Y-54859887D01*
X99700193Y-54914404D01*
X99690622Y-54974836D01*
X99661202Y-55009545D01*
X99624292Y-55036786D01*
X99624285Y-55036793D01*
X99545884Y-55143023D01*
X99502276Y-55267647D01*
X99502274Y-55267655D01*
X99499500Y-55297233D01*
X99499500Y-55902766D01*
X99502274Y-55932344D01*
X99502276Y-55932352D01*
X99545884Y-56056976D01*
X99616264Y-56152338D01*
X99624289Y-56163211D01*
X99624292Y-56163213D01*
X99624293Y-56163214D01*
X99730523Y-56241615D01*
X99730524Y-56241615D01*
X99730525Y-56241616D01*
X99767502Y-56254555D01*
X99786492Y-56261200D01*
X99835172Y-56298265D01*
X99852769Y-56356866D01*
X99832561Y-56414617D01*
X99784934Y-56448619D01*
X99623693Y-56502048D01*
X99476964Y-56592553D01*
X99355053Y-56714464D01*
X99264548Y-56861193D01*
X99210318Y-57024851D01*
X99200000Y-57125844D01*
X99200000Y-57174999D01*
X99200001Y-57175000D01*
X101149998Y-57175000D01*
X101149999Y-57174999D01*
X101149999Y-57125845D01*
X101139682Y-57024857D01*
X101139679Y-57024845D01*
X101085451Y-56861193D01*
X100994946Y-56714464D01*
X100873035Y-56592553D01*
X100726306Y-56502048D01*
X100565065Y-56448619D01*
X100515775Y-56412368D01*
X100497207Y-56354068D01*
X100516452Y-56295988D01*
X100563505Y-56261200D01*
X100619475Y-56241616D01*
X100725711Y-56163211D01*
X100804116Y-56056975D01*
X100847725Y-55932349D01*
X100850500Y-55902756D01*
X100850500Y-55297244D01*
X100850500Y-55297238D01*
X100850499Y-55297233D01*
X100850284Y-55294941D01*
X100847725Y-55267651D01*
X100804116Y-55143025D01*
X100804086Y-55142985D01*
X100725714Y-55036793D01*
X100725713Y-55036792D01*
X100725711Y-55036789D01*
X100725706Y-55036785D01*
X100619477Y-54958384D01*
X100527861Y-54926326D01*
X100479181Y-54889260D01*
X100464934Y-54858508D01*
X100455021Y-54821511D01*
X100455019Y-54821508D01*
X100455019Y-54821506D01*
X100415460Y-54752989D01*
X100359511Y-54697039D01*
X100359511Y-54697040D01*
X100054496Y-54392025D01*
X100026719Y-54337508D01*
X100025500Y-54322021D01*
X100025500Y-53809738D01*
X100025499Y-53809733D01*
X100022725Y-53780155D01*
X100022725Y-53780151D01*
X99979116Y-53655525D01*
X99967418Y-53639675D01*
X99900714Y-53549293D01*
X99900713Y-53549292D01*
X99900711Y-53549289D01*
X99887999Y-53539907D01*
X99794476Y-53470884D01*
X99669852Y-53427276D01*
X99669851Y-53427275D01*
X99669849Y-53427275D01*
X99669847Y-53427274D01*
X99669844Y-53427274D01*
X99640266Y-53424500D01*
X99640256Y-53424500D01*
X99034744Y-53424500D01*
X99034733Y-53424500D01*
X99005155Y-53427274D01*
X99005147Y-53427276D01*
X98880523Y-53470884D01*
X98774293Y-53549285D01*
X98774285Y-53549293D01*
X98695884Y-53655523D01*
X98652276Y-53780147D01*
X98652274Y-53780155D01*
X98649500Y-53809733D01*
X98649500Y-54322021D01*
X98630593Y-54380212D01*
X98620504Y-54392025D01*
X98232004Y-54780525D01*
X98211348Y-54791049D01*
X98192593Y-54804676D01*
X98184604Y-54804676D01*
X98177487Y-54808302D01*
X98154592Y-54804676D01*
X98131407Y-54804676D01*
X98124944Y-54799980D01*
X98117055Y-54798731D01*
X98100663Y-54782339D01*
X98081907Y-54768712D01*
X98079438Y-54761114D01*
X98073790Y-54755466D01*
X98063000Y-54710521D01*
X98063000Y-54700510D01*
X98081907Y-54642319D01*
X98082345Y-54641722D01*
X98154115Y-54544476D01*
X98154114Y-54544476D01*
X98154116Y-54544475D01*
X98197725Y-54419849D01*
X98200500Y-54390256D01*
X98200500Y-53809744D01*
X98200500Y-53809738D01*
X98200499Y-53809733D01*
X98197725Y-53780155D01*
X98197725Y-53780151D01*
X98154116Y-53655525D01*
X98142418Y-53639675D01*
X98082345Y-53558278D01*
X98063003Y-53500231D01*
X98063000Y-53499490D01*
X98063000Y-51694990D01*
X98081907Y-51636799D01*
X98131407Y-51600835D01*
X98192593Y-51600835D01*
X98232004Y-51624986D01*
X98276964Y-51669946D01*
X98423693Y-51760451D01*
X98587351Y-51814681D01*
X98688345Y-51824999D01*
X98787500Y-51824999D01*
X98787500Y-51100001D01*
X99287500Y-51100001D01*
X99287500Y-51824998D01*
X99287501Y-51824999D01*
X99386654Y-51824999D01*
X99487642Y-51814682D01*
X99487654Y-51814679D01*
X99651306Y-51760451D01*
X99798035Y-51669946D01*
X99919946Y-51548035D01*
X100010451Y-51401306D01*
X100064681Y-51237648D01*
X100075000Y-51136655D01*
X100075000Y-51100001D01*
X100074999Y-51100000D01*
X99287501Y-51100000D01*
X99287500Y-51100001D01*
X98787500Y-51100001D01*
X98787500Y-50949000D01*
X98806407Y-50890809D01*
X98855907Y-50854845D01*
X98886500Y-50850000D01*
X99037499Y-50850000D01*
X99037500Y-50849999D01*
X99037500Y-50699000D01*
X99056407Y-50640809D01*
X99105907Y-50604845D01*
X99136500Y-50600000D01*
X100074998Y-50600000D01*
X100074999Y-50599999D01*
X100074999Y-50563345D01*
X100064682Y-50462357D01*
X100064679Y-50462345D01*
X100010451Y-50298693D01*
X99919946Y-50151964D01*
X99798035Y-50030053D01*
X99651306Y-49939548D01*
X99487648Y-49885318D01*
X99384140Y-49874743D01*
X99384230Y-49873857D01*
X99330154Y-49853171D01*
X99296771Y-49801895D01*
X99299903Y-49740790D01*
X99322360Y-49706163D01*
X100470528Y-48557996D01*
X100525045Y-48530219D01*
X100540532Y-48529000D01*
X101730967Y-48529000D01*
X101789158Y-48547907D01*
X101800971Y-48557996D01*
X102121504Y-48878529D01*
X102149281Y-48933046D01*
X102150500Y-48948533D01*
X102150500Y-61574209D01*
X102131593Y-61632400D01*
X102082093Y-61668364D01*
X102039696Y-61672503D01*
X101973056Y-61664500D01*
X101973052Y-61664500D01*
X99576948Y-61664500D01*
X99576945Y-61664500D01*
X99534688Y-61669575D01*
X99493703Y-61674497D01*
X99361236Y-61726735D01*
X99361234Y-61726736D01*
X99361230Y-61726738D01*
X99247779Y-61812771D01*
X99247771Y-61812779D01*
X99161738Y-61926230D01*
X99161736Y-61926234D01*
X99161735Y-61926236D01*
X99109497Y-62058703D01*
X99109497Y-62058704D01*
X99100144Y-62136588D01*
X99099500Y-62141948D01*
X99099500Y-62858052D01*
X99109497Y-62941297D01*
X99161735Y-63073764D01*
X99161737Y-63073766D01*
X99161738Y-63073769D01*
X99245411Y-63184108D01*
X99247775Y-63187225D01*
X99247779Y-63187228D01*
X99361230Y-63273261D01*
X99361231Y-63273261D01*
X99361236Y-63273265D01*
X99493703Y-63325503D01*
X99576948Y-63335500D01*
X99576950Y-63335500D01*
X101973050Y-63335500D01*
X101973052Y-63335500D01*
X102039697Y-63327496D01*
X102060691Y-63331635D01*
X102082093Y-63331635D01*
X102090062Y-63337425D01*
X102099725Y-63339330D01*
X102114277Y-63355018D01*
X102131593Y-63367599D01*
X102134636Y-63376966D01*
X102141335Y-63384188D01*
X102150500Y-63425790D01*
X102150500Y-63574209D01*
X102131593Y-63632400D01*
X102082093Y-63668364D01*
X102039696Y-63672503D01*
X101973056Y-63664500D01*
X101973052Y-63664500D01*
X99576948Y-63664500D01*
X99576945Y-63664500D01*
X99514514Y-63671997D01*
X99493703Y-63674497D01*
X99361236Y-63726735D01*
X99361234Y-63726736D01*
X99361230Y-63726738D01*
X99247779Y-63812771D01*
X99247771Y-63812779D01*
X99161738Y-63926230D01*
X99161736Y-63926234D01*
X99161735Y-63926236D01*
X99109497Y-64058703D01*
X99099500Y-64141948D01*
X99099500Y-64858052D01*
X99109497Y-64941297D01*
X99161735Y-65073764D01*
X99161737Y-65073766D01*
X99161738Y-65073769D01*
X99242833Y-65180708D01*
X99247775Y-65187225D01*
X99247779Y-65187228D01*
X99361230Y-65273261D01*
X99361231Y-65273261D01*
X99361236Y-65273265D01*
X99493703Y-65325503D01*
X99576948Y-65335500D01*
X99576950Y-65335500D01*
X101973050Y-65335500D01*
X101973052Y-65335500D01*
X102039697Y-65327496D01*
X102060691Y-65331635D01*
X102082093Y-65331635D01*
X102090062Y-65337425D01*
X102099725Y-65339330D01*
X102114277Y-65355018D01*
X102131593Y-65367599D01*
X102134636Y-65376966D01*
X102141335Y-65384188D01*
X102150500Y-65425790D01*
X102150500Y-65574209D01*
X102131593Y-65632400D01*
X102082093Y-65668364D01*
X102039696Y-65672503D01*
X101973056Y-65664500D01*
X101973052Y-65664500D01*
X99576948Y-65664500D01*
X99576945Y-65664500D01*
X99514514Y-65671997D01*
X99493703Y-65674497D01*
X99361236Y-65726735D01*
X99361234Y-65726736D01*
X99361230Y-65726738D01*
X99247779Y-65812771D01*
X99247771Y-65812779D01*
X99161738Y-65926230D01*
X99161736Y-65926234D01*
X99161735Y-65926236D01*
X99109497Y-66058703D01*
X99099500Y-66141948D01*
X99099500Y-66858052D01*
X99109497Y-66941297D01*
X99161735Y-67073764D01*
X99161737Y-67073766D01*
X99161738Y-67073769D01*
X99181251Y-67099500D01*
X99247775Y-67187225D01*
X99247779Y-67187228D01*
X99361230Y-67273261D01*
X99361231Y-67273261D01*
X99361236Y-67273265D01*
X99493703Y-67325503D01*
X99576948Y-67335500D01*
X99576950Y-67335500D01*
X101973050Y-67335500D01*
X101973052Y-67335500D01*
X102039697Y-67327496D01*
X102060691Y-67331635D01*
X102082093Y-67331635D01*
X102090062Y-67337425D01*
X102099725Y-67339330D01*
X102114277Y-67355018D01*
X102131593Y-67367599D01*
X102134636Y-67376966D01*
X102141335Y-67384188D01*
X102150500Y-67425790D01*
X102150500Y-67574209D01*
X102131593Y-67632400D01*
X102082093Y-67668364D01*
X102039696Y-67672503D01*
X101973056Y-67664500D01*
X101973052Y-67664500D01*
X99576948Y-67664500D01*
X99576945Y-67664500D01*
X99514514Y-67671997D01*
X99493703Y-67674497D01*
X99361236Y-67726735D01*
X99361234Y-67726736D01*
X99361230Y-67726738D01*
X99247779Y-67812771D01*
X99247771Y-67812779D01*
X99161738Y-67926230D01*
X99161736Y-67926234D01*
X99161735Y-67926236D01*
X99109497Y-68058703D01*
X99109497Y-68058704D01*
X99099501Y-68141943D01*
X99099500Y-68141948D01*
X99099500Y-68858052D01*
X99109497Y-68941297D01*
X99161735Y-69073764D01*
X99161737Y-69073766D01*
X99161738Y-69073769D01*
X99247771Y-69187220D01*
X99247775Y-69187225D01*
X99247779Y-69187228D01*
X99361230Y-69273261D01*
X99361231Y-69273261D01*
X99361236Y-69273265D01*
X99493703Y-69325503D01*
X99576948Y-69335500D01*
X99576950Y-69335500D01*
X101973050Y-69335500D01*
X101973052Y-69335500D01*
X102056297Y-69325503D01*
X102188764Y-69273265D01*
X102302225Y-69187225D01*
X102388265Y-69073764D01*
X102388267Y-69073758D01*
X102391584Y-69067861D01*
X102392844Y-69068569D01*
X102426925Y-69027248D01*
X102454479Y-69015129D01*
X102462481Y-69012985D01*
X102462480Y-69012985D01*
X102462485Y-69012984D01*
X102588015Y-68940510D01*
X103141510Y-68387015D01*
X103213984Y-68261485D01*
X103251500Y-68121475D01*
X103251500Y-66913932D01*
X103270407Y-66855741D01*
X103319907Y-66819777D01*
X103381093Y-66819777D01*
X103395445Y-66825722D01*
X103503860Y-66880962D01*
X103685181Y-66939877D01*
X103873474Y-66969700D01*
X104429999Y-66969700D01*
X104430000Y-66969699D01*
X104430000Y-66191512D01*
X104487007Y-66224425D01*
X104614174Y-66258500D01*
X104745826Y-66258500D01*
X104872993Y-66224425D01*
X104930000Y-66191512D01*
X104930000Y-66969699D01*
X104930001Y-66969700D01*
X105486526Y-66969700D01*
X105674818Y-66939877D01*
X105856142Y-66880961D01*
X105965554Y-66825213D01*
X106025986Y-66815641D01*
X106080503Y-66843418D01*
X106108281Y-66897934D01*
X106109500Y-66913422D01*
X106109500Y-82309000D01*
X106090593Y-82367191D01*
X106041093Y-82403155D01*
X106010500Y-82408000D01*
X80489500Y-82408000D01*
X80431309Y-82389093D01*
X80395345Y-82339593D01*
X80390500Y-82309000D01*
X80390500Y-79630253D01*
X92199500Y-79630253D01*
X92199500Y-81369746D01*
X92199501Y-81369758D01*
X92211132Y-81428227D01*
X92211133Y-81428231D01*
X92255448Y-81494552D01*
X92321769Y-81538867D01*
X92366231Y-81547711D01*
X92380241Y-81550498D01*
X92380246Y-81550498D01*
X92380252Y-81550500D01*
X92380253Y-81550500D01*
X94119747Y-81550500D01*
X94119748Y-81550500D01*
X94178231Y-81538867D01*
X94244552Y-81494552D01*
X94288867Y-81428231D01*
X94300500Y-81369748D01*
X94300500Y-79630252D01*
X94288867Y-79571769D01*
X94244552Y-79505448D01*
X94244548Y-79505445D01*
X94178233Y-79461134D01*
X94178231Y-79461133D01*
X94178228Y-79461132D01*
X94178227Y-79461132D01*
X94119758Y-79449501D01*
X94119748Y-79449500D01*
X94119747Y-79449500D01*
X93649500Y-79449500D01*
X93591309Y-79430593D01*
X93555345Y-79381093D01*
X93550500Y-79350500D01*
X93550500Y-77915479D01*
X93569407Y-77857288D01*
X93579496Y-77845475D01*
X94595475Y-76829496D01*
X94649992Y-76801719D01*
X94665479Y-76800500D01*
X99004766Y-76800500D01*
X99062957Y-76819407D01*
X99098921Y-76868907D01*
X99103060Y-76887696D01*
X99109496Y-76941295D01*
X99109497Y-76941297D01*
X99161735Y-77073764D01*
X99161737Y-77073766D01*
X99161738Y-77073769D01*
X99247771Y-77187220D01*
X99247775Y-77187225D01*
X99247779Y-77187228D01*
X99361230Y-77273261D01*
X99361231Y-77273261D01*
X99361236Y-77273265D01*
X99493703Y-77325503D01*
X99576948Y-77335500D01*
X99576950Y-77335500D01*
X101973050Y-77335500D01*
X101973052Y-77335500D01*
X102056297Y-77325503D01*
X102188764Y-77273265D01*
X102302225Y-77187225D01*
X102388265Y-77073764D01*
X102440503Y-76941297D01*
X102450500Y-76858052D01*
X102450500Y-76141948D01*
X102440503Y-76058703D01*
X102388265Y-75926236D01*
X102388261Y-75926231D01*
X102388261Y-75926230D01*
X102302228Y-75812779D01*
X102302225Y-75812775D01*
X102302220Y-75812771D01*
X102302219Y-75812770D01*
X102215865Y-75747285D01*
X102180923Y-75697059D01*
X102182177Y-75635886D01*
X102219148Y-75587134D01*
X102242989Y-75574957D01*
X102289446Y-75558701D01*
X102445424Y-75460694D01*
X102575694Y-75330424D01*
X102673702Y-75174445D01*
X102673702Y-75174444D01*
X102734545Y-75000568D01*
X102734548Y-75000556D01*
X102749999Y-74863428D01*
X102750000Y-74863411D01*
X102750000Y-74750001D01*
X102749999Y-74750000D01*
X98800001Y-74750000D01*
X98800000Y-74750001D01*
X98800000Y-74863428D01*
X98815451Y-75000556D01*
X98815454Y-75000568D01*
X98876297Y-75174444D01*
X98876297Y-75174445D01*
X98974305Y-75330424D01*
X99104575Y-75460694D01*
X99260552Y-75558700D01*
X99307011Y-75574957D01*
X99355692Y-75612022D01*
X99373289Y-75670622D01*
X99353082Y-75728374D01*
X99334134Y-75747285D01*
X99247780Y-75812770D01*
X99247771Y-75812779D01*
X99161738Y-75926230D01*
X99161736Y-75926234D01*
X99161735Y-75926236D01*
X99135021Y-75993977D01*
X99109496Y-76058704D01*
X99103060Y-76112304D01*
X99077349Y-76167826D01*
X99023914Y-76197631D01*
X99004766Y-76199500D01*
X94460435Y-76199500D01*
X94384011Y-76219978D01*
X94384007Y-76219980D01*
X94315491Y-76259538D01*
X93065489Y-77509540D01*
X93065488Y-77509539D01*
X93009539Y-77565489D01*
X92969980Y-77634007D01*
X92969978Y-77634011D01*
X92949500Y-77710435D01*
X92949500Y-79350500D01*
X92930593Y-79408691D01*
X92881093Y-79444655D01*
X92850500Y-79449500D01*
X92380252Y-79449500D01*
X92380251Y-79449500D01*
X92380241Y-79449501D01*
X92321772Y-79461132D01*
X92321766Y-79461134D01*
X92255451Y-79505445D01*
X92255445Y-79505451D01*
X92211134Y-79571766D01*
X92211132Y-79571772D01*
X92199501Y-79630241D01*
X92199500Y-79630253D01*
X80390500Y-79630253D01*
X80390500Y-76750001D01*
X83750000Y-76750001D01*
X83750000Y-76863428D01*
X83765451Y-77000556D01*
X83765454Y-77000568D01*
X83826297Y-77174444D01*
X83826297Y-77174445D01*
X83924305Y-77330424D01*
X84054575Y-77460694D01*
X84210554Y-77558702D01*
X84384431Y-77619545D01*
X84384443Y-77619548D01*
X84521571Y-77634999D01*
X84521589Y-77635000D01*
X85474999Y-77635000D01*
X85475000Y-77634999D01*
X85475000Y-76750001D01*
X85975000Y-76750001D01*
X85975000Y-77634999D01*
X85975001Y-77635000D01*
X86928411Y-77635000D01*
X86928428Y-77634999D01*
X87065556Y-77619548D01*
X87065568Y-77619545D01*
X87239444Y-77558702D01*
X87239445Y-77558702D01*
X87395424Y-77460694D01*
X87525694Y-77330424D01*
X87623702Y-77174445D01*
X87623702Y-77174444D01*
X87684545Y-77000568D01*
X87684548Y-77000556D01*
X87699999Y-76863428D01*
X87700000Y-76863411D01*
X87700000Y-76750001D01*
X87699999Y-76750000D01*
X85975001Y-76750000D01*
X85975000Y-76750001D01*
X85475000Y-76750001D01*
X85474999Y-76750000D01*
X83750001Y-76750000D01*
X83750000Y-76750001D01*
X80390500Y-76750001D01*
X80390500Y-76136571D01*
X83750000Y-76136571D01*
X83750000Y-76249999D01*
X83750001Y-76250000D01*
X87699999Y-76250000D01*
X87700000Y-76249999D01*
X87700000Y-76136588D01*
X87699999Y-76136571D01*
X87684548Y-75999443D01*
X87684545Y-75999431D01*
X87623702Y-75825555D01*
X87623702Y-75825554D01*
X87525694Y-75669575D01*
X87395424Y-75539305D01*
X87239445Y-75441297D01*
X87192987Y-75425041D01*
X87144307Y-75387976D01*
X87126710Y-75329376D01*
X87146918Y-75271624D01*
X87165866Y-75252713D01*
X87169808Y-75249723D01*
X87252225Y-75187225D01*
X87338265Y-75073764D01*
X87390503Y-74941297D01*
X87400500Y-74858052D01*
X87400500Y-74141948D01*
X87399854Y-74136571D01*
X98800000Y-74136571D01*
X98800000Y-74249999D01*
X98800001Y-74250000D01*
X102749999Y-74250000D01*
X102750000Y-74249999D01*
X102750000Y-74136588D01*
X102749999Y-74136571D01*
X102734548Y-73999443D01*
X102734545Y-73999431D01*
X102673702Y-73825555D01*
X102673702Y-73825554D01*
X102575694Y-73669575D01*
X102445424Y-73539305D01*
X102289445Y-73441297D01*
X102242987Y-73425041D01*
X102194307Y-73387976D01*
X102176710Y-73329376D01*
X102196918Y-73271624D01*
X102215866Y-73252713D01*
X102219808Y-73249723D01*
X102302225Y-73187225D01*
X102388265Y-73073764D01*
X102440503Y-72941297D01*
X102450500Y-72858052D01*
X102450500Y-72141948D01*
X102440503Y-72058703D01*
X102388265Y-71926236D01*
X102388261Y-71926231D01*
X102388261Y-71926230D01*
X102302228Y-71812779D01*
X102302225Y-71812775D01*
X102302220Y-71812771D01*
X102188769Y-71726738D01*
X102188766Y-71726737D01*
X102188764Y-71726735D01*
X102056297Y-71674497D01*
X102014674Y-71669498D01*
X101973054Y-71664500D01*
X101973052Y-71664500D01*
X99576948Y-71664500D01*
X99576945Y-71664500D01*
X99514514Y-71671997D01*
X99493703Y-71674497D01*
X99361236Y-71726735D01*
X99361234Y-71726736D01*
X99361230Y-71726738D01*
X99247779Y-71812771D01*
X99247771Y-71812779D01*
X99161738Y-71926230D01*
X99161736Y-71926234D01*
X99161735Y-71926236D01*
X99109497Y-72058703D01*
X99099500Y-72141948D01*
X99099500Y-72858052D01*
X99109497Y-72941297D01*
X99161735Y-73073764D01*
X99161737Y-73073766D01*
X99161738Y-73073769D01*
X99247771Y-73187220D01*
X99247775Y-73187225D01*
X99247778Y-73187227D01*
X99247779Y-73187228D01*
X99334134Y-73252714D01*
X99369076Y-73302940D01*
X99367822Y-73364113D01*
X99330851Y-73412865D01*
X99307012Y-73425041D01*
X99260555Y-73441297D01*
X99260554Y-73441297D01*
X99104575Y-73539305D01*
X98974305Y-73669575D01*
X98876297Y-73825554D01*
X98876297Y-73825555D01*
X98815454Y-73999431D01*
X98815451Y-73999443D01*
X98800000Y-74136571D01*
X87399854Y-74136571D01*
X87390503Y-74058703D01*
X87338265Y-73926236D01*
X87338261Y-73926231D01*
X87338261Y-73926230D01*
X87252228Y-73812779D01*
X87252225Y-73812775D01*
X87252220Y-73812771D01*
X87138769Y-73726738D01*
X87138766Y-73726737D01*
X87138764Y-73726735D01*
X87006297Y-73674497D01*
X86964674Y-73669498D01*
X86923054Y-73664500D01*
X86923052Y-73664500D01*
X84526948Y-73664500D01*
X84526945Y-73664500D01*
X84484688Y-73669575D01*
X84443703Y-73674497D01*
X84311236Y-73726735D01*
X84311234Y-73726736D01*
X84311230Y-73726738D01*
X84197779Y-73812771D01*
X84197771Y-73812779D01*
X84111738Y-73926230D01*
X84111736Y-73926234D01*
X84111735Y-73926236D01*
X84059497Y-74058703D01*
X84059497Y-74058704D01*
X84049500Y-74141945D01*
X84049500Y-74858054D01*
X84054498Y-74899674D01*
X84059497Y-74941297D01*
X84111735Y-75073764D01*
X84111737Y-75073766D01*
X84111738Y-75073769D01*
X84197771Y-75187220D01*
X84197775Y-75187225D01*
X84197778Y-75187227D01*
X84197779Y-75187228D01*
X84284134Y-75252714D01*
X84319076Y-75302940D01*
X84317822Y-75364113D01*
X84280851Y-75412865D01*
X84257012Y-75425041D01*
X84210555Y-75441297D01*
X84210554Y-75441297D01*
X84054575Y-75539305D01*
X83924305Y-75669575D01*
X83826297Y-75825554D01*
X83826297Y-75825555D01*
X83765454Y-75999431D01*
X83765451Y-75999443D01*
X83750000Y-76136571D01*
X80390500Y-76136571D01*
X80390500Y-72141948D01*
X84049500Y-72141948D01*
X84049500Y-72858052D01*
X84059497Y-72941297D01*
X84111735Y-73073764D01*
X84111737Y-73073766D01*
X84111738Y-73073769D01*
X84197771Y-73187220D01*
X84197775Y-73187225D01*
X84197778Y-73187227D01*
X84197779Y-73187228D01*
X84311230Y-73273261D01*
X84311231Y-73273261D01*
X84311236Y-73273265D01*
X84443703Y-73325503D01*
X84526948Y-73335500D01*
X84526950Y-73335500D01*
X86923050Y-73335500D01*
X86923052Y-73335500D01*
X87006297Y-73325503D01*
X87138764Y-73273265D01*
X87252225Y-73187225D01*
X87338265Y-73073764D01*
X87390503Y-72941297D01*
X87400500Y-72858052D01*
X87400500Y-72141948D01*
X87390503Y-72058703D01*
X87338265Y-71926236D01*
X87338261Y-71926231D01*
X87338261Y-71926230D01*
X87252228Y-71812779D01*
X87252225Y-71812775D01*
X87252220Y-71812771D01*
X87138769Y-71726738D01*
X87138766Y-71726737D01*
X87138764Y-71726735D01*
X87006297Y-71674497D01*
X86964674Y-71669498D01*
X86923054Y-71664500D01*
X86923052Y-71664500D01*
X84526948Y-71664500D01*
X84526945Y-71664500D01*
X84464514Y-71671997D01*
X84443703Y-71674497D01*
X84311236Y-71726735D01*
X84311234Y-71726736D01*
X84311230Y-71726738D01*
X84197779Y-71812771D01*
X84197771Y-71812779D01*
X84111738Y-71926230D01*
X84111736Y-71926234D01*
X84111735Y-71926236D01*
X84059497Y-72058703D01*
X84049500Y-72141948D01*
X80390500Y-72141948D01*
X80390500Y-66560255D01*
X80409407Y-66502064D01*
X80458907Y-66466100D01*
X80520093Y-66466100D01*
X80544502Y-66477940D01*
X80676948Y-66566438D01*
X80842867Y-66635164D01*
X81019005Y-66670200D01*
X81019006Y-66670200D01*
X82620994Y-66670200D01*
X82620995Y-66670200D01*
X82797133Y-66635164D01*
X82963052Y-66566438D01*
X83112375Y-66466663D01*
X83239363Y-66339675D01*
X83339138Y-66190352D01*
X83339138Y-66190351D01*
X83341840Y-66186308D01*
X83342971Y-66187064D01*
X83382799Y-66148764D01*
X83443407Y-66140375D01*
X83497370Y-66169213D01*
X83505218Y-66179651D01*
X83505591Y-66179365D01*
X83509534Y-66184504D01*
X83509538Y-66184508D01*
X83509540Y-66184511D01*
X84020505Y-66695476D01*
X84023394Y-66701146D01*
X84028661Y-66704718D01*
X84035759Y-66725416D01*
X84048281Y-66749991D01*
X84049448Y-66762264D01*
X84049500Y-66763864D01*
X84049500Y-66858052D01*
X84053693Y-66892975D01*
X84053834Y-66897286D01*
X84046470Y-66922733D01*
X84041346Y-66948726D01*
X84038068Y-66951765D01*
X84036826Y-66956060D01*
X84015909Y-66972319D01*
X83996487Y-66990335D01*
X83991250Y-66991488D01*
X83988519Y-66993612D01*
X83980418Y-66993875D01*
X83954886Y-66999500D01*
X83934108Y-66999500D01*
X83856200Y-67020375D01*
X83806809Y-67033609D01*
X83692690Y-67099496D01*
X83599496Y-67192690D01*
X83533609Y-67306809D01*
X83520692Y-67355018D01*
X83499500Y-67434108D01*
X83499500Y-67565892D01*
X83520856Y-67645593D01*
X83533609Y-67693190D01*
X83599496Y-67807309D01*
X83599498Y-67807311D01*
X83599500Y-67807314D01*
X83692686Y-67900500D01*
X83692688Y-67900501D01*
X83692690Y-67900503D01*
X83806810Y-67966390D01*
X83806808Y-67966390D01*
X83806812Y-67966391D01*
X83806814Y-67966392D01*
X83934108Y-68000500D01*
X83934110Y-68000500D01*
X83954886Y-68000500D01*
X84013077Y-68019407D01*
X84049041Y-68068907D01*
X84053180Y-68111304D01*
X84049500Y-68141943D01*
X84049500Y-68141945D01*
X84049500Y-68141948D01*
X84049500Y-68858052D01*
X84059497Y-68941297D01*
X84111735Y-69073764D01*
X84111737Y-69073766D01*
X84111738Y-69073769D01*
X84197771Y-69187220D01*
X84197775Y-69187225D01*
X84197779Y-69187228D01*
X84311230Y-69273261D01*
X84311231Y-69273261D01*
X84311236Y-69273265D01*
X84443703Y-69325503D01*
X84526948Y-69335500D01*
X84526950Y-69335500D01*
X86923050Y-69335500D01*
X86923052Y-69335500D01*
X87006297Y-69325503D01*
X87138764Y-69273265D01*
X87252225Y-69187225D01*
X87338265Y-69073764D01*
X87390503Y-68941297D01*
X87400500Y-68858052D01*
X87400500Y-68141948D01*
X87390503Y-68058703D01*
X87338265Y-67926236D01*
X87338261Y-67926231D01*
X87338261Y-67926230D01*
X87252228Y-67812779D01*
X87252225Y-67812775D01*
X87245017Y-67807309D01*
X87138769Y-67726738D01*
X87138766Y-67726737D01*
X87138764Y-67726735D01*
X87006297Y-67674497D01*
X86955228Y-67668364D01*
X86923054Y-67664500D01*
X86923052Y-67664500D01*
X85355479Y-67664500D01*
X85347881Y-67662031D01*
X85339992Y-67663281D01*
X85319336Y-67652756D01*
X85297288Y-67645593D01*
X85285475Y-67635504D01*
X85154475Y-67504504D01*
X85126698Y-67449987D01*
X85136269Y-67389555D01*
X85179534Y-67346290D01*
X85224479Y-67335500D01*
X86923050Y-67335500D01*
X86923052Y-67335500D01*
X87006297Y-67325503D01*
X87138764Y-67273265D01*
X87252225Y-67187225D01*
X87338265Y-67073764D01*
X87390503Y-66941297D01*
X87400500Y-66858052D01*
X87400500Y-66141948D01*
X87390503Y-66058703D01*
X87338265Y-65926236D01*
X87338261Y-65926231D01*
X87338261Y-65926230D01*
X87252228Y-65812779D01*
X87252225Y-65812775D01*
X87240680Y-65804020D01*
X87138769Y-65726738D01*
X87138766Y-65726737D01*
X87138764Y-65726735D01*
X87006297Y-65674497D01*
X86955228Y-65668364D01*
X86923054Y-65664500D01*
X86923052Y-65664500D01*
X84526948Y-65664500D01*
X84526945Y-65664500D01*
X84464514Y-65671997D01*
X84443703Y-65674497D01*
X84397609Y-65692674D01*
X84311230Y-65726737D01*
X84209319Y-65804020D01*
X84151528Y-65824115D01*
X84092962Y-65806404D01*
X84055992Y-65757651D01*
X84050500Y-65725136D01*
X84050500Y-65274863D01*
X84069407Y-65216672D01*
X84118907Y-65180708D01*
X84180093Y-65180708D01*
X84209320Y-65195980D01*
X84311230Y-65273261D01*
X84311231Y-65273261D01*
X84311236Y-65273265D01*
X84443703Y-65325503D01*
X84526948Y-65335500D01*
X84526950Y-65335500D01*
X86923050Y-65335500D01*
X86923052Y-65335500D01*
X87006297Y-65325503D01*
X87138764Y-65273265D01*
X87252225Y-65187225D01*
X87338265Y-65073764D01*
X87390503Y-64941297D01*
X87400500Y-64858052D01*
X87400500Y-64141948D01*
X87390503Y-64058703D01*
X87338265Y-63926236D01*
X87338261Y-63926231D01*
X87338261Y-63926230D01*
X87252228Y-63812779D01*
X87252225Y-63812775D01*
X87252220Y-63812771D01*
X87252219Y-63812770D01*
X87165865Y-63747285D01*
X87130923Y-63697059D01*
X87132177Y-63635886D01*
X87169148Y-63587134D01*
X87192989Y-63574957D01*
X87239446Y-63558701D01*
X87395424Y-63460694D01*
X87395426Y-63460692D01*
X87398202Y-63457917D01*
X87452717Y-63430135D01*
X87513149Y-63439702D01*
X87553946Y-63478414D01*
X87599500Y-63557314D01*
X87670505Y-63628319D01*
X87698281Y-63682834D01*
X87699500Y-63698321D01*
X87699500Y-69534521D01*
X87680593Y-69592712D01*
X87670504Y-69604524D01*
X87423087Y-69851940D01*
X87368572Y-69879717D01*
X87308140Y-69870146D01*
X87274201Y-69841755D01*
X87252225Y-69812775D01*
X87252220Y-69812771D01*
X87138769Y-69726738D01*
X87138766Y-69726737D01*
X87138764Y-69726735D01*
X87006297Y-69674497D01*
X86964674Y-69669498D01*
X86923054Y-69664500D01*
X86923052Y-69664500D01*
X84526948Y-69664500D01*
X84526945Y-69664500D01*
X84464514Y-69671997D01*
X84443703Y-69674497D01*
X84311236Y-69726735D01*
X84311234Y-69726736D01*
X84311230Y-69726738D01*
X84197779Y-69812771D01*
X84197771Y-69812779D01*
X84111738Y-69926230D01*
X84111736Y-69926234D01*
X84111735Y-69926236D01*
X84059497Y-70058703D01*
X84049500Y-70141948D01*
X84049500Y-70858052D01*
X84059497Y-70941297D01*
X84111735Y-71073764D01*
X84111737Y-71073766D01*
X84111738Y-71073769D01*
X84197771Y-71187220D01*
X84197775Y-71187225D01*
X84197779Y-71187228D01*
X84311230Y-71273261D01*
X84311231Y-71273261D01*
X84311236Y-71273265D01*
X84443703Y-71325503D01*
X84526948Y-71335500D01*
X84526950Y-71335500D01*
X86923050Y-71335500D01*
X86923052Y-71335500D01*
X87006297Y-71325503D01*
X87138764Y-71273265D01*
X87252225Y-71187225D01*
X87338265Y-71073764D01*
X87390503Y-70941297D01*
X87400500Y-70858052D01*
X87400500Y-70765479D01*
X87419407Y-70707288D01*
X87429496Y-70695475D01*
X87440460Y-70684511D01*
X87983023Y-70141948D01*
X99099500Y-70141948D01*
X99099500Y-70858052D01*
X99109497Y-70941297D01*
X99161735Y-71073764D01*
X99161737Y-71073766D01*
X99161738Y-71073769D01*
X99247771Y-71187220D01*
X99247775Y-71187225D01*
X99247779Y-71187228D01*
X99361230Y-71273261D01*
X99361231Y-71273261D01*
X99361236Y-71273265D01*
X99493703Y-71325503D01*
X99576948Y-71335500D01*
X99576950Y-71335500D01*
X101973050Y-71335500D01*
X101973052Y-71335500D01*
X102056297Y-71325503D01*
X102188764Y-71273265D01*
X102302225Y-71187225D01*
X102388265Y-71073764D01*
X102440503Y-70941297D01*
X102450500Y-70858052D01*
X102450500Y-70141948D01*
X102440503Y-70058703D01*
X102388265Y-69926236D01*
X102388261Y-69926231D01*
X102388261Y-69926230D01*
X102302228Y-69812779D01*
X102302227Y-69812778D01*
X102302225Y-69812775D01*
X102302220Y-69812771D01*
X102188769Y-69726738D01*
X102188766Y-69726737D01*
X102188764Y-69726735D01*
X102056297Y-69674497D01*
X102014674Y-69669498D01*
X101973054Y-69664500D01*
X101973052Y-69664500D01*
X99576948Y-69664500D01*
X99576945Y-69664500D01*
X99514514Y-69671997D01*
X99493703Y-69674497D01*
X99361236Y-69726735D01*
X99361234Y-69726736D01*
X99361230Y-69726738D01*
X99247779Y-69812771D01*
X99247771Y-69812779D01*
X99161738Y-69926230D01*
X99161736Y-69926234D01*
X99161735Y-69926236D01*
X99109497Y-70058703D01*
X99099500Y-70141948D01*
X87983023Y-70141948D01*
X88240460Y-69884511D01*
X88280021Y-69815989D01*
X88300500Y-69739562D01*
X88300500Y-63698321D01*
X88319407Y-63640130D01*
X88329490Y-63628323D01*
X88400500Y-63557314D01*
X88442578Y-63484433D01*
X88466390Y-63443190D01*
X88466390Y-63443188D01*
X88466392Y-63443186D01*
X88500500Y-63315892D01*
X88500500Y-63184108D01*
X88466392Y-63056814D01*
X88466390Y-63056811D01*
X88466390Y-63056809D01*
X88400503Y-62942690D01*
X88400501Y-62942688D01*
X88400500Y-62942686D01*
X88307314Y-62849500D01*
X88307311Y-62849498D01*
X88307309Y-62849496D01*
X88193189Y-62783609D01*
X88193191Y-62783609D01*
X88143799Y-62770375D01*
X88065892Y-62749500D01*
X87934108Y-62749500D01*
X87806814Y-62783608D01*
X87806813Y-62783608D01*
X87804288Y-62784285D01*
X87743186Y-62781082D01*
X87708661Y-62758662D01*
X87699999Y-62750000D01*
X85824000Y-62750000D01*
X85765809Y-62731093D01*
X85729845Y-62681593D01*
X85725000Y-62651000D01*
X85725000Y-62500001D01*
X85724999Y-62500000D01*
X85574000Y-62500000D01*
X85515809Y-62481093D01*
X85479845Y-62431593D01*
X85475000Y-62401000D01*
X85475000Y-61365001D01*
X85975000Y-61365001D01*
X85975000Y-62249999D01*
X85975001Y-62250000D01*
X87699999Y-62250000D01*
X87700000Y-62249999D01*
X87700000Y-62136588D01*
X87699999Y-62136571D01*
X87684548Y-61999443D01*
X87684545Y-61999431D01*
X87623702Y-61825555D01*
X87623702Y-61825554D01*
X87525694Y-61669575D01*
X87395424Y-61539305D01*
X87239445Y-61441297D01*
X87065568Y-61380454D01*
X87065556Y-61380451D01*
X86928428Y-61365000D01*
X85975001Y-61365000D01*
X85975000Y-61365001D01*
X85475000Y-61365001D01*
X85474999Y-61365000D01*
X84649500Y-61365000D01*
X84591309Y-61346093D01*
X84555345Y-61296593D01*
X84550500Y-61266000D01*
X84550500Y-57462501D01*
X87200001Y-57462501D01*
X87200001Y-57561654D01*
X87210317Y-57662642D01*
X87210320Y-57662654D01*
X87264548Y-57826306D01*
X87355053Y-57973035D01*
X87476964Y-58094946D01*
X87623693Y-58185451D01*
X87787351Y-58239681D01*
X87888344Y-58249999D01*
X87924999Y-58249999D01*
X87925000Y-58249998D01*
X87925000Y-57462501D01*
X88425000Y-57462501D01*
X88425000Y-58249998D01*
X88425001Y-58249999D01*
X88461654Y-58249999D01*
X88562642Y-58239682D01*
X88562654Y-58239679D01*
X88726306Y-58185451D01*
X88873035Y-58094946D01*
X88994946Y-57973035D01*
X89085451Y-57826306D01*
X89139681Y-57662648D01*
X89150000Y-57561655D01*
X89150000Y-57462501D01*
X89149999Y-57462500D01*
X88425001Y-57462500D01*
X88425000Y-57462501D01*
X87925000Y-57462501D01*
X87924999Y-57462500D01*
X87200002Y-57462500D01*
X87200001Y-57462501D01*
X84550500Y-57462501D01*
X84550500Y-55448937D01*
X84550499Y-55448935D01*
X84550263Y-55448056D01*
X84530021Y-55372511D01*
X84506959Y-55332567D01*
X84490460Y-55303989D01*
X84434511Y-55248039D01*
X84434511Y-55248040D01*
X83102149Y-53915678D01*
X83074372Y-53861161D01*
X83083943Y-53800729D01*
X83109361Y-53769135D01*
X83112364Y-53766669D01*
X83112375Y-53766663D01*
X83239363Y-53639675D01*
X83339138Y-53490352D01*
X83407864Y-53324433D01*
X83442900Y-53148295D01*
X83442900Y-52968705D01*
X83407864Y-52792567D01*
X83339139Y-52626650D01*
X83339139Y-52626649D01*
X83239363Y-52477325D01*
X83112374Y-52350336D01*
X82963049Y-52250560D01*
X82797133Y-52181836D01*
X82620997Y-52146800D01*
X82620995Y-52146800D01*
X81019005Y-52146800D01*
X81019002Y-52146800D01*
X80842867Y-52181836D01*
X80842865Y-52181836D01*
X80676951Y-52250560D01*
X80544501Y-52339060D01*
X80485613Y-52355668D01*
X80428209Y-52334490D01*
X80394217Y-52283616D01*
X80390500Y-52256744D01*
X80390500Y-51673422D01*
X80409407Y-51615231D01*
X80458907Y-51579267D01*
X80520093Y-51579267D01*
X80534446Y-51585213D01*
X80643857Y-51640961D01*
X80825181Y-51699877D01*
X81013474Y-51729700D01*
X81569999Y-51729700D01*
X81570000Y-51729699D01*
X81570000Y-50951512D01*
X81627007Y-50984425D01*
X81754174Y-51018500D01*
X81885826Y-51018500D01*
X82012993Y-50984425D01*
X82070000Y-50951512D01*
X82070000Y-51729699D01*
X82070001Y-51729700D01*
X82626526Y-51729700D01*
X82814818Y-51699877D01*
X82996139Y-51640962D01*
X83166004Y-51554412D01*
X83320242Y-51442351D01*
X83455051Y-51307542D01*
X83567112Y-51153304D01*
X83653662Y-50983439D01*
X83712577Y-50802118D01*
X83717901Y-50768500D01*
X82253012Y-50768500D01*
X82285925Y-50711493D01*
X82320000Y-50584326D01*
X82320000Y-50452674D01*
X82285925Y-50325507D01*
X82253012Y-50268500D01*
X83717901Y-50268500D01*
X83717901Y-50268499D01*
X83712577Y-50234881D01*
X83653662Y-50053560D01*
X83567112Y-49883695D01*
X83455051Y-49729457D01*
X83320242Y-49594648D01*
X83166004Y-49482587D01*
X82996139Y-49396037D01*
X82814818Y-49337122D01*
X82626526Y-49307300D01*
X82070001Y-49307300D01*
X82070000Y-49307301D01*
X82070000Y-50085488D01*
X82012993Y-50052575D01*
X81885826Y-50018500D01*
X81754174Y-50018500D01*
X81627007Y-50052575D01*
X81570000Y-50085488D01*
X81570000Y-49307301D01*
X81569999Y-49307300D01*
X81013474Y-49307300D01*
X80825181Y-49337122D01*
X80643860Y-49396037D01*
X80534445Y-49451787D01*
X80474013Y-49461358D01*
X80419496Y-49433580D01*
X80391719Y-49379064D01*
X80390500Y-49363577D01*
X80390500Y-48780255D01*
X80409407Y-48722064D01*
X80458907Y-48686100D01*
X80520093Y-48686100D01*
X80544502Y-48697940D01*
X80676948Y-48786438D01*
X80842867Y-48855164D01*
X81019005Y-48890200D01*
X81019006Y-48890200D01*
X82620994Y-48890200D01*
X82620995Y-48890200D01*
X82797133Y-48855164D01*
X82963052Y-48786438D01*
X83112375Y-48686663D01*
X83239363Y-48559675D01*
X83339138Y-48410352D01*
X83407864Y-48244433D01*
X83442900Y-48068295D01*
X83442900Y-47888705D01*
X83407864Y-47712567D01*
X83339139Y-47546650D01*
X83339139Y-47546649D01*
X83239363Y-47397325D01*
X83112374Y-47270336D01*
X82963049Y-47170560D01*
X82797133Y-47101836D01*
X82620997Y-47066800D01*
X82620995Y-47066800D01*
X81019005Y-47066800D01*
X81019002Y-47066800D01*
X80842867Y-47101836D01*
X80842865Y-47101836D01*
X80676951Y-47170560D01*
X80544501Y-47259060D01*
X80485613Y-47275668D01*
X80428209Y-47254490D01*
X80394217Y-47203616D01*
X80390500Y-47176744D01*
X80390500Y-46850001D01*
X83650001Y-46850001D01*
X83650001Y-46856582D01*
X83656408Y-46927103D01*
X83656410Y-46927109D01*
X83706979Y-47089392D01*
X83706982Y-47089400D01*
X83794924Y-47234872D01*
X83915128Y-47355076D01*
X83915844Y-47355637D01*
X83916162Y-47356110D01*
X83919361Y-47359309D01*
X83918735Y-47359934D01*
X83949994Y-47406405D01*
X83952576Y-47449056D01*
X83949500Y-47468480D01*
X83949500Y-47931520D01*
X83949501Y-47931523D01*
X83964352Y-48025299D01*
X83964354Y-48025304D01*
X84021950Y-48138342D01*
X84063606Y-48179998D01*
X84091382Y-48234513D01*
X84081811Y-48294945D01*
X84063607Y-48320000D01*
X84021950Y-48361658D01*
X84021949Y-48361659D01*
X83964354Y-48474695D01*
X83949500Y-48568477D01*
X83949500Y-49031520D01*
X83949501Y-49031523D01*
X83964352Y-49125299D01*
X83964354Y-49125304D01*
X84021950Y-49238342D01*
X84063606Y-49279998D01*
X84091382Y-49334513D01*
X84081811Y-49394945D01*
X84063607Y-49420000D01*
X84031821Y-49451787D01*
X84021949Y-49461659D01*
X83964354Y-49574695D01*
X83949500Y-49668477D01*
X83949500Y-50131520D01*
X83949501Y-50131523D01*
X83964352Y-50225299D01*
X83964354Y-50225304D01*
X84021950Y-50338342D01*
X84063606Y-50379998D01*
X84091382Y-50434513D01*
X84081811Y-50494945D01*
X84063607Y-50520000D01*
X84039075Y-50544533D01*
X84021949Y-50561659D01*
X83964354Y-50674695D01*
X83949500Y-50768477D01*
X83949500Y-51231520D01*
X83949501Y-51231523D01*
X83964352Y-51325299D01*
X83964354Y-51325304D01*
X84021950Y-51438342D01*
X84063606Y-51479998D01*
X84091382Y-51534513D01*
X84081811Y-51594945D01*
X84063607Y-51620000D01*
X84042647Y-51640961D01*
X84021949Y-51661659D01*
X83964354Y-51774695D01*
X83949500Y-51868477D01*
X83949500Y-52331520D01*
X83949501Y-52331523D01*
X83964352Y-52425299D01*
X83964354Y-52425304D01*
X84021950Y-52538342D01*
X84063606Y-52579998D01*
X84091382Y-52634513D01*
X84081811Y-52694945D01*
X84063607Y-52720000D01*
X84021950Y-52761658D01*
X84021949Y-52761659D01*
X83964354Y-52874695D01*
X83949500Y-52968477D01*
X83949500Y-53431520D01*
X83949501Y-53431523D01*
X83964352Y-53525299D01*
X83964354Y-53525304D01*
X84021950Y-53638342D01*
X84111658Y-53728050D01*
X84224696Y-53785646D01*
X84318481Y-53800500D01*
X85781518Y-53800499D01*
X85781521Y-53800499D01*
X85781522Y-53800498D01*
X85828411Y-53793072D01*
X85875299Y-53785647D01*
X85875299Y-53785646D01*
X85875304Y-53785646D01*
X85988342Y-53728050D01*
X86078050Y-53638342D01*
X86135646Y-53525304D01*
X86147573Y-53450001D01*
X93350001Y-53450001D01*
X93350001Y-53456582D01*
X93356408Y-53527103D01*
X93356410Y-53527109D01*
X93406979Y-53689392D01*
X93406982Y-53689400D01*
X93494924Y-53834872D01*
X93615127Y-53955075D01*
X93760599Y-54043017D01*
X93760607Y-54043020D01*
X93922889Y-54093589D01*
X93922895Y-54093591D01*
X93993424Y-54099999D01*
X94499998Y-54099999D01*
X94500000Y-54099998D01*
X94500000Y-53450001D01*
X95000000Y-53450001D01*
X95000000Y-54099998D01*
X95000001Y-54099999D01*
X95506566Y-54099999D01*
X95506582Y-54099998D01*
X95577103Y-54093591D01*
X95577109Y-54093589D01*
X95739392Y-54043020D01*
X95739400Y-54043017D01*
X95884872Y-53955075D01*
X96005075Y-53834872D01*
X96093017Y-53689400D01*
X96093020Y-53689392D01*
X96143589Y-53527110D01*
X96143591Y-53527104D01*
X96149999Y-53456581D01*
X96150000Y-53456568D01*
X96150000Y-53450001D01*
X96149999Y-53450000D01*
X95000001Y-53450000D01*
X95000000Y-53450001D01*
X94500000Y-53450001D01*
X94499999Y-53450000D01*
X93350002Y-53450000D01*
X93350001Y-53450001D01*
X86147573Y-53450001D01*
X86147573Y-53450000D01*
X86150500Y-53431521D01*
X86150500Y-53408993D01*
X86150499Y-52968479D01*
X86150498Y-52968476D01*
X86135647Y-52874700D01*
X86135646Y-52874698D01*
X86135646Y-52874696D01*
X86078050Y-52761658D01*
X86036393Y-52720001D01*
X86008618Y-52665487D01*
X86018189Y-52605055D01*
X86036392Y-52579999D01*
X86078050Y-52538342D01*
X86135646Y-52425304D01*
X86150500Y-52331519D01*
X86150499Y-51868482D01*
X86143613Y-51824999D01*
X86135647Y-51774700D01*
X86135646Y-51774698D01*
X86135646Y-51774696D01*
X86078050Y-51661658D01*
X86036393Y-51620001D01*
X86008618Y-51565487D01*
X86018189Y-51505055D01*
X86036392Y-51479999D01*
X86078050Y-51438342D01*
X86135646Y-51325304D01*
X86150500Y-51231519D01*
X86150499Y-50768482D01*
X86135646Y-50674696D01*
X86078050Y-50561658D01*
X86036393Y-50520001D01*
X86008618Y-50465487D01*
X86018189Y-50405055D01*
X86036392Y-50379999D01*
X86078050Y-50338342D01*
X86135646Y-50225304D01*
X86150500Y-50131519D01*
X86150499Y-49668482D01*
X86144283Y-49629231D01*
X86135647Y-49574700D01*
X86135646Y-49574698D01*
X86135646Y-49574696D01*
X86078050Y-49461658D01*
X86036393Y-49420001D01*
X86008618Y-49365487D01*
X86018189Y-49305055D01*
X86036392Y-49279999D01*
X86078050Y-49238342D01*
X86135646Y-49125304D01*
X86150500Y-49031519D01*
X86150499Y-48568482D01*
X86135646Y-48474696D01*
X86078050Y-48361658D01*
X86036393Y-48320001D01*
X86008618Y-48265487D01*
X86018189Y-48205055D01*
X86036392Y-48179999D01*
X86078050Y-48138342D01*
X86135646Y-48025304D01*
X86150500Y-47931519D01*
X86150499Y-47468482D01*
X86147423Y-47449060D01*
X86156994Y-47388630D01*
X86180909Y-47359579D01*
X86180639Y-47359309D01*
X86183423Y-47356524D01*
X86184150Y-47355642D01*
X86184870Y-47355077D01*
X86305075Y-47234872D01*
X86393017Y-47089400D01*
X86393020Y-47089392D01*
X86443589Y-46927110D01*
X86443591Y-46927104D01*
X86449999Y-46856581D01*
X86450000Y-46856568D01*
X86450000Y-46850001D01*
X86449999Y-46850000D01*
X83650002Y-46850000D01*
X83650001Y-46850001D01*
X80390500Y-46850001D01*
X80390500Y-44130253D01*
X80949500Y-44130253D01*
X80949500Y-45869746D01*
X80949501Y-45869758D01*
X80961132Y-45928227D01*
X80961134Y-45928233D01*
X80995722Y-45979996D01*
X81005448Y-45994552D01*
X81071769Y-46038867D01*
X81116231Y-46047711D01*
X81130241Y-46050498D01*
X81130246Y-46050498D01*
X81130252Y-46050500D01*
X81130253Y-46050500D01*
X82869747Y-46050500D01*
X82869748Y-46050500D01*
X82928231Y-46038867D01*
X82994552Y-45994552D01*
X83038867Y-45928231D01*
X83043485Y-45905011D01*
X83048425Y-45880184D01*
X83078322Y-45826801D01*
X83133888Y-45801186D01*
X83145522Y-45800500D01*
X83720575Y-45800500D01*
X83778766Y-45819407D01*
X83814730Y-45868907D01*
X83814730Y-45930093D01*
X83798508Y-45960553D01*
X83794925Y-45965126D01*
X83706982Y-46110599D01*
X83706979Y-46110607D01*
X83656410Y-46272889D01*
X83656408Y-46272895D01*
X83650000Y-46343418D01*
X83650000Y-46349999D01*
X83650001Y-46350000D01*
X86449998Y-46350000D01*
X86449999Y-46349999D01*
X86449999Y-46343433D01*
X86449998Y-46343417D01*
X86443591Y-46272896D01*
X86443589Y-46272890D01*
X86393020Y-46110607D01*
X86393017Y-46110599D01*
X86305075Y-45965127D01*
X86184873Y-45844925D01*
X86184153Y-45844361D01*
X86183832Y-45843884D01*
X86180639Y-45840691D01*
X86181264Y-45840065D01*
X86150005Y-45793592D01*
X86147424Y-45750939D01*
X86150500Y-45731519D01*
X86150499Y-45268482D01*
X86147423Y-45249060D01*
X86156994Y-45188630D01*
X86180909Y-45159579D01*
X86180639Y-45159309D01*
X86183423Y-45156524D01*
X86184150Y-45155642D01*
X86184870Y-45155077D01*
X86305075Y-45034872D01*
X86393017Y-44889400D01*
X86393020Y-44889392D01*
X86443589Y-44727110D01*
X86443591Y-44727104D01*
X86449999Y-44656581D01*
X86450000Y-44656568D01*
X86450000Y-44650001D01*
X86449999Y-44650000D01*
X83650002Y-44650000D01*
X83650001Y-44650001D01*
X83650001Y-44656582D01*
X83656408Y-44727103D01*
X83656410Y-44727109D01*
X83706979Y-44889392D01*
X83706982Y-44889400D01*
X83794925Y-45034873D01*
X83798508Y-45039447D01*
X83819510Y-45096914D01*
X83802723Y-45155752D01*
X83754558Y-45193485D01*
X83720575Y-45199500D01*
X83149500Y-45199500D01*
X83091309Y-45180593D01*
X83055345Y-45131093D01*
X83050500Y-45100500D01*
X83050500Y-44143418D01*
X83650000Y-44143418D01*
X83650000Y-44149999D01*
X83650001Y-44150000D01*
X84799999Y-44150000D01*
X84800000Y-44149999D01*
X84800000Y-43500001D01*
X85300000Y-43500001D01*
X85300000Y-44149999D01*
X85300001Y-44150000D01*
X86449998Y-44150000D01*
X86449999Y-44149999D01*
X86449999Y-44143433D01*
X86449998Y-44143417D01*
X86443591Y-44072896D01*
X86443589Y-44072890D01*
X86393020Y-43910607D01*
X86393017Y-43910599D01*
X86305075Y-43765127D01*
X86184872Y-43644924D01*
X86039400Y-43556982D01*
X86039392Y-43556979D01*
X85877110Y-43506410D01*
X85877104Y-43506408D01*
X85806581Y-43500000D01*
X85300001Y-43500000D01*
X85300000Y-43500001D01*
X84800000Y-43500001D01*
X84799999Y-43500000D01*
X84293433Y-43500000D01*
X84293417Y-43500001D01*
X84222896Y-43506408D01*
X84222890Y-43506410D01*
X84060607Y-43556979D01*
X84060599Y-43556982D01*
X83915127Y-43644924D01*
X83794924Y-43765127D01*
X83706982Y-43910599D01*
X83706979Y-43910607D01*
X83656410Y-44072889D01*
X83656408Y-44072895D01*
X83650000Y-44143418D01*
X83050500Y-44143418D01*
X83050500Y-44130253D01*
X83050498Y-44130241D01*
X83047711Y-44116231D01*
X83038867Y-44071769D01*
X82994552Y-44005448D01*
X82994548Y-44005445D01*
X82928233Y-43961134D01*
X82928231Y-43961133D01*
X82928228Y-43961132D01*
X82928227Y-43961132D01*
X82869758Y-43949501D01*
X82869748Y-43949500D01*
X81130252Y-43949500D01*
X81130251Y-43949500D01*
X81130241Y-43949501D01*
X81071772Y-43961132D01*
X81071766Y-43961134D01*
X81005451Y-44005445D01*
X81005445Y-44005451D01*
X80961134Y-44071766D01*
X80961132Y-44071772D01*
X80949501Y-44130241D01*
X80949500Y-44130253D01*
X80390500Y-44130253D01*
X80390500Y-43108000D01*
X80409407Y-43049809D01*
X80458907Y-43013845D01*
X80489500Y-43009000D01*
X89039563Y-43009000D01*
X89039563Y-43008999D01*
X89115989Y-42988521D01*
X89184511Y-42948960D01*
X89240460Y-42893011D01*
X89280021Y-42824489D01*
X89280321Y-42823370D01*
X89280772Y-42822674D01*
X89282503Y-42818497D01*
X89283277Y-42818817D01*
X89313648Y-42772058D01*
X89370771Y-42750135D01*
X89375946Y-42750000D01*
X97124721Y-42750000D01*
X97126589Y-42750607D01*
G37*
%TD.AperFunction*%
%TA.AperFunction,Conductor*%
G36*
X106071790Y-63942509D02*
G01*
X106105783Y-63993382D01*
X106109500Y-64020255D01*
X106109500Y-64603577D01*
X106090593Y-64661768D01*
X106041093Y-64697732D01*
X105979907Y-64697732D01*
X105965555Y-64691787D01*
X105856139Y-64636037D01*
X105674818Y-64577122D01*
X105486526Y-64547300D01*
X104930001Y-64547300D01*
X104930000Y-64547301D01*
X104930000Y-65325488D01*
X104872993Y-65292575D01*
X104745826Y-65258500D01*
X104614174Y-65258500D01*
X104487007Y-65292575D01*
X104430000Y-65325488D01*
X104430000Y-64547301D01*
X104429999Y-64547300D01*
X103873474Y-64547300D01*
X103685181Y-64577122D01*
X103503860Y-64636037D01*
X103395445Y-64691277D01*
X103335012Y-64700848D01*
X103280496Y-64673070D01*
X103252719Y-64618554D01*
X103251500Y-64603067D01*
X103251500Y-64020923D01*
X103270407Y-63962732D01*
X103319907Y-63926768D01*
X103381093Y-63926768D01*
X103405501Y-63938607D01*
X103536948Y-64026438D01*
X103702867Y-64095164D01*
X103879005Y-64130200D01*
X103879006Y-64130200D01*
X105480994Y-64130200D01*
X105480995Y-64130200D01*
X105657133Y-64095164D01*
X105823052Y-64026438D01*
X105955498Y-63937940D01*
X106014387Y-63921331D01*
X106071790Y-63942509D01*
G37*
%TD.AperFunction*%
%TA.AperFunction,Conductor*%
G36*
X104930000Y-56809699D02*
G01*
X104930001Y-56809700D01*
X105486526Y-56809700D01*
X105674818Y-56779877D01*
X105856142Y-56720961D01*
X105965554Y-56665213D01*
X106025986Y-56655641D01*
X106080503Y-56683418D01*
X106108281Y-56737934D01*
X106109500Y-56753422D01*
X106109500Y-57336744D01*
X106090593Y-57394935D01*
X106041093Y-57430899D01*
X105979907Y-57430899D01*
X105955499Y-57419060D01*
X105885506Y-57372293D01*
X105823052Y-57330562D01*
X105823049Y-57330560D01*
X105823048Y-57330560D01*
X105657133Y-57261836D01*
X105480997Y-57226800D01*
X105480995Y-57226800D01*
X103879005Y-57226800D01*
X103879002Y-57226800D01*
X103702867Y-57261836D01*
X103702865Y-57261836D01*
X103536951Y-57330560D01*
X103405501Y-57418392D01*
X103346613Y-57435000D01*
X103289209Y-57413822D01*
X103255217Y-57362948D01*
X103251500Y-57336076D01*
X103251500Y-56753932D01*
X103270407Y-56695741D01*
X103319907Y-56659777D01*
X103381093Y-56659777D01*
X103395445Y-56665722D01*
X103503860Y-56720962D01*
X103685181Y-56779877D01*
X103873474Y-56809700D01*
X104429999Y-56809700D01*
X104430000Y-56809699D01*
X104430000Y-56031512D01*
X104487007Y-56064425D01*
X104614174Y-56098500D01*
X104745826Y-56098500D01*
X104872993Y-56064425D01*
X104930000Y-56031512D01*
X104930000Y-56809699D01*
G37*
%TD.AperFunction*%
%TA.AperFunction,Conductor*%
G36*
X106071790Y-53782509D02*
G01*
X106105783Y-53833382D01*
X106109500Y-53860255D01*
X106109500Y-54443577D01*
X106090593Y-54501768D01*
X106041093Y-54537732D01*
X105979907Y-54537732D01*
X105965555Y-54531787D01*
X105856139Y-54476037D01*
X105674818Y-54417122D01*
X105486526Y-54387300D01*
X104930001Y-54387300D01*
X104930000Y-54387301D01*
X104930000Y-55165488D01*
X104872993Y-55132575D01*
X104745826Y-55098500D01*
X104614174Y-55098500D01*
X104487007Y-55132575D01*
X104430000Y-55165488D01*
X104430000Y-54387301D01*
X104429999Y-54387300D01*
X103873474Y-54387300D01*
X103685181Y-54417122D01*
X103503860Y-54476037D01*
X103395445Y-54531277D01*
X103335012Y-54540848D01*
X103280496Y-54513070D01*
X103252719Y-54458554D01*
X103251500Y-54443067D01*
X103251500Y-53860923D01*
X103270407Y-53802732D01*
X103319907Y-53766768D01*
X103381093Y-53766768D01*
X103405501Y-53778607D01*
X103536948Y-53866438D01*
X103702867Y-53935164D01*
X103879005Y-53970200D01*
X103879006Y-53970200D01*
X105480994Y-53970200D01*
X105480995Y-53970200D01*
X105657133Y-53935164D01*
X105823052Y-53866438D01*
X105955498Y-53777940D01*
X106014387Y-53761331D01*
X106071790Y-53782509D01*
G37*
%TD.AperFunction*%
%TD*%
M02*
