%TF.GenerationSoftware,KiCad,Pcbnew,9.0.6*%
%TF.CreationDate,2025-12-01T19:29:45+01:00*%
%TF.ProjectId,_SSDV,b5535344-562e-46b6-9963-61645f706362,0.1*%
%TF.SameCoordinates,Original*%
%TF.FileFunction,Legend,Bot*%
%TF.FilePolarity,Positive*%
%FSLAX46Y46*%
G04 Gerber Fmt 4.6, Leading zero omitted, Abs format (unit mm)*
G04 Created by KiCad (PCBNEW 9.0.6) date 2025-12-01 19:29:45*
%MOMM*%
%LPD*%
G01*
G04 APERTURE LIST*
%ADD10C,0.300000*%
%ADD11C,0.150000*%
G04 APERTURE END LIST*
D10*
X98304510Y-47520600D02*
X99447368Y-47520600D01*
X98875939Y-46949171D02*
X98875939Y-48092028D01*
X101304510Y-47520600D02*
X102447368Y-47520600D01*
X102195489Y-50220996D02*
X102195489Y-51720996D01*
X101481203Y-51006710D02*
X101409774Y-51149568D01*
X101409774Y-51149568D02*
X101266917Y-51220996D01*
X102195489Y-51006710D02*
X102124060Y-51149568D01*
X102124060Y-51149568D02*
X101981203Y-51220996D01*
X101981203Y-51220996D02*
X101695489Y-51220996D01*
X101695489Y-51220996D02*
X101552632Y-51149568D01*
X101552632Y-51149568D02*
X101481203Y-51006710D01*
X101481203Y-51006710D02*
X101481203Y-50220996D01*
X100695488Y-51149568D02*
X100481203Y-51220996D01*
X100481203Y-51220996D02*
X100124060Y-51220996D01*
X100124060Y-51220996D02*
X99981203Y-51149568D01*
X99981203Y-51149568D02*
X99909774Y-51078139D01*
X99909774Y-51078139D02*
X99838345Y-50935282D01*
X99838345Y-50935282D02*
X99838345Y-50792425D01*
X99838345Y-50792425D02*
X99909774Y-50649568D01*
X99909774Y-50649568D02*
X99981203Y-50578139D01*
X99981203Y-50578139D02*
X100124060Y-50506710D01*
X100124060Y-50506710D02*
X100409774Y-50435282D01*
X100409774Y-50435282D02*
X100552631Y-50363853D01*
X100552631Y-50363853D02*
X100624060Y-50292425D01*
X100624060Y-50292425D02*
X100695488Y-50149568D01*
X100695488Y-50149568D02*
X100695488Y-50006710D01*
X100695488Y-50006710D02*
X100624060Y-49863853D01*
X100624060Y-49863853D02*
X100552631Y-49792425D01*
X100552631Y-49792425D02*
X100409774Y-49720996D01*
X100409774Y-49720996D02*
X100052631Y-49720996D01*
X100052631Y-49720996D02*
X99838345Y-49792425D01*
X99266917Y-51149568D02*
X99052632Y-51220996D01*
X99052632Y-51220996D02*
X98695489Y-51220996D01*
X98695489Y-51220996D02*
X98552632Y-51149568D01*
X98552632Y-51149568D02*
X98481203Y-51078139D01*
X98481203Y-51078139D02*
X98409774Y-50935282D01*
X98409774Y-50935282D02*
X98409774Y-50792425D01*
X98409774Y-50792425D02*
X98481203Y-50649568D01*
X98481203Y-50649568D02*
X98552632Y-50578139D01*
X98552632Y-50578139D02*
X98695489Y-50506710D01*
X98695489Y-50506710D02*
X98981203Y-50435282D01*
X98981203Y-50435282D02*
X99124060Y-50363853D01*
X99124060Y-50363853D02*
X99195489Y-50292425D01*
X99195489Y-50292425D02*
X99266917Y-50149568D01*
X99266917Y-50149568D02*
X99266917Y-50006710D01*
X99266917Y-50006710D02*
X99195489Y-49863853D01*
X99195489Y-49863853D02*
X99124060Y-49792425D01*
X99124060Y-49792425D02*
X98981203Y-49720996D01*
X98981203Y-49720996D02*
X98624060Y-49720996D01*
X98624060Y-49720996D02*
X98409774Y-49792425D01*
X97766918Y-51220996D02*
X97766918Y-49720996D01*
X97766918Y-49720996D02*
X97409775Y-49720996D01*
X97409775Y-49720996D02*
X97195489Y-49792425D01*
X97195489Y-49792425D02*
X97052632Y-49935282D01*
X97052632Y-49935282D02*
X96981203Y-50078139D01*
X96981203Y-50078139D02*
X96909775Y-50363853D01*
X96909775Y-50363853D02*
X96909775Y-50578139D01*
X96909775Y-50578139D02*
X96981203Y-50863853D01*
X96981203Y-50863853D02*
X97052632Y-51006710D01*
X97052632Y-51006710D02*
X97195489Y-51149568D01*
X97195489Y-51149568D02*
X97409775Y-51220996D01*
X97409775Y-51220996D02*
X97766918Y-51220996D01*
X96481203Y-49720996D02*
X95981203Y-51220996D01*
X95981203Y-51220996D02*
X95481203Y-49720996D01*
X100981203Y-52493055D02*
X101124060Y-52421626D01*
X101124060Y-52421626D02*
X101409774Y-52421626D01*
X101409774Y-52421626D02*
X101552632Y-52493055D01*
X101552632Y-52493055D02*
X101695489Y-52635912D01*
X101695489Y-52635912D02*
X101766917Y-52778769D01*
X101766917Y-52778769D02*
X101766917Y-53064484D01*
X101766917Y-53064484D02*
X101695489Y-53207341D01*
X101695489Y-53207341D02*
X101552632Y-53350198D01*
X101552632Y-53350198D02*
X101409774Y-53421626D01*
X101409774Y-53421626D02*
X101124060Y-53421626D01*
X101124060Y-53421626D02*
X100981203Y-53350198D01*
X101266917Y-51921626D02*
X101624060Y-51993055D01*
X101624060Y-51993055D02*
X101981203Y-52207341D01*
X101981203Y-52207341D02*
X102195489Y-52564484D01*
X102195489Y-52564484D02*
X102266917Y-52921626D01*
X102266917Y-52921626D02*
X102195489Y-53278769D01*
X102195489Y-53278769D02*
X101981203Y-53635912D01*
X101981203Y-53635912D02*
X101624060Y-53850198D01*
X101624060Y-53850198D02*
X101266917Y-53921626D01*
X101266917Y-53921626D02*
X100909774Y-53850198D01*
X100909774Y-53850198D02*
X100552632Y-53635912D01*
X100552632Y-53635912D02*
X100338346Y-53278769D01*
X100338346Y-53278769D02*
X100266917Y-52921626D01*
X100266917Y-52921626D02*
X100338346Y-52564484D01*
X100338346Y-52564484D02*
X100552632Y-52207341D01*
X100552632Y-52207341D02*
X100909774Y-51993055D01*
X100909774Y-51993055D02*
X101266917Y-51921626D01*
X98481203Y-53635912D02*
X98481203Y-52135912D01*
X98481203Y-52135912D02*
X97981203Y-53207341D01*
X97981203Y-53207341D02*
X97481203Y-52135912D01*
X97481203Y-52135912D02*
X97481203Y-53635912D01*
X96766917Y-53635912D02*
X96766917Y-52635912D01*
X96766917Y-52135912D02*
X96838345Y-52207341D01*
X96838345Y-52207341D02*
X96766917Y-52278769D01*
X96766917Y-52278769D02*
X96695488Y-52207341D01*
X96695488Y-52207341D02*
X96766917Y-52135912D01*
X96766917Y-52135912D02*
X96766917Y-52278769D01*
X96052631Y-53635912D02*
X96052631Y-52135912D01*
X95909774Y-53064484D02*
X95481202Y-53635912D01*
X95481202Y-52635912D02*
X96052631Y-53207341D01*
X94195488Y-53635912D02*
X94195488Y-52850198D01*
X94195488Y-52850198D02*
X94266916Y-52707341D01*
X94266916Y-52707341D02*
X94409773Y-52635912D01*
X94409773Y-52635912D02*
X94695488Y-52635912D01*
X94695488Y-52635912D02*
X94838345Y-52707341D01*
X94195488Y-53564484D02*
X94338345Y-53635912D01*
X94338345Y-53635912D02*
X94695488Y-53635912D01*
X94695488Y-53635912D02*
X94838345Y-53564484D01*
X94838345Y-53564484D02*
X94909773Y-53421626D01*
X94909773Y-53421626D02*
X94909773Y-53278769D01*
X94909773Y-53278769D02*
X94838345Y-53135912D01*
X94838345Y-53135912D02*
X94695488Y-53064484D01*
X94695488Y-53064484D02*
X94338345Y-53064484D01*
X94338345Y-53064484D02*
X94195488Y-52993055D01*
X92338345Y-53635912D02*
X92338345Y-52135912D01*
X91481202Y-53635912D02*
X92124059Y-52778769D01*
X91481202Y-52135912D02*
X92338345Y-52993055D01*
X90624059Y-53635912D02*
X90766916Y-53564484D01*
X90766916Y-53564484D02*
X90838345Y-53493055D01*
X90838345Y-53493055D02*
X90909773Y-53350198D01*
X90909773Y-53350198D02*
X90909773Y-52921626D01*
X90909773Y-52921626D02*
X90838345Y-52778769D01*
X90838345Y-52778769D02*
X90766916Y-52707341D01*
X90766916Y-52707341D02*
X90624059Y-52635912D01*
X90624059Y-52635912D02*
X90409773Y-52635912D01*
X90409773Y-52635912D02*
X90266916Y-52707341D01*
X90266916Y-52707341D02*
X90195488Y-52778769D01*
X90195488Y-52778769D02*
X90124059Y-52921626D01*
X90124059Y-52921626D02*
X90124059Y-53350198D01*
X90124059Y-53350198D02*
X90195488Y-53493055D01*
X90195488Y-53493055D02*
X90266916Y-53564484D01*
X90266916Y-53564484D02*
X90409773Y-53635912D01*
X90409773Y-53635912D02*
X90624059Y-53635912D01*
X90766916Y-52135912D02*
X90695488Y-52207341D01*
X90695488Y-52207341D02*
X90766916Y-52278769D01*
X90766916Y-52278769D02*
X90838345Y-52207341D01*
X90838345Y-52207341D02*
X90766916Y-52135912D01*
X90766916Y-52135912D02*
X90766916Y-52278769D01*
X90195488Y-52135912D02*
X90124059Y-52207341D01*
X90124059Y-52207341D02*
X90195488Y-52278769D01*
X90195488Y-52278769D02*
X90266916Y-52207341D01*
X90266916Y-52207341D02*
X90195488Y-52135912D01*
X90195488Y-52135912D02*
X90195488Y-52278769D01*
X88838345Y-53564484D02*
X88981202Y-53635912D01*
X88981202Y-53635912D02*
X89266916Y-53635912D01*
X89266916Y-53635912D02*
X89409773Y-53564484D01*
X89409773Y-53564484D02*
X89481202Y-53493055D01*
X89481202Y-53493055D02*
X89552630Y-53350198D01*
X89552630Y-53350198D02*
X89552630Y-52921626D01*
X89552630Y-52921626D02*
X89481202Y-52778769D01*
X89481202Y-52778769D02*
X89409773Y-52707341D01*
X89409773Y-52707341D02*
X89266916Y-52635912D01*
X89266916Y-52635912D02*
X88981202Y-52635912D01*
X88981202Y-52635912D02*
X88838345Y-52707341D01*
X88195488Y-53635912D02*
X88195488Y-52135912D01*
X87552631Y-53635912D02*
X87552631Y-52850198D01*
X87552631Y-52850198D02*
X87624059Y-52707341D01*
X87624059Y-52707341D02*
X87766916Y-52635912D01*
X87766916Y-52635912D02*
X87981202Y-52635912D01*
X87981202Y-52635912D02*
X88124059Y-52707341D01*
X88124059Y-52707341D02*
X88195488Y-52778769D01*
X86838345Y-53635912D02*
X86838345Y-52635912D01*
X86838345Y-52135912D02*
X86909773Y-52207341D01*
X86909773Y-52207341D02*
X86838345Y-52278769D01*
X86838345Y-52278769D02*
X86766916Y-52207341D01*
X86766916Y-52207341D02*
X86838345Y-52135912D01*
X86838345Y-52135912D02*
X86838345Y-52278769D01*
X86124059Y-52635912D02*
X86124059Y-53635912D01*
X86124059Y-52778769D02*
X86052630Y-52707341D01*
X86052630Y-52707341D02*
X85909773Y-52635912D01*
X85909773Y-52635912D02*
X85695487Y-52635912D01*
X85695487Y-52635912D02*
X85552630Y-52707341D01*
X85552630Y-52707341D02*
X85481202Y-52850198D01*
X85481202Y-52850198D02*
X85481202Y-53635912D01*
X84124059Y-52635912D02*
X84124059Y-53850198D01*
X84124059Y-53850198D02*
X84195487Y-53993055D01*
X84195487Y-53993055D02*
X84266916Y-54064484D01*
X84266916Y-54064484D02*
X84409773Y-54135912D01*
X84409773Y-54135912D02*
X84624059Y-54135912D01*
X84624059Y-54135912D02*
X84766916Y-54064484D01*
X84124059Y-53564484D02*
X84266916Y-53635912D01*
X84266916Y-53635912D02*
X84552630Y-53635912D01*
X84552630Y-53635912D02*
X84695487Y-53564484D01*
X84695487Y-53564484D02*
X84766916Y-53493055D01*
X84766916Y-53493055D02*
X84838344Y-53350198D01*
X84838344Y-53350198D02*
X84838344Y-52921626D01*
X84838344Y-52921626D02*
X84766916Y-52778769D01*
X84766916Y-52778769D02*
X84695487Y-52707341D01*
X84695487Y-52707341D02*
X84552630Y-52635912D01*
X84552630Y-52635912D02*
X84266916Y-52635912D01*
X84266916Y-52635912D02*
X84124059Y-52707341D01*
X101409774Y-56050828D02*
X102266917Y-56050828D01*
X101838346Y-56050828D02*
X101838346Y-54550828D01*
X101838346Y-54550828D02*
X101981203Y-54765114D01*
X101981203Y-54765114D02*
X102124060Y-54907971D01*
X102124060Y-54907971D02*
X102266917Y-54979400D01*
X99981203Y-56050828D02*
X100838346Y-56050828D01*
X100409775Y-56050828D02*
X100409775Y-54550828D01*
X100409775Y-54550828D02*
X100552632Y-54765114D01*
X100552632Y-54765114D02*
X100695489Y-54907971D01*
X100695489Y-54907971D02*
X100838346Y-54979400D01*
X99338347Y-55907971D02*
X99266918Y-55979400D01*
X99266918Y-55979400D02*
X99338347Y-56050828D01*
X99338347Y-56050828D02*
X99409775Y-55979400D01*
X99409775Y-55979400D02*
X99338347Y-55907971D01*
X99338347Y-55907971D02*
X99338347Y-56050828D01*
X98695489Y-54693685D02*
X98624061Y-54622257D01*
X98624061Y-54622257D02*
X98481204Y-54550828D01*
X98481204Y-54550828D02*
X98124061Y-54550828D01*
X98124061Y-54550828D02*
X97981204Y-54622257D01*
X97981204Y-54622257D02*
X97909775Y-54693685D01*
X97909775Y-54693685D02*
X97838346Y-54836542D01*
X97838346Y-54836542D02*
X97838346Y-54979400D01*
X97838346Y-54979400D02*
X97909775Y-55193685D01*
X97909775Y-55193685D02*
X98766918Y-56050828D01*
X98766918Y-56050828D02*
X97838346Y-56050828D01*
X96909775Y-54550828D02*
X96766918Y-54550828D01*
X96766918Y-54550828D02*
X96624061Y-54622257D01*
X96624061Y-54622257D02*
X96552633Y-54693685D01*
X96552633Y-54693685D02*
X96481204Y-54836542D01*
X96481204Y-54836542D02*
X96409775Y-55122257D01*
X96409775Y-55122257D02*
X96409775Y-55479400D01*
X96409775Y-55479400D02*
X96481204Y-55765114D01*
X96481204Y-55765114D02*
X96552633Y-55907971D01*
X96552633Y-55907971D02*
X96624061Y-55979400D01*
X96624061Y-55979400D02*
X96766918Y-56050828D01*
X96766918Y-56050828D02*
X96909775Y-56050828D01*
X96909775Y-56050828D02*
X97052633Y-55979400D01*
X97052633Y-55979400D02*
X97124061Y-55907971D01*
X97124061Y-55907971D02*
X97195490Y-55765114D01*
X97195490Y-55765114D02*
X97266918Y-55479400D01*
X97266918Y-55479400D02*
X97266918Y-55122257D01*
X97266918Y-55122257D02*
X97195490Y-54836542D01*
X97195490Y-54836542D02*
X97124061Y-54693685D01*
X97124061Y-54693685D02*
X97052633Y-54622257D01*
X97052633Y-54622257D02*
X96909775Y-54550828D01*
X95838347Y-54693685D02*
X95766919Y-54622257D01*
X95766919Y-54622257D02*
X95624062Y-54550828D01*
X95624062Y-54550828D02*
X95266919Y-54550828D01*
X95266919Y-54550828D02*
X95124062Y-54622257D01*
X95124062Y-54622257D02*
X95052633Y-54693685D01*
X95052633Y-54693685D02*
X94981204Y-54836542D01*
X94981204Y-54836542D02*
X94981204Y-54979400D01*
X94981204Y-54979400D02*
X95052633Y-55193685D01*
X95052633Y-55193685D02*
X95909776Y-56050828D01*
X95909776Y-56050828D02*
X94981204Y-56050828D01*
X93624062Y-54550828D02*
X94338348Y-54550828D01*
X94338348Y-54550828D02*
X94409776Y-55265114D01*
X94409776Y-55265114D02*
X94338348Y-55193685D01*
X94338348Y-55193685D02*
X94195491Y-55122257D01*
X94195491Y-55122257D02*
X93838348Y-55122257D01*
X93838348Y-55122257D02*
X93695491Y-55193685D01*
X93695491Y-55193685D02*
X93624062Y-55265114D01*
X93624062Y-55265114D02*
X93552633Y-55407971D01*
X93552633Y-55407971D02*
X93552633Y-55765114D01*
X93552633Y-55765114D02*
X93624062Y-55907971D01*
X93624062Y-55907971D02*
X93695491Y-55979400D01*
X93695491Y-55979400D02*
X93838348Y-56050828D01*
X93838348Y-56050828D02*
X94195491Y-56050828D01*
X94195491Y-56050828D02*
X94338348Y-55979400D01*
X94338348Y-55979400D02*
X94409776Y-55907971D01*
D11*
X87369047Y-45169104D02*
X86892857Y-45169104D01*
X87464285Y-45454819D02*
X87130952Y-44454819D01*
X87130952Y-44454819D02*
X86797619Y-45454819D01*
X86464285Y-45454819D02*
X86464285Y-44454819D01*
X86464285Y-44454819D02*
X85892857Y-45454819D01*
X85892857Y-45454819D02*
X85892857Y-44454819D01*
X85559523Y-44454819D02*
X84988095Y-44454819D01*
X85273809Y-45454819D02*
X85273809Y-44454819D01*
X84130952Y-45454819D02*
X84702380Y-45454819D01*
X84416666Y-45454819D02*
X84416666Y-44454819D01*
X84416666Y-44454819D02*
X84511904Y-44597676D01*
X84511904Y-44597676D02*
X84607142Y-44692914D01*
X84607142Y-44692914D02*
X84702380Y-44740533D01*
X96773810Y-44502438D02*
X96869048Y-44454819D01*
X96869048Y-44454819D02*
X97011905Y-44454819D01*
X97011905Y-44454819D02*
X97154762Y-44502438D01*
X97154762Y-44502438D02*
X97250000Y-44597676D01*
X97250000Y-44597676D02*
X97297619Y-44692914D01*
X97297619Y-44692914D02*
X97345238Y-44883390D01*
X97345238Y-44883390D02*
X97345238Y-45026247D01*
X97345238Y-45026247D02*
X97297619Y-45216723D01*
X97297619Y-45216723D02*
X97250000Y-45311961D01*
X97250000Y-45311961D02*
X97154762Y-45407200D01*
X97154762Y-45407200D02*
X97011905Y-45454819D01*
X97011905Y-45454819D02*
X96916667Y-45454819D01*
X96916667Y-45454819D02*
X96773810Y-45407200D01*
X96773810Y-45407200D02*
X96726191Y-45359580D01*
X96726191Y-45359580D02*
X96726191Y-45026247D01*
X96726191Y-45026247D02*
X96916667Y-45026247D01*
X96297619Y-45454819D02*
X96297619Y-44454819D01*
X96297619Y-44454819D02*
X95916667Y-44454819D01*
X95916667Y-44454819D02*
X95821429Y-44502438D01*
X95821429Y-44502438D02*
X95773810Y-44550057D01*
X95773810Y-44550057D02*
X95726191Y-44645295D01*
X95726191Y-44645295D02*
X95726191Y-44788152D01*
X95726191Y-44788152D02*
X95773810Y-44883390D01*
X95773810Y-44883390D02*
X95821429Y-44931009D01*
X95821429Y-44931009D02*
X95916667Y-44978628D01*
X95916667Y-44978628D02*
X96297619Y-44978628D01*
X95345238Y-45407200D02*
X95202381Y-45454819D01*
X95202381Y-45454819D02*
X94964286Y-45454819D01*
X94964286Y-45454819D02*
X94869048Y-45407200D01*
X94869048Y-45407200D02*
X94821429Y-45359580D01*
X94821429Y-45359580D02*
X94773810Y-45264342D01*
X94773810Y-45264342D02*
X94773810Y-45169104D01*
X94773810Y-45169104D02*
X94821429Y-45073866D01*
X94821429Y-45073866D02*
X94869048Y-45026247D01*
X94869048Y-45026247D02*
X94964286Y-44978628D01*
X94964286Y-44978628D02*
X95154762Y-44931009D01*
X95154762Y-44931009D02*
X95250000Y-44883390D01*
X95250000Y-44883390D02*
X95297619Y-44835771D01*
X95297619Y-44835771D02*
X95345238Y-44740533D01*
X95345238Y-44740533D02*
X95345238Y-44645295D01*
X95345238Y-44645295D02*
X95297619Y-44550057D01*
X95297619Y-44550057D02*
X95250000Y-44502438D01*
X95250000Y-44502438D02*
X95154762Y-44454819D01*
X95154762Y-44454819D02*
X94916667Y-44454819D01*
X94916667Y-44454819D02*
X94773810Y-44502438D01*
X93630952Y-45169104D02*
X93154762Y-45169104D01*
X93726190Y-45454819D02*
X93392857Y-44454819D01*
X93392857Y-44454819D02*
X93059524Y-45454819D01*
X92726190Y-44788152D02*
X92726190Y-45454819D01*
X92726190Y-44883390D02*
X92678571Y-44835771D01*
X92678571Y-44835771D02*
X92583333Y-44788152D01*
X92583333Y-44788152D02*
X92440476Y-44788152D01*
X92440476Y-44788152D02*
X92345238Y-44835771D01*
X92345238Y-44835771D02*
X92297619Y-44931009D01*
X92297619Y-44931009D02*
X92297619Y-45454819D01*
X91964285Y-44788152D02*
X91583333Y-44788152D01*
X91821428Y-44454819D02*
X91821428Y-45311961D01*
X91821428Y-45311961D02*
X91773809Y-45407200D01*
X91773809Y-45407200D02*
X91678571Y-45454819D01*
X91678571Y-45454819D02*
X91583333Y-45454819D01*
X90869047Y-45407200D02*
X90964285Y-45454819D01*
X90964285Y-45454819D02*
X91154761Y-45454819D01*
X91154761Y-45454819D02*
X91249999Y-45407200D01*
X91249999Y-45407200D02*
X91297618Y-45311961D01*
X91297618Y-45311961D02*
X91297618Y-44931009D01*
X91297618Y-44931009D02*
X91249999Y-44835771D01*
X91249999Y-44835771D02*
X91154761Y-44788152D01*
X91154761Y-44788152D02*
X90964285Y-44788152D01*
X90964285Y-44788152D02*
X90869047Y-44835771D01*
X90869047Y-44835771D02*
X90821428Y-44931009D01*
X90821428Y-44931009D02*
X90821428Y-45026247D01*
X90821428Y-45026247D02*
X91297618Y-45121485D01*
X90392856Y-44788152D02*
X90392856Y-45454819D01*
X90392856Y-44883390D02*
X90345237Y-44835771D01*
X90345237Y-44835771D02*
X90249999Y-44788152D01*
X90249999Y-44788152D02*
X90107142Y-44788152D01*
X90107142Y-44788152D02*
X90011904Y-44835771D01*
X90011904Y-44835771D02*
X89964285Y-44931009D01*
X89964285Y-44931009D02*
X89964285Y-45454819D01*
X89488094Y-44788152D02*
X89488094Y-45454819D01*
X89488094Y-44883390D02*
X89440475Y-44835771D01*
X89440475Y-44835771D02*
X89345237Y-44788152D01*
X89345237Y-44788152D02*
X89202380Y-44788152D01*
X89202380Y-44788152D02*
X89107142Y-44835771D01*
X89107142Y-44835771D02*
X89059523Y-44931009D01*
X89059523Y-44931009D02*
X89059523Y-45454819D01*
X88202380Y-45407200D02*
X88297618Y-45454819D01*
X88297618Y-45454819D02*
X88488094Y-45454819D01*
X88488094Y-45454819D02*
X88583332Y-45407200D01*
X88583332Y-45407200D02*
X88630951Y-45311961D01*
X88630951Y-45311961D02*
X88630951Y-44931009D01*
X88630951Y-44931009D02*
X88583332Y-44835771D01*
X88583332Y-44835771D02*
X88488094Y-44788152D01*
X88488094Y-44788152D02*
X88297618Y-44788152D01*
X88297618Y-44788152D02*
X88202380Y-44835771D01*
X88202380Y-44835771D02*
X88154761Y-44931009D01*
X88154761Y-44931009D02*
X88154761Y-45026247D01*
X88154761Y-45026247D02*
X88630951Y-45121485D01*
M02*
