%TF.GenerationSoftware,KiCad,Pcbnew,9.0.6*%
%TF.CreationDate,2025-12-01T19:29:45+01:00*%
%TF.ProjectId,_SSDV,b5535344-562e-46b6-9963-61645f706362,0.1*%
%TF.SameCoordinates,Original*%
%TF.FileFunction,Soldermask,Top*%
%TF.FilePolarity,Negative*%
%FSLAX46Y46*%
G04 Gerber Fmt 4.6, Leading zero omitted, Abs format (unit mm)*
G04 Created by KiCad (PCBNEW 9.0.6) date 2025-12-01 19:29:45*
%MOMM*%
%LPD*%
G01*
G04 APERTURE LIST*
G04 Aperture macros list*
%AMRoundRect*
0 Rectangle with rounded corners*
0 $1 Rounding radius*
0 $2 $3 $4 $5 $6 $7 $8 $9 X,Y pos of 4 corners*
0 Add a 4 corners polygon primitive as box body*
4,1,4,$2,$3,$4,$5,$6,$7,$8,$9,$2,$3,0*
0 Add four circle primitives for the rounded corners*
1,1,$1+$1,$2,$3*
1,1,$1+$1,$4,$5*
1,1,$1+$1,$6,$7*
1,1,$1+$1,$8,$9*
0 Add four rect primitives between the rounded corners*
20,1,$1+$1,$2,$3,$4,$5,0*
20,1,$1+$1,$4,$5,$6,$7,0*
20,1,$1+$1,$6,$7,$8,$9,0*
20,1,$1+$1,$8,$9,$2,$3,0*%
G04 Aperture macros list end*
%ADD10R,1.700000X1.700000*%
%ADD11RoundRect,0.200000X0.700000X0.200000X-0.700000X0.200000X-0.700000X-0.200000X0.700000X-0.200000X0*%
%ADD12RoundRect,0.237500X-0.237500X0.250000X-0.237500X-0.250000X0.237500X-0.250000X0.237500X0.250000X0*%
%ADD13RoundRect,0.237500X-0.300000X-0.237500X0.300000X-0.237500X0.300000X0.237500X-0.300000X0.237500X0*%
%ADD14C,1.700000*%
%ADD15RoundRect,0.237500X-0.250000X-0.237500X0.250000X-0.237500X0.250000X0.237500X-0.250000X0.237500X0*%
%ADD16O,3.048800X1.626400*%
%ADD17RoundRect,0.162500X0.162500X-0.617500X0.162500X0.617500X-0.162500X0.617500X-0.162500X-0.617500X0*%
%ADD18RoundRect,0.249999X-1.850001X0.450001X-1.850001X-0.450001X1.850001X-0.450001X1.850001X0.450001X0*%
%ADD19RoundRect,0.317500X-1.157500X-0.317500X1.157500X-0.317500X1.157500X0.317500X-1.157500X0.317500X0*%
%ADD20RoundRect,0.237500X-0.237500X0.300000X-0.237500X-0.300000X0.237500X-0.300000X0.237500X0.300000X0*%
G04 APERTURE END LIST*
D10*
%TO.C,ANT1*%
X82000000Y-45000000D03*
%TD*%
D11*
%TO.C,U2*%
X94750000Y-53200000D03*
X94750000Y-52100000D03*
X94750000Y-51000000D03*
X94750000Y-49900000D03*
X94750000Y-48800000D03*
X94750000Y-47700000D03*
X94750000Y-46600000D03*
X94750000Y-45500000D03*
X94750000Y-44400000D03*
X85050000Y-44400000D03*
X85050000Y-45500000D03*
X85050000Y-46600000D03*
X85050000Y-47700000D03*
X85050000Y-48800000D03*
X85050000Y-49900000D03*
X85050000Y-51000000D03*
X85050000Y-52100000D03*
X85050000Y-53200000D03*
%TD*%
D12*
%TO.C,R2*%
X100175000Y-55600000D03*
X100175000Y-57425000D03*
%TD*%
D13*
%TO.C,C3*%
X97312500Y-50850000D03*
X99037500Y-50850000D03*
%TD*%
D10*
%TO.C,J1*%
X101525000Y-45250000D03*
D14*
X98985000Y-45250000D03*
%TD*%
D15*
%TO.C,R1*%
X97512500Y-54100000D03*
X99337500Y-54100000D03*
%TD*%
D16*
%TO.C,U1*%
X81820000Y-47978500D03*
X81820000Y-50518500D03*
X81820000Y-53058500D03*
X81820000Y-55598500D03*
X81820000Y-58138500D03*
X81820000Y-60678500D03*
X81820000Y-63218500D03*
X81820000Y-65758500D03*
X104680000Y-65758500D03*
X104680000Y-63218500D03*
X104680000Y-60678500D03*
X104680000Y-58138500D03*
X104680000Y-55598500D03*
X104680000Y-53058500D03*
X104680000Y-50518500D03*
X104680000Y-47978500D03*
%TD*%
D17*
%TO.C,U4*%
X96525000Y-58800000D03*
X97475000Y-58800000D03*
X98425000Y-58800000D03*
X98425000Y-56100000D03*
X97475000Y-56100000D03*
X96525000Y-56100000D03*
%TD*%
D10*
%TO.C,ANT2*%
X93250000Y-80500000D03*
%TD*%
D18*
%TO.C,L1*%
X91925000Y-55500000D03*
X91925000Y-59200000D03*
%TD*%
D19*
%TO.C,U3*%
X85725000Y-62500000D03*
X85725000Y-64500000D03*
X85725000Y-66500000D03*
X85725000Y-68500000D03*
X85725000Y-70500000D03*
X85725000Y-72500000D03*
X85725000Y-74500000D03*
X85725000Y-76500000D03*
X100775000Y-76500000D03*
X100775000Y-74500000D03*
X100775000Y-72500000D03*
X100775000Y-70500000D03*
X100775000Y-68500000D03*
X100775000Y-66500000D03*
X100775000Y-64500000D03*
X100775000Y-62500000D03*
%TD*%
D20*
%TO.C,C2*%
X88175000Y-55487500D03*
X88175000Y-57212500D03*
%TD*%
M02*
