M48
; DRILL file {KiCad 9.0.6} date 2025-12-01T19:29:42+0100
; FORMAT={-:-/ absolute / metric / decimal}
; #@! TF.CreationDate,2025-12-01T19:29:42+01:00
; #@! TF.GenerationSoftware,Kicad,Pcbnew,9.0.6
; #@! TF.FileFunction,Plated,1,2,PTH
FMAT,2
METRIC
; #@! TA.AperFunction,Plated,PTH,ViaDrill
T1C0.300
; #@! TA.AperFunction,Plated,PTH,ComponentDrill
T2C1.000
%
G90
G05
T1
X81.75Y-70.0
X82.0Y-75.75
X84.0Y-67.5
X86.25Y-80.0
X87.0Y-59.75
X88.0Y-63.25
X89.75Y-77.25
X90.0Y-46.0
X90.25Y-51.0
X91.25Y-64.25
X91.25Y-71.0
X94.662Y-55.587
X95.175Y-55.0
X95.175Y-56.1
X95.25Y-74.0
X95.75Y-55.5
X97.25Y-61.5
X97.25Y-67.25
X98.0Y-49.0
X100.5Y-59.75
X100.75Y-54.0
X101.25Y-52.75
X104.75Y-45.0
T2
X81.82Y-47.978
X81.82Y-50.518
X81.82Y-53.058
X81.82Y-55.598
X81.82Y-58.139
X81.82Y-60.678
X81.82Y-63.218
X81.82Y-65.758
X82.0Y-45.0
X93.25Y-80.5
X98.985Y-45.25
X101.525Y-45.25
X104.68Y-47.978
X104.68Y-50.518
X104.68Y-53.058
X104.68Y-55.598
X104.68Y-58.139
X104.68Y-60.678
X104.68Y-63.218
X104.68Y-65.758
M30
