%TF.GenerationSoftware,KiCad,Pcbnew,9.0.6*%
%TF.CreationDate,2025-12-01T19:29:45+01:00*%
%TF.ProjectId,_SSDV,b5535344-562e-46b6-9963-61645f706362,0.1*%
%TF.SameCoordinates,Original*%
%TF.FileFunction,Copper,L2,Bot*%
%TF.FilePolarity,Positive*%
%FSLAX46Y46*%
G04 Gerber Fmt 4.6, Leading zero omitted, Abs format (unit mm)*
G04 Created by KiCad (PCBNEW 9.0.6) date 2025-12-01 19:29:45*
%MOMM*%
%LPD*%
G01*
G04 APERTURE LIST*
%TA.AperFunction,ComponentPad*%
%ADD10R,1.700000X1.700000*%
%TD*%
%TA.AperFunction,ComponentPad*%
%ADD11C,1.700000*%
%TD*%
%TA.AperFunction,ComponentPad*%
%ADD12O,2.844800X1.422400*%
%TD*%
%TA.AperFunction,ViaPad*%
%ADD13C,0.600000*%
%TD*%
%TA.AperFunction,Conductor*%
%ADD14C,0.200000*%
%TD*%
%TA.AperFunction,Conductor*%
%ADD15C,1.000000*%
%TD*%
G04 APERTURE END LIST*
D10*
%TO.P,ANT1,1,1*%
%TO.N,Net-(U2-RF_IN)*%
X82000000Y-45000000D03*
%TD*%
%TO.P,J1,1,Pin_1*%
%TO.N,GND*%
X101525000Y-45250000D03*
D11*
%TO.P,J1,2,Pin_2*%
%TO.N,+BATT*%
X98985000Y-45250000D03*
%TD*%
D12*
%TO.P,U1,P$1,5V*%
%TO.N,unconnected-(U1-5V-PadP$1)*%
X81820000Y-47978500D03*
%TO.P,U1,P$2,GND*%
%TO.N,GND*%
X81820000Y-50518500D03*
%TO.P,U1,P$3,IO12*%
%TO.N,MISO*%
X81820000Y-53058500D03*
%TO.P,U1,P$4,IO13*%
%TO.N,MOSI*%
X81820000Y-55598500D03*
%TO.P,U1,P$5,IO15*%
%TO.N,CS*%
X81820000Y-58138500D03*
%TO.P,U1,P$6,IO14*%
%TO.N,SCK*%
X81820000Y-60678500D03*
%TO.P,U1,P$7,IO2*%
%TO.N,unconnected-(U1-IO2-PadP$7)*%
X81820000Y-63218500D03*
%TO.P,U1,P$8,IO4*%
%TO.N,unconnected-(U1-IO4-PadP$8)*%
X81820000Y-65758500D03*
%TO.P,U1,P$9,.GND*%
%TO.N,GND*%
X104680000Y-65758500D03*
%TO.P,U1,P$10,IO1/U0T*%
%TO.N,TX*%
X104680000Y-63218500D03*
%TO.P,U1,P$11,IO3/U0R*%
%TO.N,RX*%
X104680000Y-60678500D03*
%TO.P,U1,P$12,3V3.*%
%TO.N,unconnected-(U1-3V3.-PadP$12)*%
X104680000Y-58138500D03*
%TO.P,U1,P$13,GND.*%
%TO.N,GND*%
X104680000Y-55598500D03*
%TO.P,U1,P$14,IO0*%
%TO.N,IO0*%
X104680000Y-53058500D03*
%TO.P,U1,P$15,IO16*%
%TO.N,GPS_RX*%
X104680000Y-50518500D03*
%TO.P,U1,P$16,3V3*%
%TO.N,+3V3*%
X104680000Y-47978500D03*
%TD*%
D10*
%TO.P,ANT2,1,1*%
%TO.N,Net-(U3-ANT)*%
X93250000Y-80500000D03*
%TD*%
D13*
%TO.N,GPS_RX*%
X98000000Y-49000000D03*
%TO.N,+BATT*%
X95175000Y-56100000D03*
X95175000Y-55000000D03*
X95750000Y-55500000D03*
X94662500Y-55587500D03*
%TO.N,GND*%
X91250000Y-64250000D03*
X101250000Y-52750000D03*
X87000000Y-59750000D03*
X90250000Y-51000000D03*
X100500000Y-59750000D03*
X95250000Y-74000000D03*
X104750000Y-45000000D03*
X91250000Y-71000000D03*
X82000000Y-75750000D03*
X100750000Y-54000000D03*
X97250000Y-61500000D03*
X97250000Y-67250000D03*
X89750000Y-77250000D03*
X81750000Y-70000000D03*
X86250000Y-80000000D03*
X90000000Y-46000000D03*
%TO.N,CS*%
X88000000Y-63250000D03*
%TO.N,SCK*%
X84000000Y-67500000D03*
%TD*%
D14*
%TO.N,GPS_RX*%
X98000000Y-49000000D02*
X99518500Y-50518500D01*
X99518500Y-50518500D02*
X104680000Y-50518500D01*
%TO.N,SCK*%
X84000000Y-67500000D02*
X84000000Y-62858500D01*
X84000000Y-62858500D02*
X81820000Y-60678500D01*
D15*
%TO.N,+BATT*%
X95175000Y-56100000D02*
X94662500Y-55587500D01*
X94662500Y-55587500D02*
X94662500Y-55512500D01*
X95750000Y-55500000D02*
X95675000Y-55500000D01*
X95675000Y-55500000D02*
X95175000Y-55000000D01*
X95175000Y-49060000D02*
X98985000Y-45250000D01*
X95750000Y-55500000D02*
X95750000Y-55525000D01*
X95750000Y-55525000D02*
X95175000Y-56100000D01*
X95175000Y-56100000D02*
X95175000Y-55000000D01*
X94662500Y-55512500D02*
X95175000Y-55000000D01*
X95175000Y-55000000D02*
X95175000Y-49060000D01*
D14*
%TO.N,CS*%
X82888500Y-58138500D02*
X81820000Y-58138500D01*
X88000000Y-63250000D02*
X82888500Y-58138500D01*
%TD*%
%TA.AperFunction,Conductor*%
%TO.N,GND*%
G36*
X97126589Y-42750607D02*
G01*
X97128481Y-42750071D01*
X97155521Y-42760007D01*
X97182912Y-42768907D01*
X97184067Y-42770497D01*
X97185912Y-42771175D01*
X97201941Y-42795098D01*
X97217293Y-42816229D01*
X97217584Y-42816111D01*
X97217817Y-42816681D01*
X97217828Y-42816837D01*
X97217956Y-42817141D01*
X97218876Y-42818407D01*
X97219801Y-42821532D01*
X97219972Y-42821945D01*
X97240049Y-42856720D01*
X97240069Y-42856755D01*
X97240071Y-42856757D01*
X97259488Y-42890410D01*
X97259518Y-42890440D01*
X97259540Y-42890478D01*
X97287435Y-42918373D01*
X97287447Y-42918397D01*
X97287453Y-42918392D01*
X97315419Y-42946373D01*
X97315421Y-42946375D01*
X97315423Y-42946376D01*
X97315482Y-42946421D01*
X97315484Y-42946422D01*
X97315489Y-42946427D01*
X97345042Y-42963489D01*
X97349087Y-42965825D01*
X97349107Y-42965837D01*
X97383933Y-42985956D01*
X97383999Y-42985983D01*
X97384005Y-42985984D01*
X97384011Y-42985988D01*
X97421769Y-42996105D01*
X97421790Y-42996119D01*
X97421792Y-42996112D01*
X97435927Y-42999903D01*
X97460353Y-43006456D01*
X97460358Y-43006456D01*
X97460436Y-43006466D01*
X97460438Y-43006467D01*
X97460439Y-43006467D01*
X97499054Y-43006467D01*
X106010530Y-43008885D01*
X106068713Y-43027809D01*
X106104663Y-43077319D01*
X106109500Y-43107885D01*
X106109500Y-47176744D01*
X106090593Y-47234935D01*
X106041093Y-47270899D01*
X105979907Y-47270899D01*
X105955499Y-47259060D01*
X105885506Y-47212293D01*
X105823052Y-47170562D01*
X105823049Y-47170560D01*
X105823048Y-47170560D01*
X105657133Y-47101836D01*
X105480997Y-47066800D01*
X105480995Y-47066800D01*
X103879005Y-47066800D01*
X103879002Y-47066800D01*
X103702867Y-47101836D01*
X103702865Y-47101836D01*
X103536950Y-47170560D01*
X103536949Y-47170560D01*
X103387625Y-47270336D01*
X103260636Y-47397325D01*
X103160860Y-47546649D01*
X103160860Y-47546650D01*
X103092136Y-47712565D01*
X103092136Y-47712567D01*
X103057100Y-47888702D01*
X103057100Y-48068297D01*
X103092136Y-48244432D01*
X103092136Y-48244434D01*
X103160860Y-48410349D01*
X103160860Y-48410350D01*
X103220429Y-48499500D01*
X103260637Y-48559675D01*
X103387625Y-48686663D01*
X103536948Y-48786438D01*
X103702867Y-48855164D01*
X103879005Y-48890200D01*
X103879006Y-48890200D01*
X105480994Y-48890200D01*
X105480995Y-48890200D01*
X105657133Y-48855164D01*
X105823052Y-48786438D01*
X105955498Y-48697940D01*
X106014387Y-48681331D01*
X106071790Y-48702509D01*
X106105783Y-48753382D01*
X106109500Y-48780255D01*
X106109500Y-49716744D01*
X106090593Y-49774935D01*
X106041093Y-49810899D01*
X105979907Y-49810899D01*
X105955499Y-49799060D01*
X105851330Y-49729457D01*
X105823052Y-49710562D01*
X105823049Y-49710560D01*
X105823048Y-49710560D01*
X105657133Y-49641836D01*
X105480997Y-49606800D01*
X105480995Y-49606800D01*
X103879005Y-49606800D01*
X103879002Y-49606800D01*
X103702867Y-49641836D01*
X103702865Y-49641836D01*
X103536950Y-49710560D01*
X103536949Y-49710560D01*
X103387625Y-49810336D01*
X103260636Y-49937325D01*
X103160861Y-50086648D01*
X103131768Y-50156886D01*
X103092031Y-50203412D01*
X103040304Y-50218000D01*
X99683979Y-50218000D01*
X99625788Y-50199093D01*
X99613975Y-50189004D01*
X98529496Y-49104525D01*
X98501719Y-49050008D01*
X98500500Y-49034521D01*
X98500500Y-48934109D01*
X98488735Y-48890200D01*
X98466392Y-48806814D01*
X98466390Y-48806811D01*
X98466390Y-48806809D01*
X98400503Y-48692690D01*
X98400501Y-48692688D01*
X98400500Y-48692686D01*
X98307314Y-48599500D01*
X98307311Y-48599498D01*
X98307309Y-48599496D01*
X98193189Y-48533609D01*
X98193191Y-48533609D01*
X98143799Y-48520375D01*
X98065892Y-48499500D01*
X97934108Y-48499500D01*
X97856200Y-48520375D01*
X97806809Y-48533609D01*
X97692690Y-48599496D01*
X97599496Y-48692690D01*
X97533609Y-48806809D01*
X97533608Y-48806814D01*
X97499500Y-48934108D01*
X97499500Y-49065892D01*
X97509852Y-49104525D01*
X97533609Y-49193190D01*
X97599496Y-49307309D01*
X97599498Y-49307311D01*
X97599500Y-49307314D01*
X97692686Y-49400500D01*
X97692688Y-49400501D01*
X97692690Y-49400503D01*
X97806810Y-49466390D01*
X97806808Y-49466390D01*
X97806812Y-49466391D01*
X97806814Y-49466392D01*
X97934108Y-49500500D01*
X97934110Y-49500500D01*
X98034521Y-49500500D01*
X98092712Y-49519407D01*
X98104525Y-49529496D01*
X99278040Y-50703011D01*
X99278039Y-50703011D01*
X99333989Y-50758960D01*
X99402507Y-50798519D01*
X99402511Y-50798521D01*
X99478935Y-50818999D01*
X99478937Y-50819000D01*
X99478938Y-50819000D01*
X103040304Y-50819000D01*
X103098495Y-50837907D01*
X103131768Y-50880114D01*
X103160861Y-50950351D01*
X103160862Y-50950352D01*
X103260637Y-51099675D01*
X103387625Y-51226663D01*
X103536948Y-51326438D01*
X103702867Y-51395164D01*
X103879005Y-51430200D01*
X103879006Y-51430200D01*
X105480994Y-51430200D01*
X105480995Y-51430200D01*
X105657133Y-51395164D01*
X105823052Y-51326438D01*
X105955498Y-51237940D01*
X106014387Y-51221331D01*
X106071790Y-51242509D01*
X106105783Y-51293382D01*
X106109500Y-51320255D01*
X106109500Y-52256744D01*
X106090593Y-52314935D01*
X106041093Y-52350899D01*
X105979907Y-52350899D01*
X105955499Y-52339060D01*
X105885506Y-52292293D01*
X105823052Y-52250562D01*
X105823049Y-52250560D01*
X105823048Y-52250560D01*
X105657133Y-52181836D01*
X105480997Y-52146800D01*
X105480995Y-52146800D01*
X103879005Y-52146800D01*
X103879002Y-52146800D01*
X103702867Y-52181836D01*
X103702865Y-52181836D01*
X103536950Y-52250560D01*
X103536949Y-52250560D01*
X103387625Y-52350336D01*
X103260636Y-52477325D01*
X103160860Y-52626649D01*
X103160860Y-52626650D01*
X103092136Y-52792565D01*
X103092136Y-52792567D01*
X103057100Y-52968702D01*
X103057100Y-53148297D01*
X103092136Y-53324432D01*
X103092136Y-53324434D01*
X103160860Y-53490349D01*
X103160860Y-53490350D01*
X103250499Y-53624503D01*
X103260637Y-53639675D01*
X103387625Y-53766663D01*
X103536948Y-53866438D01*
X103702867Y-53935164D01*
X103879005Y-53970200D01*
X103879006Y-53970200D01*
X105480994Y-53970200D01*
X105480995Y-53970200D01*
X105657133Y-53935164D01*
X105823052Y-53866438D01*
X105955498Y-53777940D01*
X106014387Y-53761331D01*
X106071790Y-53782509D01*
X106105783Y-53833382D01*
X106109500Y-53860255D01*
X106109500Y-54443577D01*
X106090593Y-54501768D01*
X106041093Y-54537732D01*
X105979907Y-54537732D01*
X105965555Y-54531787D01*
X105856139Y-54476037D01*
X105674818Y-54417122D01*
X105486526Y-54387300D01*
X104930001Y-54387300D01*
X104930000Y-54387301D01*
X104930000Y-55165488D01*
X104872993Y-55132575D01*
X104745826Y-55098500D01*
X104614174Y-55098500D01*
X104487007Y-55132575D01*
X104430000Y-55165488D01*
X104430000Y-54387301D01*
X104429999Y-54387300D01*
X103873474Y-54387300D01*
X103685181Y-54417122D01*
X103503860Y-54476037D01*
X103333995Y-54562587D01*
X103179757Y-54674648D01*
X103044948Y-54809457D01*
X102932887Y-54963695D01*
X102846337Y-55133560D01*
X102787422Y-55314881D01*
X102782098Y-55348499D01*
X102782099Y-55348500D01*
X104246988Y-55348500D01*
X104214075Y-55405507D01*
X104180000Y-55532674D01*
X104180000Y-55664326D01*
X104214075Y-55791493D01*
X104246988Y-55848500D01*
X102782099Y-55848500D01*
X102787422Y-55882118D01*
X102846337Y-56063439D01*
X102932887Y-56233304D01*
X103044948Y-56387542D01*
X103179757Y-56522351D01*
X103333995Y-56634412D01*
X103503860Y-56720962D01*
X103685181Y-56779877D01*
X103873474Y-56809700D01*
X104429999Y-56809700D01*
X104430000Y-56809699D01*
X104430000Y-56031512D01*
X104487007Y-56064425D01*
X104614174Y-56098500D01*
X104745826Y-56098500D01*
X104872993Y-56064425D01*
X104930000Y-56031512D01*
X104930000Y-56809699D01*
X104930001Y-56809700D01*
X105486526Y-56809700D01*
X105674818Y-56779877D01*
X105856142Y-56720961D01*
X105965554Y-56665213D01*
X106025986Y-56655641D01*
X106080503Y-56683418D01*
X106108281Y-56737934D01*
X106109500Y-56753422D01*
X106109500Y-57336744D01*
X106090593Y-57394935D01*
X106041093Y-57430899D01*
X105979907Y-57430899D01*
X105955499Y-57419060D01*
X105885506Y-57372293D01*
X105823052Y-57330562D01*
X105823049Y-57330560D01*
X105823048Y-57330560D01*
X105657133Y-57261836D01*
X105480997Y-57226800D01*
X105480995Y-57226800D01*
X103879005Y-57226800D01*
X103879002Y-57226800D01*
X103702867Y-57261836D01*
X103702865Y-57261836D01*
X103536950Y-57330560D01*
X103536949Y-57330560D01*
X103387625Y-57430336D01*
X103260636Y-57557325D01*
X103160860Y-57706649D01*
X103160860Y-57706650D01*
X103092136Y-57872565D01*
X103092136Y-57872567D01*
X103057100Y-58048702D01*
X103057100Y-58228297D01*
X103092136Y-58404432D01*
X103092136Y-58404434D01*
X103160860Y-58570349D01*
X103160860Y-58570350D01*
X103250499Y-58704503D01*
X103260637Y-58719675D01*
X103387625Y-58846663D01*
X103536948Y-58946438D01*
X103702867Y-59015164D01*
X103879005Y-59050200D01*
X103879006Y-59050200D01*
X105480994Y-59050200D01*
X105480995Y-59050200D01*
X105657133Y-59015164D01*
X105823052Y-58946438D01*
X105955498Y-58857940D01*
X106014387Y-58841331D01*
X106071790Y-58862509D01*
X106105783Y-58913382D01*
X106109500Y-58940255D01*
X106109500Y-59876744D01*
X106090593Y-59934935D01*
X106041093Y-59970899D01*
X105979907Y-59970899D01*
X105955499Y-59959060D01*
X105885506Y-59912293D01*
X105823052Y-59870562D01*
X105823049Y-59870560D01*
X105823048Y-59870560D01*
X105657133Y-59801836D01*
X105480997Y-59766800D01*
X105480995Y-59766800D01*
X103879005Y-59766800D01*
X103879002Y-59766800D01*
X103702867Y-59801836D01*
X103702865Y-59801836D01*
X103536950Y-59870560D01*
X103536949Y-59870560D01*
X103387625Y-59970336D01*
X103260636Y-60097325D01*
X103160860Y-60246649D01*
X103160860Y-60246650D01*
X103092136Y-60412565D01*
X103092136Y-60412567D01*
X103057100Y-60588702D01*
X103057100Y-60768297D01*
X103092136Y-60944432D01*
X103092136Y-60944434D01*
X103160860Y-61110349D01*
X103160860Y-61110350D01*
X103250499Y-61244503D01*
X103260637Y-61259675D01*
X103387625Y-61386663D01*
X103536948Y-61486438D01*
X103702867Y-61555164D01*
X103879005Y-61590200D01*
X103879006Y-61590200D01*
X105480994Y-61590200D01*
X105480995Y-61590200D01*
X105657133Y-61555164D01*
X105823052Y-61486438D01*
X105955498Y-61397940D01*
X106014387Y-61381331D01*
X106071790Y-61402509D01*
X106105783Y-61453382D01*
X106109500Y-61480255D01*
X106109500Y-62416744D01*
X106090593Y-62474935D01*
X106041093Y-62510899D01*
X105979907Y-62510899D01*
X105955499Y-62499060D01*
X105885506Y-62452293D01*
X105823052Y-62410562D01*
X105823049Y-62410560D01*
X105823048Y-62410560D01*
X105657133Y-62341836D01*
X105480997Y-62306800D01*
X105480995Y-62306800D01*
X103879005Y-62306800D01*
X103879002Y-62306800D01*
X103702867Y-62341836D01*
X103702865Y-62341836D01*
X103536950Y-62410560D01*
X103536949Y-62410560D01*
X103387625Y-62510336D01*
X103260636Y-62637325D01*
X103160860Y-62786649D01*
X103160860Y-62786650D01*
X103092136Y-62952565D01*
X103092136Y-62952567D01*
X103057100Y-63128702D01*
X103057100Y-63308297D01*
X103058611Y-63315892D01*
X103083931Y-63443186D01*
X103092136Y-63484432D01*
X103092136Y-63484434D01*
X103160860Y-63650349D01*
X103160860Y-63650350D01*
X103227779Y-63750500D01*
X103260637Y-63799675D01*
X103387625Y-63926663D01*
X103536948Y-64026438D01*
X103702867Y-64095164D01*
X103879005Y-64130200D01*
X103879006Y-64130200D01*
X105480994Y-64130200D01*
X105480995Y-64130200D01*
X105657133Y-64095164D01*
X105823052Y-64026438D01*
X105955498Y-63937940D01*
X106014387Y-63921331D01*
X106071790Y-63942509D01*
X106105783Y-63993382D01*
X106109500Y-64020255D01*
X106109500Y-64603577D01*
X106090593Y-64661768D01*
X106041093Y-64697732D01*
X105979907Y-64697732D01*
X105965555Y-64691787D01*
X105856139Y-64636037D01*
X105674818Y-64577122D01*
X105486526Y-64547300D01*
X104930001Y-64547300D01*
X104930000Y-64547301D01*
X104930000Y-65325488D01*
X104872993Y-65292575D01*
X104745826Y-65258500D01*
X104614174Y-65258500D01*
X104487007Y-65292575D01*
X104430000Y-65325488D01*
X104430000Y-64547301D01*
X104429999Y-64547300D01*
X103873474Y-64547300D01*
X103685181Y-64577122D01*
X103503860Y-64636037D01*
X103333995Y-64722587D01*
X103179757Y-64834648D01*
X103044948Y-64969457D01*
X102932887Y-65123695D01*
X102846337Y-65293560D01*
X102787422Y-65474881D01*
X102782098Y-65508499D01*
X102782099Y-65508500D01*
X104246988Y-65508500D01*
X104214075Y-65565507D01*
X104180000Y-65692674D01*
X104180000Y-65824326D01*
X104214075Y-65951493D01*
X104246988Y-66008500D01*
X102782099Y-66008500D01*
X102787422Y-66042118D01*
X102846337Y-66223439D01*
X102932887Y-66393304D01*
X103044948Y-66547542D01*
X103179757Y-66682351D01*
X103333995Y-66794412D01*
X103503860Y-66880962D01*
X103685181Y-66939877D01*
X103873474Y-66969700D01*
X104429999Y-66969700D01*
X104430000Y-66969699D01*
X104430000Y-66191512D01*
X104487007Y-66224425D01*
X104614174Y-66258500D01*
X104745826Y-66258500D01*
X104872993Y-66224425D01*
X104930000Y-66191512D01*
X104930000Y-66969699D01*
X104930001Y-66969700D01*
X105486526Y-66969700D01*
X105674818Y-66939877D01*
X105856142Y-66880961D01*
X105965554Y-66825213D01*
X106025986Y-66815641D01*
X106080503Y-66843418D01*
X106108281Y-66897934D01*
X106109500Y-66913422D01*
X106109500Y-82309000D01*
X106090593Y-82367191D01*
X106041093Y-82403155D01*
X106010500Y-82408000D01*
X80489500Y-82408000D01*
X80431309Y-82389093D01*
X80395345Y-82339593D01*
X80390500Y-82309000D01*
X80390500Y-79630253D01*
X92199500Y-79630253D01*
X92199500Y-81369746D01*
X92199501Y-81369758D01*
X92211132Y-81428227D01*
X92211133Y-81428231D01*
X92255448Y-81494552D01*
X92321769Y-81538867D01*
X92366231Y-81547711D01*
X92380241Y-81550498D01*
X92380246Y-81550498D01*
X92380252Y-81550500D01*
X92380253Y-81550500D01*
X94119747Y-81550500D01*
X94119748Y-81550500D01*
X94178231Y-81538867D01*
X94244552Y-81494552D01*
X94288867Y-81428231D01*
X94300500Y-81369748D01*
X94300500Y-79630252D01*
X94288867Y-79571769D01*
X94244552Y-79505448D01*
X94244548Y-79505445D01*
X94178233Y-79461134D01*
X94178231Y-79461133D01*
X94178228Y-79461132D01*
X94178227Y-79461132D01*
X94119758Y-79449501D01*
X94119748Y-79449500D01*
X92380252Y-79449500D01*
X92380251Y-79449500D01*
X92380241Y-79449501D01*
X92321772Y-79461132D01*
X92321766Y-79461134D01*
X92255451Y-79505445D01*
X92255445Y-79505451D01*
X92211134Y-79571766D01*
X92211132Y-79571772D01*
X92199501Y-79630241D01*
X92199500Y-79630253D01*
X80390500Y-79630253D01*
X80390500Y-66560255D01*
X80409407Y-66502064D01*
X80458907Y-66466100D01*
X80520093Y-66466100D01*
X80544502Y-66477940D01*
X80676948Y-66566438D01*
X80842867Y-66635164D01*
X81019005Y-66670200D01*
X81019006Y-66670200D01*
X82620994Y-66670200D01*
X82620995Y-66670200D01*
X82797133Y-66635164D01*
X82963052Y-66566438D01*
X83112375Y-66466663D01*
X83239363Y-66339675D01*
X83339138Y-66190352D01*
X83407864Y-66024433D01*
X83442900Y-65848295D01*
X83442900Y-65668705D01*
X83407864Y-65492567D01*
X83339139Y-65326650D01*
X83339139Y-65326649D01*
X83239363Y-65177325D01*
X83112374Y-65050336D01*
X82963049Y-64950560D01*
X82797133Y-64881836D01*
X82620997Y-64846800D01*
X82620995Y-64846800D01*
X81019005Y-64846800D01*
X81019002Y-64846800D01*
X80842867Y-64881836D01*
X80842865Y-64881836D01*
X80676951Y-64950560D01*
X80544501Y-65039060D01*
X80485613Y-65055668D01*
X80428209Y-65034490D01*
X80394217Y-64983616D01*
X80390500Y-64956744D01*
X80390500Y-64020255D01*
X80409407Y-63962064D01*
X80458907Y-63926100D01*
X80520093Y-63926100D01*
X80544502Y-63937940D01*
X80676948Y-64026438D01*
X80842867Y-64095164D01*
X81019005Y-64130200D01*
X81019006Y-64130200D01*
X82620994Y-64130200D01*
X82620995Y-64130200D01*
X82797133Y-64095164D01*
X82963052Y-64026438D01*
X83112375Y-63926663D01*
X83239363Y-63799675D01*
X83339138Y-63650352D01*
X83407864Y-63484433D01*
X83442900Y-63308295D01*
X83442900Y-63128705D01*
X83407864Y-62952567D01*
X83407863Y-62952565D01*
X83406915Y-62947797D01*
X83409013Y-62947379D01*
X83410038Y-62894645D01*
X83446956Y-62845853D01*
X83505503Y-62828079D01*
X83563316Y-62848112D01*
X83573585Y-62857056D01*
X83670504Y-62953975D01*
X83698281Y-63008492D01*
X83699500Y-63023979D01*
X83699500Y-67051679D01*
X83680593Y-67109870D01*
X83670509Y-67121676D01*
X83599500Y-67192686D01*
X83599497Y-67192689D01*
X83599496Y-67192690D01*
X83533609Y-67306809D01*
X83533608Y-67306814D01*
X83499500Y-67434108D01*
X83499500Y-67565892D01*
X83529579Y-67678151D01*
X83533609Y-67693190D01*
X83599496Y-67807309D01*
X83599498Y-67807311D01*
X83599500Y-67807314D01*
X83692686Y-67900500D01*
X83692688Y-67900501D01*
X83692690Y-67900503D01*
X83806810Y-67966390D01*
X83806808Y-67966390D01*
X83806812Y-67966391D01*
X83806814Y-67966392D01*
X83934108Y-68000500D01*
X83934110Y-68000500D01*
X84065890Y-68000500D01*
X84065892Y-68000500D01*
X84193186Y-67966392D01*
X84193188Y-67966390D01*
X84193190Y-67966390D01*
X84307309Y-67900503D01*
X84307309Y-67900502D01*
X84307314Y-67900500D01*
X84400500Y-67807314D01*
X84466392Y-67693186D01*
X84500500Y-67565892D01*
X84500500Y-67434108D01*
X84466392Y-67306814D01*
X84466390Y-67306811D01*
X84466390Y-67306809D01*
X84400503Y-67192690D01*
X84400501Y-67192688D01*
X84400500Y-67192686D01*
X84329494Y-67121680D01*
X84301719Y-67067166D01*
X84300500Y-67051679D01*
X84300500Y-62818938D01*
X84281894Y-62749500D01*
X84281893Y-62749494D01*
X84280023Y-62742515D01*
X84280020Y-62742508D01*
X84240463Y-62673993D01*
X84240462Y-62673992D01*
X84240461Y-62673991D01*
X84240460Y-62673989D01*
X83102149Y-61535678D01*
X83074372Y-61481161D01*
X83083943Y-61420729D01*
X83109361Y-61389135D01*
X83112364Y-61386669D01*
X83112375Y-61386663D01*
X83239363Y-61259675D01*
X83339138Y-61110352D01*
X83407864Y-60944433D01*
X83442900Y-60768295D01*
X83442900Y-60588705D01*
X83407864Y-60412567D01*
X83339139Y-60246650D01*
X83339139Y-60246649D01*
X83239363Y-60097325D01*
X83112374Y-59970336D01*
X82963049Y-59870560D01*
X82797133Y-59801836D01*
X82620997Y-59766800D01*
X82620995Y-59766800D01*
X81019005Y-59766800D01*
X81019002Y-59766800D01*
X80842867Y-59801836D01*
X80842865Y-59801836D01*
X80676951Y-59870560D01*
X80544501Y-59959060D01*
X80485613Y-59975668D01*
X80428209Y-59954490D01*
X80394217Y-59903616D01*
X80390500Y-59876744D01*
X80390500Y-58940255D01*
X80409407Y-58882064D01*
X80458907Y-58846100D01*
X80520093Y-58846100D01*
X80544502Y-58857940D01*
X80676948Y-58946438D01*
X80842867Y-59015164D01*
X81019005Y-59050200D01*
X81019006Y-59050200D01*
X82620994Y-59050200D01*
X82620995Y-59050200D01*
X82797133Y-59015164D01*
X82963052Y-58946438D01*
X83080378Y-58868042D01*
X83139265Y-58851434D01*
X83196669Y-58872611D01*
X83205383Y-58880354D01*
X87470504Y-63145475D01*
X87498281Y-63199992D01*
X87499500Y-63215479D01*
X87499500Y-63315892D01*
X87529579Y-63428151D01*
X87533609Y-63443190D01*
X87599496Y-63557309D01*
X87599498Y-63557311D01*
X87599500Y-63557314D01*
X87692686Y-63650500D01*
X87692688Y-63650501D01*
X87692690Y-63650503D01*
X87806810Y-63716390D01*
X87806808Y-63716390D01*
X87806812Y-63716391D01*
X87806814Y-63716392D01*
X87934108Y-63750500D01*
X87934110Y-63750500D01*
X88065890Y-63750500D01*
X88065892Y-63750500D01*
X88193186Y-63716392D01*
X88193188Y-63716390D01*
X88193190Y-63716390D01*
X88307309Y-63650503D01*
X88307309Y-63650502D01*
X88307314Y-63650500D01*
X88400500Y-63557314D01*
X88400503Y-63557309D01*
X88466390Y-63443190D01*
X88466390Y-63443188D01*
X88466392Y-63443186D01*
X88500500Y-63315892D01*
X88500500Y-63184108D01*
X88466392Y-63056814D01*
X88466390Y-63056811D01*
X88466390Y-63056809D01*
X88400503Y-62942690D01*
X88400501Y-62942688D01*
X88400500Y-62942686D01*
X88307314Y-62849500D01*
X88307311Y-62849498D01*
X88307309Y-62849496D01*
X88193189Y-62783609D01*
X88193191Y-62783609D01*
X88143799Y-62770375D01*
X88065892Y-62749500D01*
X87965479Y-62749500D01*
X87907288Y-62730593D01*
X87895475Y-62720504D01*
X83471896Y-58296925D01*
X83444119Y-58242408D01*
X83442900Y-58226921D01*
X83442900Y-58048706D01*
X83442899Y-58048702D01*
X83407864Y-57872567D01*
X83339139Y-57706650D01*
X83339139Y-57706649D01*
X83239363Y-57557325D01*
X83112374Y-57430336D01*
X82963049Y-57330560D01*
X82797133Y-57261836D01*
X82620997Y-57226800D01*
X82620995Y-57226800D01*
X81019005Y-57226800D01*
X81019002Y-57226800D01*
X80842867Y-57261836D01*
X80842865Y-57261836D01*
X80676951Y-57330560D01*
X80544501Y-57419060D01*
X80485613Y-57435668D01*
X80428209Y-57414490D01*
X80394217Y-57363616D01*
X80390500Y-57336744D01*
X80390500Y-56400255D01*
X80409407Y-56342064D01*
X80458907Y-56306100D01*
X80520093Y-56306100D01*
X80544502Y-56317940D01*
X80676948Y-56406438D01*
X80842867Y-56475164D01*
X81019005Y-56510200D01*
X81019006Y-56510200D01*
X82620994Y-56510200D01*
X82620995Y-56510200D01*
X82797133Y-56475164D01*
X82963052Y-56406438D01*
X83112375Y-56306663D01*
X83239363Y-56179675D01*
X83339138Y-56030352D01*
X83407864Y-55864433D01*
X83442900Y-55688295D01*
X83442900Y-55508705D01*
X83429931Y-55443507D01*
X93962000Y-55443507D01*
X93962000Y-55446422D01*
X93962000Y-55656496D01*
X93968326Y-55688297D01*
X93988853Y-55791493D01*
X93988920Y-55791827D01*
X93988920Y-55791829D01*
X94041723Y-55919308D01*
X94115919Y-56030352D01*
X94118386Y-56034043D01*
X94630884Y-56546540D01*
X94630886Y-56546543D01*
X94728457Y-56644114D01*
X94843189Y-56720775D01*
X94917866Y-56751707D01*
X94970671Y-56773580D01*
X94993124Y-56778046D01*
X95106006Y-56800500D01*
X95106007Y-56800500D01*
X95243993Y-56800500D01*
X95243994Y-56800500D01*
X95379328Y-56773580D01*
X95506811Y-56720775D01*
X95621543Y-56644114D01*
X96294114Y-55971543D01*
X96370775Y-55856811D01*
X96423580Y-55729328D01*
X96450500Y-55593994D01*
X96450500Y-55456006D01*
X96450500Y-55431007D01*
X96423580Y-55295672D01*
X96383289Y-55198401D01*
X96370777Y-55168193D01*
X96370771Y-55168182D01*
X96294114Y-55053458D01*
X96196545Y-54955889D01*
X96196542Y-54955886D01*
X96106420Y-54895668D01*
X96081810Y-54879224D01*
X96036963Y-54860648D01*
X96004845Y-54839188D01*
X95904496Y-54738839D01*
X95876719Y-54684322D01*
X95875500Y-54668835D01*
X95875500Y-49391165D01*
X95894407Y-49332974D01*
X95904496Y-49321161D01*
X98896161Y-46329496D01*
X98950678Y-46301719D01*
X98966165Y-46300500D01*
X99088464Y-46300500D01*
X99088465Y-46300500D01*
X99291420Y-46260130D01*
X99482598Y-46180941D01*
X99654655Y-46065977D01*
X99800977Y-45919655D01*
X99915941Y-45747598D01*
X99984536Y-45581994D01*
X100024273Y-45535470D01*
X100083767Y-45521186D01*
X100140295Y-45544601D01*
X100172265Y-45596770D01*
X100175000Y-45619881D01*
X100175000Y-46147824D01*
X100174999Y-46147824D01*
X100181401Y-46207370D01*
X100181403Y-46207381D01*
X100231646Y-46342088D01*
X100231647Y-46342090D01*
X100317807Y-46457184D01*
X100317815Y-46457192D01*
X100432909Y-46543352D01*
X100432911Y-46543353D01*
X100567618Y-46593596D01*
X100567629Y-46593598D01*
X100627176Y-46600000D01*
X101274999Y-46600000D01*
X101275000Y-46599999D01*
X101275000Y-45683012D01*
X101332007Y-45715925D01*
X101459174Y-45750000D01*
X101590826Y-45750000D01*
X101717993Y-45715925D01*
X101775000Y-45683012D01*
X101775000Y-46599999D01*
X101775001Y-46600000D01*
X102422824Y-46600000D01*
X102482370Y-46593598D01*
X102482381Y-46593596D01*
X102617088Y-46543353D01*
X102617090Y-46543352D01*
X102732184Y-46457192D01*
X102732192Y-46457184D01*
X102818352Y-46342090D01*
X102818353Y-46342088D01*
X102868596Y-46207381D01*
X102868598Y-46207370D01*
X102875000Y-46147824D01*
X102875000Y-45500001D01*
X102874999Y-45500000D01*
X101958012Y-45500000D01*
X101990925Y-45442993D01*
X102025000Y-45315826D01*
X102025000Y-45184174D01*
X101990925Y-45057007D01*
X101958012Y-45000000D01*
X102874999Y-45000000D01*
X102875000Y-44999999D01*
X102875000Y-44352175D01*
X102868598Y-44292629D01*
X102868596Y-44292618D01*
X102818353Y-44157911D01*
X102818352Y-44157909D01*
X102732192Y-44042815D01*
X102732184Y-44042807D01*
X102617090Y-43956647D01*
X102617088Y-43956646D01*
X102482381Y-43906403D01*
X102482370Y-43906401D01*
X102422824Y-43900000D01*
X101775001Y-43900000D01*
X101775000Y-43900001D01*
X101775000Y-44816988D01*
X101717993Y-44784075D01*
X101590826Y-44750000D01*
X101459174Y-44750000D01*
X101332007Y-44784075D01*
X101275000Y-44816988D01*
X101275000Y-43900001D01*
X101274999Y-43900000D01*
X100627176Y-43900000D01*
X100567629Y-43906401D01*
X100567618Y-43906403D01*
X100432911Y-43956646D01*
X100432909Y-43956647D01*
X100317815Y-44042807D01*
X100317807Y-44042815D01*
X100231647Y-44157909D01*
X100231646Y-44157911D01*
X100181403Y-44292618D01*
X100181401Y-44292629D01*
X100175000Y-44352175D01*
X100175000Y-44880118D01*
X100156093Y-44938309D01*
X100106593Y-44974273D01*
X100045407Y-44974273D01*
X99995907Y-44938309D01*
X99984536Y-44918004D01*
X99915941Y-44752402D01*
X99800979Y-44580348D01*
X99800977Y-44580345D01*
X99654655Y-44434023D01*
X99482598Y-44319059D01*
X99482599Y-44319059D01*
X99482597Y-44319058D01*
X99291418Y-44239869D01*
X99088467Y-44199500D01*
X99088465Y-44199500D01*
X98881535Y-44199500D01*
X98881532Y-44199500D01*
X98678581Y-44239869D01*
X98487402Y-44319058D01*
X98315348Y-44434020D01*
X98169020Y-44580348D01*
X98054058Y-44752402D01*
X97974869Y-44943581D01*
X97934500Y-45146532D01*
X97934500Y-45268835D01*
X97915593Y-45327026D01*
X97905504Y-45338839D01*
X94630883Y-48613460D01*
X94554223Y-48728191D01*
X94501420Y-48855670D01*
X94501420Y-48855672D01*
X94480581Y-48960438D01*
X94474500Y-48991008D01*
X94474500Y-54668835D01*
X94455593Y-54727026D01*
X94445504Y-54738838D01*
X94118385Y-55065957D01*
X94041723Y-55180691D01*
X93988920Y-55308170D01*
X93988920Y-55308172D01*
X93980899Y-55348499D01*
X93963870Y-55434108D01*
X93962000Y-55443507D01*
X83429931Y-55443507D01*
X83407864Y-55332567D01*
X83339776Y-55168189D01*
X83339139Y-55166650D01*
X83339139Y-55166649D01*
X83239363Y-55017325D01*
X83112374Y-54890336D01*
X82963049Y-54790560D01*
X82797133Y-54721836D01*
X82620997Y-54686800D01*
X82620995Y-54686800D01*
X81019005Y-54686800D01*
X81019002Y-54686800D01*
X80842867Y-54721836D01*
X80842865Y-54721836D01*
X80676951Y-54790560D01*
X80544501Y-54879060D01*
X80485613Y-54895668D01*
X80428209Y-54874490D01*
X80394217Y-54823616D01*
X80390500Y-54796744D01*
X80390500Y-53860255D01*
X80409407Y-53802064D01*
X80458907Y-53766100D01*
X80520093Y-53766100D01*
X80544502Y-53777940D01*
X80676948Y-53866438D01*
X80842867Y-53935164D01*
X81019005Y-53970200D01*
X81019006Y-53970200D01*
X82620994Y-53970200D01*
X82620995Y-53970200D01*
X82797133Y-53935164D01*
X82963052Y-53866438D01*
X83112375Y-53766663D01*
X83239363Y-53639675D01*
X83339138Y-53490352D01*
X83407864Y-53324433D01*
X83442900Y-53148295D01*
X83442900Y-52968705D01*
X83407864Y-52792567D01*
X83339139Y-52626650D01*
X83339139Y-52626649D01*
X83239363Y-52477325D01*
X83112374Y-52350336D01*
X82963049Y-52250560D01*
X82797133Y-52181836D01*
X82620997Y-52146800D01*
X82620995Y-52146800D01*
X81019005Y-52146800D01*
X81019002Y-52146800D01*
X80842867Y-52181836D01*
X80842865Y-52181836D01*
X80676951Y-52250560D01*
X80544501Y-52339060D01*
X80485613Y-52355668D01*
X80428209Y-52334490D01*
X80394217Y-52283616D01*
X80390500Y-52256744D01*
X80390500Y-51673422D01*
X80409407Y-51615231D01*
X80458907Y-51579267D01*
X80520093Y-51579267D01*
X80534446Y-51585213D01*
X80643857Y-51640961D01*
X80825181Y-51699877D01*
X81013474Y-51729700D01*
X81569999Y-51729700D01*
X81570000Y-51729699D01*
X81570000Y-50951512D01*
X81627007Y-50984425D01*
X81754174Y-51018500D01*
X81885826Y-51018500D01*
X82012993Y-50984425D01*
X82070000Y-50951512D01*
X82070000Y-51729699D01*
X82070001Y-51729700D01*
X82626526Y-51729700D01*
X82814818Y-51699877D01*
X82996139Y-51640962D01*
X83166004Y-51554412D01*
X83320242Y-51442351D01*
X83455051Y-51307542D01*
X83567112Y-51153304D01*
X83653662Y-50983439D01*
X83712577Y-50802118D01*
X83717901Y-50768500D01*
X82253012Y-50768500D01*
X82285925Y-50711493D01*
X82320000Y-50584326D01*
X82320000Y-50452674D01*
X82285925Y-50325507D01*
X82253012Y-50268500D01*
X83717901Y-50268500D01*
X83717901Y-50268499D01*
X83712577Y-50234881D01*
X83653662Y-50053560D01*
X83567112Y-49883695D01*
X83455051Y-49729457D01*
X83320242Y-49594648D01*
X83166004Y-49482587D01*
X82996139Y-49396037D01*
X82814818Y-49337122D01*
X82626526Y-49307300D01*
X82070001Y-49307300D01*
X82070000Y-49307301D01*
X82070000Y-50085488D01*
X82012993Y-50052575D01*
X81885826Y-50018500D01*
X81754174Y-50018500D01*
X81627007Y-50052575D01*
X81570000Y-50085488D01*
X81570000Y-49307301D01*
X81569999Y-49307300D01*
X81013474Y-49307300D01*
X80825181Y-49337122D01*
X80643860Y-49396037D01*
X80534445Y-49451787D01*
X80474013Y-49461358D01*
X80419496Y-49433580D01*
X80391719Y-49379064D01*
X80390500Y-49363577D01*
X80390500Y-48780255D01*
X80409407Y-48722064D01*
X80458907Y-48686100D01*
X80520093Y-48686100D01*
X80544502Y-48697940D01*
X80676948Y-48786438D01*
X80842867Y-48855164D01*
X81019005Y-48890200D01*
X81019006Y-48890200D01*
X82620994Y-48890200D01*
X82620995Y-48890200D01*
X82797133Y-48855164D01*
X82963052Y-48786438D01*
X83112375Y-48686663D01*
X83239363Y-48559675D01*
X83339138Y-48410352D01*
X83407864Y-48244433D01*
X83442900Y-48068295D01*
X83442900Y-47888705D01*
X83407864Y-47712567D01*
X83339139Y-47546650D01*
X83339139Y-47546649D01*
X83239363Y-47397325D01*
X83112374Y-47270336D01*
X82963049Y-47170560D01*
X82797133Y-47101836D01*
X82620997Y-47066800D01*
X82620995Y-47066800D01*
X81019005Y-47066800D01*
X81019002Y-47066800D01*
X80842867Y-47101836D01*
X80842865Y-47101836D01*
X80676951Y-47170560D01*
X80544501Y-47259060D01*
X80485613Y-47275668D01*
X80428209Y-47254490D01*
X80394217Y-47203616D01*
X80390500Y-47176744D01*
X80390500Y-44130253D01*
X80949500Y-44130253D01*
X80949500Y-45869746D01*
X80949501Y-45869758D01*
X80959426Y-45919651D01*
X80961133Y-45928231D01*
X81005448Y-45994552D01*
X81071769Y-46038867D01*
X81116231Y-46047711D01*
X81130241Y-46050498D01*
X81130246Y-46050498D01*
X81130252Y-46050500D01*
X81130253Y-46050500D01*
X82869747Y-46050500D01*
X82869748Y-46050500D01*
X82928231Y-46038867D01*
X82994552Y-45994552D01*
X83038867Y-45928231D01*
X83050500Y-45869748D01*
X83050500Y-44130252D01*
X83038867Y-44071769D01*
X82994552Y-44005448D01*
X82994548Y-44005445D01*
X82928233Y-43961134D01*
X82928231Y-43961133D01*
X82928228Y-43961132D01*
X82928227Y-43961132D01*
X82869758Y-43949501D01*
X82869748Y-43949500D01*
X81130252Y-43949500D01*
X81130251Y-43949500D01*
X81130241Y-43949501D01*
X81071772Y-43961132D01*
X81071766Y-43961134D01*
X81005451Y-44005445D01*
X81005445Y-44005451D01*
X80961134Y-44071766D01*
X80961132Y-44071772D01*
X80949501Y-44130241D01*
X80949500Y-44130253D01*
X80390500Y-44130253D01*
X80390500Y-43108000D01*
X80409407Y-43049809D01*
X80458907Y-43013845D01*
X80489500Y-43009000D01*
X89039563Y-43009000D01*
X89039563Y-43008999D01*
X89115989Y-42988521D01*
X89184511Y-42948960D01*
X89240460Y-42893011D01*
X89280021Y-42824489D01*
X89280321Y-42823370D01*
X89280772Y-42822674D01*
X89282503Y-42818497D01*
X89283277Y-42818817D01*
X89313648Y-42772058D01*
X89370771Y-42750135D01*
X89375946Y-42750000D01*
X97124721Y-42750000D01*
X97126589Y-42750607D01*
G37*
%TD.AperFunction*%
%TD*%
M02*
