%TF.GenerationSoftware,KiCad,Pcbnew,9.0.6*%
%TF.CreationDate,2025-12-01T19:29:45+01:00*%
%TF.ProjectId,_SSDV,b5535344-562e-46b6-9963-61645f706362,0.1*%
%TF.SameCoordinates,Original*%
%TF.FileFunction,Legend,Top*%
%TF.FilePolarity,Positive*%
%FSLAX46Y46*%
G04 Gerber Fmt 4.6, Leading zero omitted, Abs format (unit mm)*
G04 Created by KiCad (PCBNEW 9.0.6) date 2025-12-01 19:29:45*
%MOMM*%
%LPD*%
G01*
G04 APERTURE LIST*
%ADD10C,0.150000*%
%ADD11C,0.120000*%
G04 APERTURE END LIST*
D10*
X91004819Y-49561904D02*
X91814342Y-49561904D01*
X91814342Y-49561904D02*
X91909580Y-49514285D01*
X91909580Y-49514285D02*
X91957200Y-49466666D01*
X91957200Y-49466666D02*
X92004819Y-49371428D01*
X92004819Y-49371428D02*
X92004819Y-49180952D01*
X92004819Y-49180952D02*
X91957200Y-49085714D01*
X91957200Y-49085714D02*
X91909580Y-49038095D01*
X91909580Y-49038095D02*
X91814342Y-48990476D01*
X91814342Y-48990476D02*
X91004819Y-48990476D01*
X91100057Y-48561904D02*
X91052438Y-48514285D01*
X91052438Y-48514285D02*
X91004819Y-48419047D01*
X91004819Y-48419047D02*
X91004819Y-48180952D01*
X91004819Y-48180952D02*
X91052438Y-48085714D01*
X91052438Y-48085714D02*
X91100057Y-48038095D01*
X91100057Y-48038095D02*
X91195295Y-47990476D01*
X91195295Y-47990476D02*
X91290533Y-47990476D01*
X91290533Y-47990476D02*
X91433390Y-48038095D01*
X91433390Y-48038095D02*
X92004819Y-48609523D01*
X92004819Y-48609523D02*
X92004819Y-47990476D01*
X88958557Y-53085715D02*
X88487128Y-53085715D01*
X88487128Y-53085715D02*
X88401414Y-53128572D01*
X88401414Y-53128572D02*
X88358557Y-53214286D01*
X88358557Y-53214286D02*
X88358557Y-53385715D01*
X88358557Y-53385715D02*
X88401414Y-53471429D01*
X88915700Y-53085715D02*
X88958557Y-53171429D01*
X88958557Y-53171429D02*
X88958557Y-53385715D01*
X88958557Y-53385715D02*
X88915700Y-53471429D01*
X88915700Y-53471429D02*
X88829985Y-53514286D01*
X88829985Y-53514286D02*
X88744271Y-53514286D01*
X88744271Y-53514286D02*
X88658557Y-53471429D01*
X88658557Y-53471429D02*
X88615700Y-53385715D01*
X88615700Y-53385715D02*
X88615700Y-53171429D01*
X88615700Y-53171429D02*
X88572842Y-53085715D01*
X88358557Y-52785714D02*
X88358557Y-52442857D01*
X88058557Y-52657143D02*
X88829985Y-52657143D01*
X88829985Y-52657143D02*
X88915700Y-52614286D01*
X88915700Y-52614286D02*
X88958557Y-52528571D01*
X88958557Y-52528571D02*
X88958557Y-52442857D01*
X88358557Y-51757143D02*
X89087128Y-51757143D01*
X89087128Y-51757143D02*
X89172842Y-51800000D01*
X89172842Y-51800000D02*
X89215700Y-51842857D01*
X89215700Y-51842857D02*
X89258557Y-51928571D01*
X89258557Y-51928571D02*
X89258557Y-52057143D01*
X89258557Y-52057143D02*
X89215700Y-52142857D01*
X88915700Y-51757143D02*
X88958557Y-51842857D01*
X88958557Y-51842857D02*
X88958557Y-52014285D01*
X88958557Y-52014285D02*
X88915700Y-52100000D01*
X88915700Y-52100000D02*
X88872842Y-52142857D01*
X88872842Y-52142857D02*
X88787128Y-52185714D01*
X88787128Y-52185714D02*
X88529985Y-52185714D01*
X88529985Y-52185714D02*
X88444271Y-52142857D01*
X88444271Y-52142857D02*
X88401414Y-52100000D01*
X88401414Y-52100000D02*
X88358557Y-52014285D01*
X88358557Y-52014285D02*
X88358557Y-51842857D01*
X88358557Y-51842857D02*
X88401414Y-51757143D01*
X88958557Y-51328571D02*
X88358557Y-51328571D01*
X88444271Y-51328571D02*
X88401414Y-51285714D01*
X88401414Y-51285714D02*
X88358557Y-51199999D01*
X88358557Y-51199999D02*
X88358557Y-51071428D01*
X88358557Y-51071428D02*
X88401414Y-50985714D01*
X88401414Y-50985714D02*
X88487128Y-50942857D01*
X88487128Y-50942857D02*
X88958557Y-50942857D01*
X88487128Y-50942857D02*
X88401414Y-50899999D01*
X88401414Y-50899999D02*
X88358557Y-50814285D01*
X88358557Y-50814285D02*
X88358557Y-50685714D01*
X88358557Y-50685714D02*
X88401414Y-50599999D01*
X88401414Y-50599999D02*
X88487128Y-50557142D01*
X88487128Y-50557142D02*
X88958557Y-50557142D01*
X88058557Y-50214285D02*
X88058557Y-49657142D01*
X88058557Y-49657142D02*
X88401414Y-49957142D01*
X88401414Y-49957142D02*
X88401414Y-49828571D01*
X88401414Y-49828571D02*
X88444271Y-49742857D01*
X88444271Y-49742857D02*
X88487128Y-49699999D01*
X88487128Y-49699999D02*
X88572842Y-49657142D01*
X88572842Y-49657142D02*
X88787128Y-49657142D01*
X88787128Y-49657142D02*
X88872842Y-49699999D01*
X88872842Y-49699999D02*
X88915700Y-49742857D01*
X88915700Y-49742857D02*
X88958557Y-49828571D01*
X88958557Y-49828571D02*
X88958557Y-50085714D01*
X88958557Y-50085714D02*
X88915700Y-50171428D01*
X88915700Y-50171428D02*
X88872842Y-50214285D01*
X88058557Y-49357142D02*
X88058557Y-48799999D01*
X88058557Y-48799999D02*
X88401414Y-49099999D01*
X88401414Y-49099999D02*
X88401414Y-48971428D01*
X88401414Y-48971428D02*
X88444271Y-48885714D01*
X88444271Y-48885714D02*
X88487128Y-48842856D01*
X88487128Y-48842856D02*
X88572842Y-48799999D01*
X88572842Y-48799999D02*
X88787128Y-48799999D01*
X88787128Y-48799999D02*
X88872842Y-48842856D01*
X88872842Y-48842856D02*
X88915700Y-48885714D01*
X88915700Y-48885714D02*
X88958557Y-48971428D01*
X88958557Y-48971428D02*
X88958557Y-49228571D01*
X88958557Y-49228571D02*
X88915700Y-49314285D01*
X88915700Y-49314285D02*
X88872842Y-49357142D01*
X88058557Y-48028571D02*
X88058557Y-48199999D01*
X88058557Y-48199999D02*
X88101414Y-48285713D01*
X88101414Y-48285713D02*
X88144271Y-48328571D01*
X88144271Y-48328571D02*
X88272842Y-48414285D01*
X88272842Y-48414285D02*
X88444271Y-48457142D01*
X88444271Y-48457142D02*
X88787128Y-48457142D01*
X88787128Y-48457142D02*
X88872842Y-48414285D01*
X88872842Y-48414285D02*
X88915700Y-48371428D01*
X88915700Y-48371428D02*
X88958557Y-48285713D01*
X88958557Y-48285713D02*
X88958557Y-48114285D01*
X88958557Y-48114285D02*
X88915700Y-48028571D01*
X88915700Y-48028571D02*
X88872842Y-47985713D01*
X88872842Y-47985713D02*
X88787128Y-47942856D01*
X88787128Y-47942856D02*
X88572842Y-47942856D01*
X88572842Y-47942856D02*
X88487128Y-47985713D01*
X88487128Y-47985713D02*
X88444271Y-48028571D01*
X88444271Y-48028571D02*
X88401414Y-48114285D01*
X88401414Y-48114285D02*
X88401414Y-48285713D01*
X88401414Y-48285713D02*
X88444271Y-48371428D01*
X88444271Y-48371428D02*
X88487128Y-48414285D01*
X88487128Y-48414285D02*
X88572842Y-48457142D01*
X88958557Y-47557142D02*
X88058557Y-47557142D01*
X88958557Y-47171428D02*
X88487128Y-47171428D01*
X88487128Y-47171428D02*
X88401414Y-47214285D01*
X88401414Y-47214285D02*
X88358557Y-47299999D01*
X88358557Y-47299999D02*
X88358557Y-47428570D01*
X88358557Y-47428570D02*
X88401414Y-47514285D01*
X88401414Y-47514285D02*
X88444271Y-47557142D01*
X88358557Y-45671428D02*
X89087128Y-45671428D01*
X89087128Y-45671428D02*
X89172842Y-45714285D01*
X89172842Y-45714285D02*
X89215700Y-45757142D01*
X89215700Y-45757142D02*
X89258557Y-45842856D01*
X89258557Y-45842856D02*
X89258557Y-45971428D01*
X89258557Y-45971428D02*
X89215700Y-46057142D01*
X88915700Y-45671428D02*
X88958557Y-45757142D01*
X88958557Y-45757142D02*
X88958557Y-45928570D01*
X88958557Y-45928570D02*
X88915700Y-46014285D01*
X88915700Y-46014285D02*
X88872842Y-46057142D01*
X88872842Y-46057142D02*
X88787128Y-46099999D01*
X88787128Y-46099999D02*
X88529985Y-46099999D01*
X88529985Y-46099999D02*
X88444271Y-46057142D01*
X88444271Y-46057142D02*
X88401414Y-46014285D01*
X88401414Y-46014285D02*
X88358557Y-45928570D01*
X88358557Y-45928570D02*
X88358557Y-45757142D01*
X88358557Y-45757142D02*
X88401414Y-45671428D01*
X88358557Y-45242856D02*
X89258557Y-45242856D01*
X88401414Y-45242856D02*
X88358557Y-45157142D01*
X88358557Y-45157142D02*
X88358557Y-44985713D01*
X88358557Y-44985713D02*
X88401414Y-44899999D01*
X88401414Y-44899999D02*
X88444271Y-44857142D01*
X88444271Y-44857142D02*
X88529985Y-44814284D01*
X88529985Y-44814284D02*
X88787128Y-44814284D01*
X88787128Y-44814284D02*
X88872842Y-44857142D01*
X88872842Y-44857142D02*
X88915700Y-44899999D01*
X88915700Y-44899999D02*
X88958557Y-44985713D01*
X88958557Y-44985713D02*
X88958557Y-45157142D01*
X88958557Y-45157142D02*
X88915700Y-45242856D01*
X88915700Y-44471427D02*
X88958557Y-44385713D01*
X88958557Y-44385713D02*
X88958557Y-44214284D01*
X88958557Y-44214284D02*
X88915700Y-44128570D01*
X88915700Y-44128570D02*
X88829985Y-44085713D01*
X88829985Y-44085713D02*
X88787128Y-44085713D01*
X88787128Y-44085713D02*
X88701414Y-44128570D01*
X88701414Y-44128570D02*
X88658557Y-44214284D01*
X88658557Y-44214284D02*
X88658557Y-44342856D01*
X88658557Y-44342856D02*
X88615700Y-44428570D01*
X88615700Y-44428570D02*
X88529985Y-44471427D01*
X88529985Y-44471427D02*
X88487128Y-44471427D01*
X88487128Y-44471427D02*
X88401414Y-44428570D01*
X88401414Y-44428570D02*
X88358557Y-44342856D01*
X88358557Y-44342856D02*
X88358557Y-44214284D01*
X88358557Y-44214284D02*
X88401414Y-44128570D01*
X102129819Y-58083928D02*
X102129819Y-58655356D01*
X102129819Y-58369642D02*
X101129819Y-58369642D01*
X101129819Y-58369642D02*
X101272676Y-58464880D01*
X101272676Y-58464880D02*
X101367914Y-58560118D01*
X101367914Y-58560118D02*
X101415533Y-58655356D01*
X101129819Y-57464880D02*
X101129819Y-57369642D01*
X101129819Y-57369642D02*
X101177438Y-57274404D01*
X101177438Y-57274404D02*
X101225057Y-57226785D01*
X101225057Y-57226785D02*
X101320295Y-57179166D01*
X101320295Y-57179166D02*
X101510771Y-57131547D01*
X101510771Y-57131547D02*
X101748866Y-57131547D01*
X101748866Y-57131547D02*
X101939342Y-57179166D01*
X101939342Y-57179166D02*
X102034580Y-57226785D01*
X102034580Y-57226785D02*
X102082200Y-57274404D01*
X102082200Y-57274404D02*
X102129819Y-57369642D01*
X102129819Y-57369642D02*
X102129819Y-57464880D01*
X102129819Y-57464880D02*
X102082200Y-57560118D01*
X102082200Y-57560118D02*
X102034580Y-57607737D01*
X102034580Y-57607737D02*
X101939342Y-57655356D01*
X101939342Y-57655356D02*
X101748866Y-57702975D01*
X101748866Y-57702975D02*
X101510771Y-57702975D01*
X101510771Y-57702975D02*
X101320295Y-57655356D01*
X101320295Y-57655356D02*
X101225057Y-57607737D01*
X101225057Y-57607737D02*
X101177438Y-57560118D01*
X101177438Y-57560118D02*
X101129819Y-57464880D01*
X101129819Y-56512499D02*
X101129819Y-56417261D01*
X101129819Y-56417261D02*
X101177438Y-56322023D01*
X101177438Y-56322023D02*
X101225057Y-56274404D01*
X101225057Y-56274404D02*
X101320295Y-56226785D01*
X101320295Y-56226785D02*
X101510771Y-56179166D01*
X101510771Y-56179166D02*
X101748866Y-56179166D01*
X101748866Y-56179166D02*
X101939342Y-56226785D01*
X101939342Y-56226785D02*
X102034580Y-56274404D01*
X102034580Y-56274404D02*
X102082200Y-56322023D01*
X102082200Y-56322023D02*
X102129819Y-56417261D01*
X102129819Y-56417261D02*
X102129819Y-56512499D01*
X102129819Y-56512499D02*
X102082200Y-56607737D01*
X102082200Y-56607737D02*
X102034580Y-56655356D01*
X102034580Y-56655356D02*
X101939342Y-56702975D01*
X101939342Y-56702975D02*
X101748866Y-56750594D01*
X101748866Y-56750594D02*
X101510771Y-56750594D01*
X101510771Y-56750594D02*
X101320295Y-56702975D01*
X101320295Y-56702975D02*
X101225057Y-56655356D01*
X101225057Y-56655356D02*
X101177438Y-56607737D01*
X101177438Y-56607737D02*
X101129819Y-56512499D01*
X102129819Y-55750594D02*
X101129819Y-55750594D01*
X101748866Y-55655356D02*
X102129819Y-55369642D01*
X101463152Y-55369642D02*
X101844104Y-55750594D01*
X102129819Y-54369642D02*
X101653628Y-54702975D01*
X102129819Y-54941070D02*
X101129819Y-54941070D01*
X101129819Y-54941070D02*
X101129819Y-54560118D01*
X101129819Y-54560118D02*
X101177438Y-54464880D01*
X101177438Y-54464880D02*
X101225057Y-54417261D01*
X101225057Y-54417261D02*
X101320295Y-54369642D01*
X101320295Y-54369642D02*
X101463152Y-54369642D01*
X101463152Y-54369642D02*
X101558390Y-54417261D01*
X101558390Y-54417261D02*
X101606009Y-54464880D01*
X101606009Y-54464880D02*
X101653628Y-54560118D01*
X101653628Y-54560118D02*
X101653628Y-54941070D01*
X97103571Y-49804819D02*
X96532143Y-49804819D01*
X96817857Y-49804819D02*
X96817857Y-48804819D01*
X96817857Y-48804819D02*
X96722619Y-48947676D01*
X96722619Y-48947676D02*
X96627381Y-49042914D01*
X96627381Y-49042914D02*
X96532143Y-49090533D01*
X97722619Y-48804819D02*
X97817857Y-48804819D01*
X97817857Y-48804819D02*
X97913095Y-48852438D01*
X97913095Y-48852438D02*
X97960714Y-48900057D01*
X97960714Y-48900057D02*
X98008333Y-48995295D01*
X98008333Y-48995295D02*
X98055952Y-49185771D01*
X98055952Y-49185771D02*
X98055952Y-49423866D01*
X98055952Y-49423866D02*
X98008333Y-49614342D01*
X98008333Y-49614342D02*
X97960714Y-49709580D01*
X97960714Y-49709580D02*
X97913095Y-49757200D01*
X97913095Y-49757200D02*
X97817857Y-49804819D01*
X97817857Y-49804819D02*
X97722619Y-49804819D01*
X97722619Y-49804819D02*
X97627381Y-49757200D01*
X97627381Y-49757200D02*
X97579762Y-49709580D01*
X97579762Y-49709580D02*
X97532143Y-49614342D01*
X97532143Y-49614342D02*
X97484524Y-49423866D01*
X97484524Y-49423866D02*
X97484524Y-49185771D01*
X97484524Y-49185771D02*
X97532143Y-48995295D01*
X97532143Y-48995295D02*
X97579762Y-48900057D01*
X97579762Y-48900057D02*
X97627381Y-48852438D01*
X97627381Y-48852438D02*
X97722619Y-48804819D01*
X98913095Y-49138152D02*
X98913095Y-49804819D01*
X98484524Y-49138152D02*
X98484524Y-49661961D01*
X98484524Y-49661961D02*
X98532143Y-49757200D01*
X98532143Y-49757200D02*
X98627381Y-49804819D01*
X98627381Y-49804819D02*
X98770238Y-49804819D01*
X98770238Y-49804819D02*
X98865476Y-49757200D01*
X98865476Y-49757200D02*
X98913095Y-49709580D01*
X99722619Y-49281009D02*
X99389286Y-49281009D01*
X99389286Y-49804819D02*
X99389286Y-48804819D01*
X99389286Y-48804819D02*
X99865476Y-48804819D01*
X103954819Y-45583333D02*
X104669104Y-45583333D01*
X104669104Y-45583333D02*
X104811961Y-45630952D01*
X104811961Y-45630952D02*
X104907200Y-45726190D01*
X104907200Y-45726190D02*
X104954819Y-45869047D01*
X104954819Y-45869047D02*
X104954819Y-45964285D01*
X104954819Y-44583333D02*
X104954819Y-45154761D01*
X104954819Y-44869047D02*
X103954819Y-44869047D01*
X103954819Y-44869047D02*
X104097676Y-44964285D01*
X104097676Y-44964285D02*
X104192914Y-45059523D01*
X104192914Y-45059523D02*
X104240533Y-45154761D01*
X96234524Y-52054819D02*
X96853571Y-52054819D01*
X96853571Y-52054819D02*
X96520238Y-52435771D01*
X96520238Y-52435771D02*
X96663095Y-52435771D01*
X96663095Y-52435771D02*
X96758333Y-52483390D01*
X96758333Y-52483390D02*
X96805952Y-52531009D01*
X96805952Y-52531009D02*
X96853571Y-52626247D01*
X96853571Y-52626247D02*
X96853571Y-52864342D01*
X96853571Y-52864342D02*
X96805952Y-52959580D01*
X96805952Y-52959580D02*
X96758333Y-53007200D01*
X96758333Y-53007200D02*
X96663095Y-53054819D01*
X96663095Y-53054819D02*
X96377381Y-53054819D01*
X96377381Y-53054819D02*
X96282143Y-53007200D01*
X96282143Y-53007200D02*
X96234524Y-52959580D01*
X97805952Y-53054819D02*
X97234524Y-53054819D01*
X97520238Y-53054819D02*
X97520238Y-52054819D01*
X97520238Y-52054819D02*
X97425000Y-52197676D01*
X97425000Y-52197676D02*
X97329762Y-52292914D01*
X97329762Y-52292914D02*
X97234524Y-52340533D01*
X98663095Y-52054819D02*
X98472619Y-52054819D01*
X98472619Y-52054819D02*
X98377381Y-52102438D01*
X98377381Y-52102438D02*
X98329762Y-52150057D01*
X98329762Y-52150057D02*
X98234524Y-52292914D01*
X98234524Y-52292914D02*
X98186905Y-52483390D01*
X98186905Y-52483390D02*
X98186905Y-52864342D01*
X98186905Y-52864342D02*
X98234524Y-52959580D01*
X98234524Y-52959580D02*
X98282143Y-53007200D01*
X98282143Y-53007200D02*
X98377381Y-53054819D01*
X98377381Y-53054819D02*
X98567857Y-53054819D01*
X98567857Y-53054819D02*
X98663095Y-53007200D01*
X98663095Y-53007200D02*
X98710714Y-52959580D01*
X98710714Y-52959580D02*
X98758333Y-52864342D01*
X98758333Y-52864342D02*
X98758333Y-52626247D01*
X98758333Y-52626247D02*
X98710714Y-52531009D01*
X98710714Y-52531009D02*
X98663095Y-52483390D01*
X98663095Y-52483390D02*
X98567857Y-52435771D01*
X98567857Y-52435771D02*
X98377381Y-52435771D01*
X98377381Y-52435771D02*
X98282143Y-52483390D01*
X98282143Y-52483390D02*
X98234524Y-52531009D01*
X98234524Y-52531009D02*
X98186905Y-52626247D01*
X99186905Y-53054819D02*
X99186905Y-52054819D01*
X99282143Y-52673866D02*
X99567857Y-53054819D01*
X99567857Y-52388152D02*
X99186905Y-52769104D01*
X100567857Y-53054819D02*
X100234524Y-52578628D01*
X99996429Y-53054819D02*
X99996429Y-52054819D01*
X99996429Y-52054819D02*
X100377381Y-52054819D01*
X100377381Y-52054819D02*
X100472619Y-52102438D01*
X100472619Y-52102438D02*
X100520238Y-52150057D01*
X100520238Y-52150057D02*
X100567857Y-52245295D01*
X100567857Y-52245295D02*
X100567857Y-52388152D01*
X100567857Y-52388152D02*
X100520238Y-52483390D01*
X100520238Y-52483390D02*
X100472619Y-52531009D01*
X100472619Y-52531009D02*
X100377381Y-52578628D01*
X100377381Y-52578628D02*
X99996429Y-52578628D01*
X97008269Y-57078553D02*
X97008269Y-57564267D01*
X97008269Y-57564267D02*
X97036840Y-57621410D01*
X97036840Y-57621410D02*
X97065412Y-57649982D01*
X97065412Y-57649982D02*
X97122554Y-57678553D01*
X97122554Y-57678553D02*
X97236840Y-57678553D01*
X97236840Y-57678553D02*
X97293983Y-57649982D01*
X97293983Y-57649982D02*
X97322554Y-57621410D01*
X97322554Y-57621410D02*
X97351126Y-57564267D01*
X97351126Y-57564267D02*
X97351126Y-57078553D01*
X97893983Y-57278553D02*
X97893983Y-57678553D01*
X97751125Y-57049982D02*
X97608268Y-57478553D01*
X97608268Y-57478553D02*
X97979697Y-57478553D01*
X87630952Y-80669104D02*
X88107142Y-80669104D01*
X87535714Y-80954819D02*
X87869047Y-79954819D01*
X87869047Y-79954819D02*
X88202380Y-80954819D01*
X88535714Y-80954819D02*
X88535714Y-79954819D01*
X88535714Y-79954819D02*
X89107142Y-80954819D01*
X89107142Y-80954819D02*
X89107142Y-79954819D01*
X89440476Y-79954819D02*
X90011904Y-79954819D01*
X89726190Y-80954819D02*
X89726190Y-79954819D01*
X90297619Y-80050057D02*
X90345238Y-80002438D01*
X90345238Y-80002438D02*
X90440476Y-79954819D01*
X90440476Y-79954819D02*
X90678571Y-79954819D01*
X90678571Y-79954819D02*
X90773809Y-80002438D01*
X90773809Y-80002438D02*
X90821428Y-80050057D01*
X90821428Y-80050057D02*
X90869047Y-80145295D01*
X90869047Y-80145295D02*
X90869047Y-80240533D01*
X90869047Y-80240533D02*
X90821428Y-80383390D01*
X90821428Y-80383390D02*
X90250000Y-80954819D01*
X90250000Y-80954819D02*
X90869047Y-80954819D01*
X96095237Y-80954819D02*
X95619047Y-80954819D01*
X95619047Y-80954819D02*
X95619047Y-79954819D01*
X96571428Y-80954819D02*
X96476190Y-80907200D01*
X96476190Y-80907200D02*
X96428571Y-80859580D01*
X96428571Y-80859580D02*
X96380952Y-80764342D01*
X96380952Y-80764342D02*
X96380952Y-80478628D01*
X96380952Y-80478628D02*
X96428571Y-80383390D01*
X96428571Y-80383390D02*
X96476190Y-80335771D01*
X96476190Y-80335771D02*
X96571428Y-80288152D01*
X96571428Y-80288152D02*
X96714285Y-80288152D01*
X96714285Y-80288152D02*
X96809523Y-80335771D01*
X96809523Y-80335771D02*
X96857142Y-80383390D01*
X96857142Y-80383390D02*
X96904761Y-80478628D01*
X96904761Y-80478628D02*
X96904761Y-80764342D01*
X96904761Y-80764342D02*
X96857142Y-80859580D01*
X96857142Y-80859580D02*
X96809523Y-80907200D01*
X96809523Y-80907200D02*
X96714285Y-80954819D01*
X96714285Y-80954819D02*
X96571428Y-80954819D01*
X97904761Y-80954819D02*
X97571428Y-80478628D01*
X97333333Y-80954819D02*
X97333333Y-79954819D01*
X97333333Y-79954819D02*
X97714285Y-79954819D01*
X97714285Y-79954819D02*
X97809523Y-80002438D01*
X97809523Y-80002438D02*
X97857142Y-80050057D01*
X97857142Y-80050057D02*
X97904761Y-80145295D01*
X97904761Y-80145295D02*
X97904761Y-80288152D01*
X97904761Y-80288152D02*
X97857142Y-80383390D01*
X97857142Y-80383390D02*
X97809523Y-80431009D01*
X97809523Y-80431009D02*
X97714285Y-80478628D01*
X97714285Y-80478628D02*
X97333333Y-80478628D01*
X98761904Y-80954819D02*
X98761904Y-80431009D01*
X98761904Y-80431009D02*
X98714285Y-80335771D01*
X98714285Y-80335771D02*
X98619047Y-80288152D01*
X98619047Y-80288152D02*
X98428571Y-80288152D01*
X98428571Y-80288152D02*
X98333333Y-80335771D01*
X98761904Y-80907200D02*
X98666666Y-80954819D01*
X98666666Y-80954819D02*
X98428571Y-80954819D01*
X98428571Y-80954819D02*
X98333333Y-80907200D01*
X98333333Y-80907200D02*
X98285714Y-80811961D01*
X98285714Y-80811961D02*
X98285714Y-80716723D01*
X98285714Y-80716723D02*
X98333333Y-80621485D01*
X98333333Y-80621485D02*
X98428571Y-80573866D01*
X98428571Y-80573866D02*
X98666666Y-80573866D01*
X98666666Y-80573866D02*
X98761904Y-80526247D01*
X99952381Y-80669104D02*
X100428571Y-80669104D01*
X99857143Y-80954819D02*
X100190476Y-79954819D01*
X100190476Y-79954819D02*
X100523809Y-80954819D01*
X100857143Y-80288152D02*
X100857143Y-80954819D01*
X100857143Y-80383390D02*
X100904762Y-80335771D01*
X100904762Y-80335771D02*
X101000000Y-80288152D01*
X101000000Y-80288152D02*
X101142857Y-80288152D01*
X101142857Y-80288152D02*
X101238095Y-80335771D01*
X101238095Y-80335771D02*
X101285714Y-80431009D01*
X101285714Y-80431009D02*
X101285714Y-80954819D01*
X101619048Y-80288152D02*
X102000000Y-80288152D01*
X101761905Y-79954819D02*
X101761905Y-80811961D01*
X101761905Y-80811961D02*
X101809524Y-80907200D01*
X101809524Y-80907200D02*
X101904762Y-80954819D01*
X101904762Y-80954819D02*
X102000000Y-80954819D01*
X102714286Y-80907200D02*
X102619048Y-80954819D01*
X102619048Y-80954819D02*
X102428572Y-80954819D01*
X102428572Y-80954819D02*
X102333334Y-80907200D01*
X102333334Y-80907200D02*
X102285715Y-80811961D01*
X102285715Y-80811961D02*
X102285715Y-80431009D01*
X102285715Y-80431009D02*
X102333334Y-80335771D01*
X102333334Y-80335771D02*
X102428572Y-80288152D01*
X102428572Y-80288152D02*
X102619048Y-80288152D01*
X102619048Y-80288152D02*
X102714286Y-80335771D01*
X102714286Y-80335771D02*
X102761905Y-80431009D01*
X102761905Y-80431009D02*
X102761905Y-80526247D01*
X102761905Y-80526247D02*
X102285715Y-80621485D01*
X103190477Y-80288152D02*
X103190477Y-80954819D01*
X103190477Y-80383390D02*
X103238096Y-80335771D01*
X103238096Y-80335771D02*
X103333334Y-80288152D01*
X103333334Y-80288152D02*
X103476191Y-80288152D01*
X103476191Y-80288152D02*
X103571429Y-80335771D01*
X103571429Y-80335771D02*
X103619048Y-80431009D01*
X103619048Y-80431009D02*
X103619048Y-80954819D01*
X104095239Y-80288152D02*
X104095239Y-80954819D01*
X104095239Y-80383390D02*
X104142858Y-80335771D01*
X104142858Y-80335771D02*
X104238096Y-80288152D01*
X104238096Y-80288152D02*
X104380953Y-80288152D01*
X104380953Y-80288152D02*
X104476191Y-80335771D01*
X104476191Y-80335771D02*
X104523810Y-80431009D01*
X104523810Y-80431009D02*
X104523810Y-80954819D01*
X105380953Y-80907200D02*
X105285715Y-80954819D01*
X105285715Y-80954819D02*
X105095239Y-80954819D01*
X105095239Y-80954819D02*
X105000001Y-80907200D01*
X105000001Y-80907200D02*
X104952382Y-80811961D01*
X104952382Y-80811961D02*
X104952382Y-80431009D01*
X104952382Y-80431009D02*
X105000001Y-80335771D01*
X105000001Y-80335771D02*
X105095239Y-80288152D01*
X105095239Y-80288152D02*
X105285715Y-80288152D01*
X105285715Y-80288152D02*
X105380953Y-80335771D01*
X105380953Y-80335771D02*
X105428572Y-80431009D01*
X105428572Y-80431009D02*
X105428572Y-80526247D01*
X105428572Y-80526247D02*
X104952382Y-80621485D01*
X90537295Y-57483333D02*
X90537295Y-57864285D01*
X90537295Y-57864285D02*
X89737295Y-57864285D01*
X90537295Y-56797619D02*
X90537295Y-57254762D01*
X90537295Y-57026190D02*
X89737295Y-57026190D01*
X89737295Y-57026190D02*
X89851580Y-57102381D01*
X89851580Y-57102381D02*
X89927771Y-57178571D01*
X89927771Y-57178571D02*
X89965866Y-57254762D01*
X91475000Y-57178961D02*
X91475000Y-57712295D01*
X91284524Y-56874200D02*
X91094047Y-57445628D01*
X91094047Y-57445628D02*
X91589286Y-57445628D01*
X91894048Y-57636104D02*
X91932143Y-57674200D01*
X91932143Y-57674200D02*
X91894048Y-57712295D01*
X91894048Y-57712295D02*
X91855952Y-57674200D01*
X91855952Y-57674200D02*
X91894048Y-57636104D01*
X91894048Y-57636104D02*
X91894048Y-57712295D01*
X92198809Y-56912295D02*
X92732143Y-56912295D01*
X92732143Y-56912295D02*
X92389285Y-57712295D01*
X93379762Y-57178961D02*
X93379762Y-57712295D01*
X93036905Y-57178961D02*
X93036905Y-57598009D01*
X93036905Y-57598009D02*
X93075000Y-57674200D01*
X93075000Y-57674200D02*
X93151190Y-57712295D01*
X93151190Y-57712295D02*
X93265476Y-57712295D01*
X93265476Y-57712295D02*
X93341667Y-57674200D01*
X93341667Y-57674200D02*
X93379762Y-57636104D01*
X93760715Y-57712295D02*
X93760715Y-56912295D01*
X93760715Y-57293247D02*
X94217858Y-57293247D01*
X94217858Y-57712295D02*
X94217858Y-56912295D01*
X92704819Y-74714285D02*
X92228628Y-75047618D01*
X92704819Y-75285713D02*
X91704819Y-75285713D01*
X91704819Y-75285713D02*
X91704819Y-74904761D01*
X91704819Y-74904761D02*
X91752438Y-74809523D01*
X91752438Y-74809523D02*
X91800057Y-74761904D01*
X91800057Y-74761904D02*
X91895295Y-74714285D01*
X91895295Y-74714285D02*
X92038152Y-74714285D01*
X92038152Y-74714285D02*
X92133390Y-74761904D01*
X92133390Y-74761904D02*
X92181009Y-74809523D01*
X92181009Y-74809523D02*
X92228628Y-74904761D01*
X92228628Y-74904761D02*
X92228628Y-75285713D01*
X92181009Y-73952380D02*
X92181009Y-74285713D01*
X92704819Y-74285713D02*
X91704819Y-74285713D01*
X91704819Y-74285713D02*
X91704819Y-73809523D01*
X92704819Y-73428570D02*
X91704819Y-73428570D01*
X91704819Y-73428570D02*
X92419104Y-73095237D01*
X92419104Y-73095237D02*
X91704819Y-72761904D01*
X91704819Y-72761904D02*
X92704819Y-72761904D01*
X92704819Y-72238094D02*
X92704819Y-72047618D01*
X92704819Y-72047618D02*
X92657200Y-71952380D01*
X92657200Y-71952380D02*
X92609580Y-71904761D01*
X92609580Y-71904761D02*
X92466723Y-71809523D01*
X92466723Y-71809523D02*
X92276247Y-71761904D01*
X92276247Y-71761904D02*
X91895295Y-71761904D01*
X91895295Y-71761904D02*
X91800057Y-71809523D01*
X91800057Y-71809523D02*
X91752438Y-71857142D01*
X91752438Y-71857142D02*
X91704819Y-71952380D01*
X91704819Y-71952380D02*
X91704819Y-72142856D01*
X91704819Y-72142856D02*
X91752438Y-72238094D01*
X91752438Y-72238094D02*
X91800057Y-72285713D01*
X91800057Y-72285713D02*
X91895295Y-72333332D01*
X91895295Y-72333332D02*
X92133390Y-72333332D01*
X92133390Y-72333332D02*
X92228628Y-72285713D01*
X92228628Y-72285713D02*
X92276247Y-72238094D01*
X92276247Y-72238094D02*
X92323866Y-72142856D01*
X92323866Y-72142856D02*
X92323866Y-71952380D01*
X92323866Y-71952380D02*
X92276247Y-71857142D01*
X92276247Y-71857142D02*
X92228628Y-71809523D01*
X92228628Y-71809523D02*
X92133390Y-71761904D01*
X92133390Y-71190475D02*
X92085771Y-71285713D01*
X92085771Y-71285713D02*
X92038152Y-71333332D01*
X92038152Y-71333332D02*
X91942914Y-71380951D01*
X91942914Y-71380951D02*
X91895295Y-71380951D01*
X91895295Y-71380951D02*
X91800057Y-71333332D01*
X91800057Y-71333332D02*
X91752438Y-71285713D01*
X91752438Y-71285713D02*
X91704819Y-71190475D01*
X91704819Y-71190475D02*
X91704819Y-70999999D01*
X91704819Y-70999999D02*
X91752438Y-70904761D01*
X91752438Y-70904761D02*
X91800057Y-70857142D01*
X91800057Y-70857142D02*
X91895295Y-70809523D01*
X91895295Y-70809523D02*
X91942914Y-70809523D01*
X91942914Y-70809523D02*
X92038152Y-70857142D01*
X92038152Y-70857142D02*
X92085771Y-70904761D01*
X92085771Y-70904761D02*
X92133390Y-70999999D01*
X92133390Y-70999999D02*
X92133390Y-71190475D01*
X92133390Y-71190475D02*
X92181009Y-71285713D01*
X92181009Y-71285713D02*
X92228628Y-71333332D01*
X92228628Y-71333332D02*
X92323866Y-71380951D01*
X92323866Y-71380951D02*
X92514342Y-71380951D01*
X92514342Y-71380951D02*
X92609580Y-71333332D01*
X92609580Y-71333332D02*
X92657200Y-71285713D01*
X92657200Y-71285713D02*
X92704819Y-71190475D01*
X92704819Y-71190475D02*
X92704819Y-70999999D01*
X92704819Y-70999999D02*
X92657200Y-70904761D01*
X92657200Y-70904761D02*
X92609580Y-70857142D01*
X92609580Y-70857142D02*
X92514342Y-70809523D01*
X92514342Y-70809523D02*
X92323866Y-70809523D01*
X92323866Y-70809523D02*
X92228628Y-70857142D01*
X92228628Y-70857142D02*
X92181009Y-70904761D01*
X92181009Y-70904761D02*
X92133390Y-70999999D01*
X91704819Y-70476189D02*
X92704819Y-70238094D01*
X92704819Y-70238094D02*
X91990533Y-70047618D01*
X91990533Y-70047618D02*
X92704819Y-69857142D01*
X92704819Y-69857142D02*
X91704819Y-69619047D01*
X92323866Y-69238094D02*
X92323866Y-68476190D01*
X92038152Y-67571428D02*
X92704819Y-67571428D01*
X91657200Y-67809523D02*
X92371485Y-68047618D01*
X92371485Y-68047618D02*
X92371485Y-67428571D01*
X91704819Y-67142856D02*
X91704819Y-66523809D01*
X91704819Y-66523809D02*
X92085771Y-66857142D01*
X92085771Y-66857142D02*
X92085771Y-66714285D01*
X92085771Y-66714285D02*
X92133390Y-66619047D01*
X92133390Y-66619047D02*
X92181009Y-66571428D01*
X92181009Y-66571428D02*
X92276247Y-66523809D01*
X92276247Y-66523809D02*
X92514342Y-66523809D01*
X92514342Y-66523809D02*
X92609580Y-66571428D01*
X92609580Y-66571428D02*
X92657200Y-66619047D01*
X92657200Y-66619047D02*
X92704819Y-66714285D01*
X92704819Y-66714285D02*
X92704819Y-66999999D01*
X92704819Y-66999999D02*
X92657200Y-67095237D01*
X92657200Y-67095237D02*
X92609580Y-67142856D01*
X91704819Y-66190475D02*
X91704819Y-65571428D01*
X91704819Y-65571428D02*
X92085771Y-65904761D01*
X92085771Y-65904761D02*
X92085771Y-65761904D01*
X92085771Y-65761904D02*
X92133390Y-65666666D01*
X92133390Y-65666666D02*
X92181009Y-65619047D01*
X92181009Y-65619047D02*
X92276247Y-65571428D01*
X92276247Y-65571428D02*
X92514342Y-65571428D01*
X92514342Y-65571428D02*
X92609580Y-65619047D01*
X92609580Y-65619047D02*
X92657200Y-65666666D01*
X92657200Y-65666666D02*
X92704819Y-65761904D01*
X92704819Y-65761904D02*
X92704819Y-66047618D01*
X92704819Y-66047618D02*
X92657200Y-66142856D01*
X92657200Y-66142856D02*
X92609580Y-66190475D01*
X92657200Y-65190475D02*
X92704819Y-65047618D01*
X92704819Y-65047618D02*
X92704819Y-64809523D01*
X92704819Y-64809523D02*
X92657200Y-64714285D01*
X92657200Y-64714285D02*
X92609580Y-64666666D01*
X92609580Y-64666666D02*
X92514342Y-64619047D01*
X92514342Y-64619047D02*
X92419104Y-64619047D01*
X92419104Y-64619047D02*
X92323866Y-64666666D01*
X92323866Y-64666666D02*
X92276247Y-64714285D01*
X92276247Y-64714285D02*
X92228628Y-64809523D01*
X92228628Y-64809523D02*
X92181009Y-64999999D01*
X92181009Y-64999999D02*
X92133390Y-65095237D01*
X92133390Y-65095237D02*
X92085771Y-65142856D01*
X92085771Y-65142856D02*
X91990533Y-65190475D01*
X91990533Y-65190475D02*
X91895295Y-65190475D01*
X91895295Y-65190475D02*
X91800057Y-65142856D01*
X91800057Y-65142856D02*
X91752438Y-65095237D01*
X91752438Y-65095237D02*
X91704819Y-64999999D01*
X91704819Y-64999999D02*
X91704819Y-64761904D01*
X91704819Y-64761904D02*
X91752438Y-64619047D01*
X91800057Y-64238094D02*
X91752438Y-64190475D01*
X91752438Y-64190475D02*
X91704819Y-64095237D01*
X91704819Y-64095237D02*
X91704819Y-63857142D01*
X91704819Y-63857142D02*
X91752438Y-63761904D01*
X91752438Y-63761904D02*
X91800057Y-63714285D01*
X91800057Y-63714285D02*
X91895295Y-63666666D01*
X91895295Y-63666666D02*
X91990533Y-63666666D01*
X91990533Y-63666666D02*
X92133390Y-63714285D01*
X92133390Y-63714285D02*
X92704819Y-64285713D01*
X92704819Y-64285713D02*
X92704819Y-63666666D01*
X94204819Y-70261904D02*
X95014342Y-70261904D01*
X95014342Y-70261904D02*
X95109580Y-70214285D01*
X95109580Y-70214285D02*
X95157200Y-70166666D01*
X95157200Y-70166666D02*
X95204819Y-70071428D01*
X95204819Y-70071428D02*
X95204819Y-69880952D01*
X95204819Y-69880952D02*
X95157200Y-69785714D01*
X95157200Y-69785714D02*
X95109580Y-69738095D01*
X95109580Y-69738095D02*
X95014342Y-69690476D01*
X95014342Y-69690476D02*
X94204819Y-69690476D01*
X94204819Y-69309523D02*
X94204819Y-68690476D01*
X94204819Y-68690476D02*
X94585771Y-69023809D01*
X94585771Y-69023809D02*
X94585771Y-68880952D01*
X94585771Y-68880952D02*
X94633390Y-68785714D01*
X94633390Y-68785714D02*
X94681009Y-68738095D01*
X94681009Y-68738095D02*
X94776247Y-68690476D01*
X94776247Y-68690476D02*
X95014342Y-68690476D01*
X95014342Y-68690476D02*
X95109580Y-68738095D01*
X95109580Y-68738095D02*
X95157200Y-68785714D01*
X95157200Y-68785714D02*
X95204819Y-68880952D01*
X95204819Y-68880952D02*
X95204819Y-69166666D01*
X95204819Y-69166666D02*
X95157200Y-69261904D01*
X95157200Y-69261904D02*
X95109580Y-69309523D01*
X87199819Y-57421428D02*
X87199819Y-57992856D01*
X87199819Y-57707142D02*
X86199819Y-57707142D01*
X86199819Y-57707142D02*
X86342676Y-57802380D01*
X86342676Y-57802380D02*
X86437914Y-57897618D01*
X86437914Y-57897618D02*
X86485533Y-57992856D01*
X86199819Y-56802380D02*
X86199819Y-56707142D01*
X86199819Y-56707142D02*
X86247438Y-56611904D01*
X86247438Y-56611904D02*
X86295057Y-56564285D01*
X86295057Y-56564285D02*
X86390295Y-56516666D01*
X86390295Y-56516666D02*
X86580771Y-56469047D01*
X86580771Y-56469047D02*
X86818866Y-56469047D01*
X86818866Y-56469047D02*
X87009342Y-56516666D01*
X87009342Y-56516666D02*
X87104580Y-56564285D01*
X87104580Y-56564285D02*
X87152200Y-56611904D01*
X87152200Y-56611904D02*
X87199819Y-56707142D01*
X87199819Y-56707142D02*
X87199819Y-56802380D01*
X87199819Y-56802380D02*
X87152200Y-56897618D01*
X87152200Y-56897618D02*
X87104580Y-56945237D01*
X87104580Y-56945237D02*
X87009342Y-56992856D01*
X87009342Y-56992856D02*
X86818866Y-57040475D01*
X86818866Y-57040475D02*
X86580771Y-57040475D01*
X86580771Y-57040475D02*
X86390295Y-56992856D01*
X86390295Y-56992856D02*
X86295057Y-56945237D01*
X86295057Y-56945237D02*
X86247438Y-56897618D01*
X86247438Y-56897618D02*
X86199819Y-56802380D01*
X86533152Y-55611904D02*
X87199819Y-55611904D01*
X86533152Y-56040475D02*
X87056961Y-56040475D01*
X87056961Y-56040475D02*
X87152200Y-55992856D01*
X87152200Y-55992856D02*
X87199819Y-55897618D01*
X87199819Y-55897618D02*
X87199819Y-55754761D01*
X87199819Y-55754761D02*
X87152200Y-55659523D01*
X87152200Y-55659523D02*
X87104580Y-55611904D01*
X86676009Y-54802380D02*
X86676009Y-55135713D01*
X87199819Y-55135713D02*
X86199819Y-55135713D01*
X86199819Y-55135713D02*
X86199819Y-54659523D01*
D11*
%TO.C,ANT1*%
X80620000Y-43620000D02*
X82000000Y-43620000D01*
X80620000Y-45000000D02*
X80620000Y-43620000D01*
X80620000Y-46270000D02*
X80620000Y-46380000D01*
X80620000Y-46270000D02*
X83380000Y-46270000D01*
X80620000Y-46380000D02*
X83380000Y-46380000D01*
X83380000Y-46270000D02*
X83380000Y-46380000D01*
%TO.C,U2*%
X84940000Y-43740000D02*
X84940000Y-43640000D01*
X84940000Y-53960000D02*
X84940000Y-53860000D01*
X94670000Y-53960000D02*
X84940000Y-53960000D01*
X94860000Y-43640000D02*
X84940000Y-43640000D01*
X94860000Y-43740000D02*
X94860000Y-43640000D01*
X95280000Y-54190000D02*
X94800000Y-54190000D01*
X95040000Y-53860000D01*
X95280000Y-54190000D01*
G36*
X95280000Y-54190000D02*
G01*
X94800000Y-54190000D01*
X95040000Y-53860000D01*
X95280000Y-54190000D01*
G37*
%TO.C,R2*%
X99652500Y-56257776D02*
X99652500Y-56767224D01*
X100697500Y-56257776D02*
X100697500Y-56767224D01*
%TO.C,C3*%
X98028733Y-50340000D02*
X98321267Y-50340000D01*
X98028733Y-51360000D02*
X98321267Y-51360000D01*
%TO.C,J1*%
X97605000Y-43870000D02*
X97605000Y-46630000D01*
X100255000Y-43870000D02*
X97605000Y-43870000D01*
X100255000Y-43870000D02*
X100255000Y-46630000D01*
X100255000Y-46630000D02*
X97605000Y-46630000D01*
X101525000Y-43870000D02*
X102905000Y-43870000D01*
X102905000Y-43870000D02*
X102905000Y-45250000D01*
%TO.C,R1*%
X98170276Y-53577500D02*
X98679724Y-53577500D01*
X98170276Y-54622500D02*
X98679724Y-54622500D01*
%TO.C,U4*%
X95865000Y-57350000D02*
X95865000Y-56550000D01*
X95865000Y-57350000D02*
X95865000Y-58150000D01*
X99085000Y-58350000D02*
X99085000Y-56550000D01*
X95915000Y-58650000D02*
X95585000Y-58890000D01*
X95585000Y-58410000D01*
X95915000Y-58650000D01*
G36*
X95915000Y-58650000D02*
G01*
X95585000Y-58890000D01*
X95585000Y-58410000D01*
X95915000Y-58650000D01*
G37*
%TO.C,ANT2*%
X91870000Y-79120000D02*
X93250000Y-79120000D01*
X91870000Y-80500000D02*
X91870000Y-79120000D01*
X91870000Y-81770000D02*
X91870000Y-81880000D01*
X91870000Y-81770000D02*
X94630000Y-81770000D01*
X91870000Y-81880000D02*
X94630000Y-81880000D01*
X94630000Y-81770000D02*
X94630000Y-81880000D01*
%TO.C,L1*%
X89315000Y-54740000D02*
X89565000Y-54740000D01*
X89315000Y-59960000D02*
X89315000Y-54740000D01*
X89565000Y-59960000D02*
X89315000Y-59960000D01*
X94285000Y-54740000D02*
X94535000Y-54740000D01*
X94535000Y-54740000D02*
X94535000Y-59960000D01*
X94535000Y-59960000D02*
X94285000Y-59960000D01*
%TO.C,U3*%
X85150000Y-61400000D02*
X101350000Y-61400000D01*
X85150000Y-77200000D02*
X85150000Y-77600000D01*
X85150000Y-77600000D02*
X101350000Y-77600000D01*
X101350000Y-61400000D02*
X101350000Y-61800000D01*
X101350000Y-77600000D02*
X101350000Y-77200000D01*
X84650000Y-61600000D02*
X84410000Y-61264000D01*
X84890000Y-61264000D01*
X84650000Y-61600000D01*
G36*
X84650000Y-61600000D02*
G01*
X84410000Y-61264000D01*
X84890000Y-61264000D01*
X84650000Y-61600000D01*
G37*
%TO.C,C2*%
X87665000Y-56203733D02*
X87665000Y-56496267D01*
X88685000Y-56203733D02*
X88685000Y-56496267D01*
%TD*%
M02*
